G04 #@! TF.GenerationSoftware,KiCad,Pcbnew,(5.1.0)-1*
G04 #@! TF.CreationDate,2019-07-15T22:00:38+02:00*
G04 #@! TF.ProjectId,besc g2,62657363-2067-4322-9e6b-696361645f70,Init*
G04 #@! TF.SameCoordinates,Original*
G04 #@! TF.FileFunction,Legend,Bot*
G04 #@! TF.FilePolarity,Positive*
%FSLAX46Y46*%
G04 Gerber Fmt 4.6, Leading zero omitted, Abs format (unit mm)*
G04 Created by KiCad (PCBNEW (5.1.0)-1) date 2019-07-15 22:00:38*
%MOMM*%
%LPD*%
G04 APERTURE LIST*
%ADD10C,0.120000*%
%ADD11C,0.150000*%
G04 APERTURE END LIST*
D10*
X37050000Y-116900000D02*
X37050000Y-116400000D01*
X32800000Y-116400000D02*
X41550000Y-116400000D01*
X32550000Y-116150000D02*
X32800000Y-116400000D01*
X32550000Y-113650000D02*
X32550000Y-116150000D01*
X32800000Y-113400000D02*
X32550000Y-113650000D01*
X41550000Y-113400000D02*
X32800000Y-113400000D01*
X41800000Y-113650000D02*
X41550000Y-113400000D01*
X41800000Y-116150000D02*
X41800000Y-113650000D01*
X41550000Y-116400000D02*
X41800000Y-116150000D01*
X40800000Y-116900000D02*
X33300000Y-116900000D01*
X41050000Y-117150000D02*
X40800000Y-116900000D01*
X41050000Y-119650000D02*
X41050000Y-117150000D01*
X40800000Y-119900000D02*
X41050000Y-119650000D01*
X33300000Y-119900000D02*
X40800000Y-119900000D01*
X33050000Y-119650000D02*
X33300000Y-119900000D01*
X33050000Y-117150000D02*
X33050000Y-119650000D01*
X33300000Y-116900000D02*
X33050000Y-117150000D01*
X44016422Y-110990000D02*
X44533578Y-110990000D01*
X44016422Y-112410000D02*
X44533578Y-112410000D01*
X41940000Y-109052064D02*
X41940000Y-107847936D01*
X44660000Y-109052064D02*
X44660000Y-107847936D01*
X248962779Y-101910000D02*
X248637221Y-101910000D01*
X248962779Y-100890000D02*
X248637221Y-100890000D01*
X181462779Y-101410000D02*
X181137221Y-101410000D01*
X181462779Y-100390000D02*
X181137221Y-100390000D01*
X113962779Y-101410000D02*
X113637221Y-101410000D01*
X113962779Y-100390000D02*
X113637221Y-100390000D01*
X254962779Y-101910000D02*
X254637221Y-101910000D01*
X254962779Y-100890000D02*
X254637221Y-100890000D01*
X187312779Y-101410000D02*
X186987221Y-101410000D01*
X187312779Y-100390000D02*
X186987221Y-100390000D01*
X119862779Y-101410000D02*
X119537221Y-101410000D01*
X119862779Y-100390000D02*
X119537221Y-100390000D01*
X253308578Y-118610000D02*
X252791422Y-118610000D01*
X253308578Y-117190000D02*
X252791422Y-117190000D01*
X185808578Y-117860000D02*
X185291422Y-117860000D01*
X185808578Y-116440000D02*
X185291422Y-116440000D01*
X118308578Y-118360000D02*
X117791422Y-118360000D01*
X118308578Y-116940000D02*
X117791422Y-116940000D01*
X185712779Y-115410000D02*
X185387221Y-115410000D01*
X185712779Y-114390000D02*
X185387221Y-114390000D01*
X253212779Y-116160000D02*
X252887221Y-116160000D01*
X253212779Y-115140000D02*
X252887221Y-115140000D01*
X118212779Y-115660000D02*
X117887221Y-115660000D01*
X118212779Y-114640000D02*
X117887221Y-114640000D01*
X89550000Y-90650000D02*
X88300000Y-90650000D01*
X89550000Y-90650000D02*
X89550000Y-91900000D01*
X80050000Y-90650000D02*
X80050000Y-91900000D01*
X80050000Y-90650000D02*
X81300000Y-90650000D01*
X80050000Y-107150000D02*
X81300000Y-107150000D01*
X80050000Y-107150000D02*
X80050000Y-105900000D01*
X89550000Y-107150000D02*
X88300000Y-107150000D01*
X89550000Y-107150000D02*
X89550000Y-105900000D01*
X157050000Y-90650000D02*
X155800000Y-90650000D01*
X157050000Y-90650000D02*
X157050000Y-91900000D01*
X147550000Y-90650000D02*
X147550000Y-91900000D01*
X147550000Y-90650000D02*
X148800000Y-90650000D01*
X147550000Y-107150000D02*
X148800000Y-107150000D01*
X147550000Y-107150000D02*
X147550000Y-105900000D01*
X157050000Y-107150000D02*
X155800000Y-107150000D01*
X157050000Y-107150000D02*
X157050000Y-105900000D01*
X224550000Y-90650000D02*
X223300000Y-90650000D01*
X224550000Y-90650000D02*
X224550000Y-91900000D01*
X215050000Y-90650000D02*
X215050000Y-91900000D01*
X215050000Y-90650000D02*
X216300000Y-90650000D01*
X215050000Y-107150000D02*
X216300000Y-107150000D01*
X215050000Y-107150000D02*
X215050000Y-105900000D01*
X224550000Y-107150000D02*
X223300000Y-107150000D01*
X224550000Y-107150000D02*
X224550000Y-105900000D01*
X166900000Y-116550000D02*
X172200000Y-116550000D01*
X166900000Y-120250000D02*
X166900000Y-116550000D01*
X177880000Y-99090000D02*
X167640000Y-99090000D01*
X177880000Y-108580000D02*
X167640000Y-108580000D01*
X177880000Y-99090000D02*
X177880000Y-108580000D01*
X167640000Y-99090000D02*
X167640000Y-108580000D01*
X175300000Y-96550000D02*
X175300000Y-99090000D01*
X172760000Y-96550000D02*
X172760000Y-99090000D01*
X170220000Y-96550000D02*
X170220000Y-99090000D01*
X204380000Y-99090000D02*
X194140000Y-99090000D01*
X204380000Y-108580000D02*
X194140000Y-108580000D01*
X204380000Y-99090000D02*
X204380000Y-108580000D01*
X194140000Y-99090000D02*
X194140000Y-108580000D01*
X201800000Y-96550000D02*
X201800000Y-99090000D01*
X199260000Y-96550000D02*
X199260000Y-99090000D01*
X196720000Y-96550000D02*
X196720000Y-99090000D01*
X235220000Y-69710000D02*
X245460000Y-69710000D01*
X235220000Y-60220000D02*
X245460000Y-60220000D01*
X235220000Y-69710000D02*
X235220000Y-60220000D01*
X245460000Y-69710000D02*
X245460000Y-60220000D01*
X237800000Y-72250000D02*
X237800000Y-69710000D01*
X240340000Y-72250000D02*
X240340000Y-69710000D01*
X242880000Y-72250000D02*
X242880000Y-69710000D01*
X136880000Y-99090000D02*
X126640000Y-99090000D01*
X136880000Y-108580000D02*
X126640000Y-108580000D01*
X136880000Y-99090000D02*
X136880000Y-108580000D01*
X126640000Y-99090000D02*
X126640000Y-108580000D01*
X134300000Y-96550000D02*
X134300000Y-99090000D01*
X131760000Y-96550000D02*
X131760000Y-99090000D01*
X129220000Y-96550000D02*
X129220000Y-99090000D01*
X167720000Y-69710000D02*
X177960000Y-69710000D01*
X167720000Y-60220000D02*
X177960000Y-60220000D01*
X167720000Y-69710000D02*
X167720000Y-60220000D01*
X177960000Y-69710000D02*
X177960000Y-60220000D01*
X170300000Y-72250000D02*
X170300000Y-69710000D01*
X172840000Y-72250000D02*
X172840000Y-69710000D01*
X175380000Y-72250000D02*
X175380000Y-69710000D01*
X99880000Y-99090000D02*
X89640000Y-99090000D01*
X99880000Y-108580000D02*
X89640000Y-108580000D01*
X99880000Y-99090000D02*
X99880000Y-108580000D01*
X89640000Y-99090000D02*
X89640000Y-108580000D01*
X97300000Y-96550000D02*
X97300000Y-99090000D01*
X94760000Y-96550000D02*
X94760000Y-99090000D01*
X92220000Y-96550000D02*
X92220000Y-99090000D01*
X59220000Y-69710000D02*
X69460000Y-69710000D01*
X59220000Y-60220000D02*
X69460000Y-60220000D01*
X59220000Y-69710000D02*
X59220000Y-60220000D01*
X69460000Y-69710000D02*
X69460000Y-60220000D01*
X61800000Y-72250000D02*
X61800000Y-69710000D01*
X64340000Y-72250000D02*
X64340000Y-69710000D01*
X66880000Y-72250000D02*
X66880000Y-69710000D01*
X214960000Y-99090000D02*
X204720000Y-99090000D01*
X214960000Y-108580000D02*
X204720000Y-108580000D01*
X214960000Y-99090000D02*
X214960000Y-108580000D01*
X204720000Y-99090000D02*
X204720000Y-108580000D01*
X212380000Y-96550000D02*
X212380000Y-99090000D01*
X209840000Y-96550000D02*
X209840000Y-99090000D01*
X207300000Y-96550000D02*
X207300000Y-99090000D01*
X224640000Y-69710000D02*
X234880000Y-69710000D01*
X224640000Y-60220000D02*
X234880000Y-60220000D01*
X224640000Y-69710000D02*
X224640000Y-60220000D01*
X234880000Y-69710000D02*
X234880000Y-60220000D01*
X227220000Y-72250000D02*
X227220000Y-69710000D01*
X229760000Y-72250000D02*
X229760000Y-69710000D01*
X232300000Y-72250000D02*
X232300000Y-69710000D01*
X147380000Y-99090000D02*
X137140000Y-99090000D01*
X147380000Y-108580000D02*
X137140000Y-108580000D01*
X147380000Y-99090000D02*
X147380000Y-108580000D01*
X137140000Y-99090000D02*
X137140000Y-108580000D01*
X144800000Y-96550000D02*
X144800000Y-99090000D01*
X142260000Y-96550000D02*
X142260000Y-99090000D01*
X139720000Y-96550000D02*
X139720000Y-99090000D01*
X157220000Y-69710000D02*
X167460000Y-69710000D01*
X157220000Y-60220000D02*
X167460000Y-60220000D01*
X157220000Y-69710000D02*
X157220000Y-60220000D01*
X167460000Y-69710000D02*
X167460000Y-60220000D01*
X159800000Y-72250000D02*
X159800000Y-69710000D01*
X162340000Y-72250000D02*
X162340000Y-69710000D01*
X164880000Y-72250000D02*
X164880000Y-69710000D01*
X110880000Y-99090000D02*
X100640000Y-99090000D01*
X110880000Y-108580000D02*
X100640000Y-108580000D01*
X110880000Y-99090000D02*
X110880000Y-108580000D01*
X100640000Y-99090000D02*
X100640000Y-108580000D01*
X108300000Y-96550000D02*
X108300000Y-99090000D01*
X105760000Y-96550000D02*
X105760000Y-99090000D01*
X103220000Y-96550000D02*
X103220000Y-99090000D01*
X69720000Y-69710000D02*
X79960000Y-69710000D01*
X69720000Y-60220000D02*
X79960000Y-60220000D01*
X69720000Y-69710000D02*
X69720000Y-60220000D01*
X79960000Y-69710000D02*
X79960000Y-60220000D01*
X72300000Y-72250000D02*
X72300000Y-69710000D01*
X74840000Y-72250000D02*
X74840000Y-69710000D01*
X77380000Y-72250000D02*
X77380000Y-69710000D01*
X234880000Y-99090000D02*
X224640000Y-99090000D01*
X234880000Y-108580000D02*
X224640000Y-108580000D01*
X234880000Y-99090000D02*
X234880000Y-108580000D01*
X224640000Y-99090000D02*
X224640000Y-108580000D01*
X232300000Y-96550000D02*
X232300000Y-99090000D01*
X229760000Y-96550000D02*
X229760000Y-99090000D01*
X227220000Y-96550000D02*
X227220000Y-99090000D01*
X204720000Y-69710000D02*
X214960000Y-69710000D01*
X204720000Y-60220000D02*
X214960000Y-60220000D01*
X204720000Y-69710000D02*
X204720000Y-60220000D01*
X214960000Y-69710000D02*
X214960000Y-60220000D01*
X207300000Y-72250000D02*
X207300000Y-69710000D01*
X209840000Y-72250000D02*
X209840000Y-69710000D01*
X212380000Y-72250000D02*
X212380000Y-69710000D01*
X167380000Y-99090000D02*
X157140000Y-99090000D01*
X167380000Y-108580000D02*
X157140000Y-108580000D01*
X167380000Y-99090000D02*
X167380000Y-108580000D01*
X157140000Y-99090000D02*
X157140000Y-108580000D01*
X164800000Y-96550000D02*
X164800000Y-99090000D01*
X162260000Y-96550000D02*
X162260000Y-99090000D01*
X159720000Y-96550000D02*
X159720000Y-99090000D01*
X137220000Y-69710000D02*
X147460000Y-69710000D01*
X137220000Y-60220000D02*
X147460000Y-60220000D01*
X137220000Y-69710000D02*
X137220000Y-60220000D01*
X147460000Y-69710000D02*
X147460000Y-60220000D01*
X139800000Y-72250000D02*
X139800000Y-69710000D01*
X142340000Y-72250000D02*
X142340000Y-69710000D01*
X144880000Y-72250000D02*
X144880000Y-69710000D01*
X69380000Y-99090000D02*
X59140000Y-99090000D01*
X69380000Y-108580000D02*
X59140000Y-108580000D01*
X69380000Y-99090000D02*
X69380000Y-108580000D01*
X59140000Y-99090000D02*
X59140000Y-108580000D01*
X66800000Y-96550000D02*
X66800000Y-99090000D01*
X64260000Y-96550000D02*
X64260000Y-99090000D01*
X61720000Y-96550000D02*
X61720000Y-99090000D01*
X89720000Y-69710000D02*
X99960000Y-69710000D01*
X89720000Y-60220000D02*
X99960000Y-60220000D01*
X89720000Y-69710000D02*
X89720000Y-60220000D01*
X99960000Y-69710000D02*
X99960000Y-60220000D01*
X92300000Y-72250000D02*
X92300000Y-69710000D01*
X94840000Y-72250000D02*
X94840000Y-69710000D01*
X97380000Y-72250000D02*
X97380000Y-69710000D01*
X245380000Y-99090000D02*
X235140000Y-99090000D01*
X245380000Y-108580000D02*
X235140000Y-108580000D01*
X245380000Y-99090000D02*
X245380000Y-108580000D01*
X235140000Y-99090000D02*
X235140000Y-108580000D01*
X242800000Y-96550000D02*
X242800000Y-99090000D01*
X240260000Y-96550000D02*
X240260000Y-99090000D01*
X237720000Y-96550000D02*
X237720000Y-99090000D01*
X194140000Y-69710000D02*
X204380000Y-69710000D01*
X194140000Y-60220000D02*
X204380000Y-60220000D01*
X194140000Y-69710000D02*
X194140000Y-60220000D01*
X204380000Y-69710000D02*
X204380000Y-60220000D01*
X196720000Y-72250000D02*
X196720000Y-69710000D01*
X199260000Y-72250000D02*
X199260000Y-69710000D01*
X201800000Y-72250000D02*
X201800000Y-69710000D01*
X126720000Y-69710000D02*
X136960000Y-69710000D01*
X126720000Y-60220000D02*
X136960000Y-60220000D01*
X126720000Y-69710000D02*
X126720000Y-60220000D01*
X136960000Y-69710000D02*
X136960000Y-60220000D01*
X129300000Y-72250000D02*
X129300000Y-69710000D01*
X131840000Y-72250000D02*
X131840000Y-69710000D01*
X134380000Y-72250000D02*
X134380000Y-69710000D01*
X79990000Y-99090000D02*
X69750000Y-99090000D01*
X79990000Y-108580000D02*
X69750000Y-108580000D01*
X79990000Y-99090000D02*
X79990000Y-108580000D01*
X69750000Y-99090000D02*
X69750000Y-108580000D01*
X77410000Y-96550000D02*
X77410000Y-99090000D01*
X74870000Y-96550000D02*
X74870000Y-99090000D01*
X72330000Y-96550000D02*
X72330000Y-99090000D01*
X100250000Y-69710000D02*
X110490000Y-69710000D01*
X100250000Y-60220000D02*
X110490000Y-60220000D01*
X100250000Y-69710000D02*
X100250000Y-60220000D01*
X110490000Y-69710000D02*
X110490000Y-60220000D01*
X102830000Y-72250000D02*
X102830000Y-69710000D01*
X105370000Y-72250000D02*
X105370000Y-69710000D01*
X107910000Y-72250000D02*
X107910000Y-69710000D01*
X193212779Y-94910000D02*
X192887221Y-94910000D01*
X193212779Y-93890000D02*
X192887221Y-93890000D01*
X40050000Y-121650000D02*
X40050000Y-125550000D01*
X42050000Y-121650000D02*
X42050000Y-125550000D01*
X40050000Y-121650000D02*
X42050000Y-121650000D01*
X89072936Y-121490000D02*
X90277064Y-121490000D01*
X89072936Y-123310000D02*
X90277064Y-123310000D01*
X59150000Y-119350000D02*
X59150000Y-124750000D01*
X62450000Y-119350000D02*
X62450000Y-124750000D01*
X59150000Y-119350000D02*
X62450000Y-119350000D01*
X257900000Y-98000000D02*
X257900000Y-103400000D01*
X261200000Y-98000000D02*
X261200000Y-103400000D01*
X257900000Y-98000000D02*
X261200000Y-98000000D01*
X190150000Y-97500000D02*
X190150000Y-102900000D01*
X193450000Y-97500000D02*
X193450000Y-102900000D01*
X190150000Y-97500000D02*
X193450000Y-97500000D01*
X122650000Y-97500000D02*
X122650000Y-102900000D01*
X125950000Y-97500000D02*
X125950000Y-102900000D01*
X122650000Y-97500000D02*
X125950000Y-97500000D01*
X257420000Y-113310000D02*
X257410000Y-113240000D01*
X257430000Y-113260000D02*
G75*
G03X257430000Y-113260000I-10000J0D01*
G01*
X257506023Y-113260000D02*
G75*
G03X257506023Y-113260000I-86023J0D01*
G01*
X257581245Y-113260000D02*
G75*
G03X257581245Y-113260000I-161245J0D01*
G01*
D11*
X256850000Y-112275000D02*
X256850000Y-113800000D01*
X246475000Y-112275000D02*
X246475000Y-104525000D01*
X257125000Y-112275000D02*
X257125000Y-104525000D01*
X246475000Y-112275000D02*
X246830000Y-112275000D01*
X246475000Y-104525000D02*
X246830000Y-104525000D01*
X257125000Y-104525000D02*
X256770000Y-104525000D01*
X257125000Y-112275000D02*
X256850000Y-112275000D01*
D10*
X189920000Y-112810000D02*
X189910000Y-112740000D01*
X189930000Y-112760000D02*
G75*
G03X189930000Y-112760000I-10000J0D01*
G01*
X190006023Y-112760000D02*
G75*
G03X190006023Y-112760000I-86023J0D01*
G01*
X190081245Y-112760000D02*
G75*
G03X190081245Y-112760000I-161245J0D01*
G01*
D11*
X189350000Y-111775000D02*
X189350000Y-113300000D01*
X178975000Y-111775000D02*
X178975000Y-104025000D01*
X189625000Y-111775000D02*
X189625000Y-104025000D01*
X178975000Y-111775000D02*
X179330000Y-111775000D01*
X178975000Y-104025000D02*
X179330000Y-104025000D01*
X189625000Y-104025000D02*
X189270000Y-104025000D01*
X189625000Y-111775000D02*
X189350000Y-111775000D01*
D10*
X122420000Y-112810000D02*
X122410000Y-112740000D01*
X122430000Y-112760000D02*
G75*
G03X122430000Y-112760000I-10000J0D01*
G01*
X122506023Y-112760000D02*
G75*
G03X122506023Y-112760000I-86023J0D01*
G01*
X122581245Y-112760000D02*
G75*
G03X122581245Y-112760000I-161245J0D01*
G01*
D11*
X121850000Y-111775000D02*
X121850000Y-113300000D01*
X111475000Y-111775000D02*
X111475000Y-104025000D01*
X122125000Y-111775000D02*
X122125000Y-104025000D01*
X111475000Y-111775000D02*
X111830000Y-111775000D01*
X111475000Y-104025000D02*
X111830000Y-104025000D01*
X122125000Y-104025000D02*
X121770000Y-104025000D01*
X122125000Y-111775000D02*
X121850000Y-111775000D01*
D10*
X38962779Y-116160000D02*
X38637221Y-116160000D01*
X38962779Y-115140000D02*
X38637221Y-115140000D01*
X41560000Y-114737221D02*
X41560000Y-115062779D01*
X40540000Y-114737221D02*
X40540000Y-115062779D01*
X38962779Y-114660000D02*
X38637221Y-114660000D01*
X38962779Y-113640000D02*
X38637221Y-113640000D01*
X115447936Y-83490000D02*
X116652064Y-83490000D01*
X115447936Y-85310000D02*
X116652064Y-85310000D01*
X183197936Y-83490000D02*
X184402064Y-83490000D01*
X183197936Y-85310000D02*
X184402064Y-85310000D01*
X249197936Y-83490000D02*
X250402064Y-83490000D01*
X249197936Y-85310000D02*
X250402064Y-85310000D01*
X47697936Y-83490000D02*
X48902064Y-83490000D01*
X47697936Y-85310000D02*
X48902064Y-85310000D01*
X34212779Y-112660000D02*
X33887221Y-112660000D01*
X34212779Y-111640000D02*
X33887221Y-111640000D01*
X33887221Y-115140000D02*
X34212779Y-115140000D01*
X33887221Y-116160000D02*
X34212779Y-116160000D01*
X35290000Y-104812779D02*
X35290000Y-104487221D01*
X36310000Y-104812779D02*
X36310000Y-104487221D01*
X37040000Y-104812779D02*
X37040000Y-104487221D01*
X38060000Y-104812779D02*
X38060000Y-104487221D01*
X37035000Y-112150000D02*
X36310000Y-112150000D01*
X40530000Y-106930000D02*
X40530000Y-107655000D01*
X39805000Y-106930000D02*
X40530000Y-106930000D01*
X36310000Y-106930000D02*
X36310000Y-107655000D01*
X37035000Y-106930000D02*
X36310000Y-106930000D01*
X40530000Y-112150000D02*
X40530000Y-111425000D01*
X39805000Y-112150000D02*
X40530000Y-112150000D01*
X58560000Y-117160000D02*
X50500000Y-117160000D01*
X58560000Y-112640000D02*
X58560000Y-117160000D01*
X50500000Y-112640000D02*
X58560000Y-112640000D01*
X58560000Y-127160000D02*
X50500000Y-127160000D01*
X58560000Y-122640000D02*
X58560000Y-127160000D01*
X50500000Y-122640000D02*
X58560000Y-122640000D01*
X58560000Y-122160000D02*
X50500000Y-122160000D01*
X58560000Y-117640000D02*
X58560000Y-122160000D01*
X50500000Y-117640000D02*
X58560000Y-117640000D01*
X33887221Y-113640000D02*
X34212779Y-113640000D01*
X33887221Y-114660000D02*
X34212779Y-114660000D01*
X37060000Y-114737221D02*
X37060000Y-115062779D01*
X36040000Y-114737221D02*
X36040000Y-115062779D01*
X40887221Y-104890000D02*
X41212779Y-104890000D01*
X40887221Y-105910000D02*
X41212779Y-105910000D01*
X42540000Y-123062779D02*
X42540000Y-122737221D01*
X43560000Y-123062779D02*
X43560000Y-122737221D01*
X45712779Y-124160000D02*
X45387221Y-124160000D01*
X45712779Y-123140000D02*
X45387221Y-123140000D01*
X260460000Y-107797936D02*
X260460000Y-109002064D01*
X258640000Y-107797936D02*
X258640000Y-109002064D01*
X192710000Y-107297936D02*
X192710000Y-108502064D01*
X190890000Y-107297936D02*
X190890000Y-108502064D01*
X249402064Y-99810000D02*
X248197936Y-99810000D01*
X249402064Y-97990000D02*
X248197936Y-97990000D01*
X181902064Y-99310000D02*
X180697936Y-99310000D01*
X181902064Y-97490000D02*
X180697936Y-97490000D01*
X255402064Y-99810000D02*
X254197936Y-99810000D01*
X255402064Y-97990000D02*
X254197936Y-97990000D01*
X187902064Y-99310000D02*
X186697936Y-99310000D01*
X187902064Y-97490000D02*
X186697936Y-97490000D01*
X120402064Y-99310000D02*
X119197936Y-99310000D01*
X120402064Y-97490000D02*
X119197936Y-97490000D01*
X114402064Y-99310000D02*
X113197936Y-99310000D01*
X114402064Y-97490000D02*
X113197936Y-97490000D01*
X54402064Y-85310000D02*
X53197936Y-85310000D01*
X54402064Y-83490000D02*
X53197936Y-83490000D01*
X255902064Y-85310000D02*
X254697936Y-85310000D01*
X255902064Y-83490000D02*
X254697936Y-83490000D01*
X189902064Y-85310000D02*
X188697936Y-85310000D01*
X189902064Y-83490000D02*
X188697936Y-83490000D01*
X162387221Y-122640000D02*
X162712779Y-122640000D01*
X162387221Y-123660000D02*
X162712779Y-123660000D01*
X171830000Y-125727221D02*
X171830000Y-126052779D01*
X170810000Y-125727221D02*
X170810000Y-126052779D01*
X168462779Y-125410000D02*
X168137221Y-125410000D01*
X168462779Y-124390000D02*
X168137221Y-124390000D01*
X162387221Y-126140000D02*
X162712779Y-126140000D01*
X162387221Y-127160000D02*
X162712779Y-127160000D01*
X170212779Y-121660000D02*
X169887221Y-121660000D01*
X170212779Y-120640000D02*
X169887221Y-120640000D01*
X172690000Y-118462779D02*
X172690000Y-118137221D01*
X173710000Y-118462779D02*
X173710000Y-118137221D01*
X175920000Y-119812779D02*
X175920000Y-119487221D01*
X176940000Y-119812779D02*
X176940000Y-119487221D01*
X162387221Y-124390000D02*
X162712779Y-124390000D01*
X162387221Y-125410000D02*
X162712779Y-125410000D01*
X168462779Y-127160000D02*
X168137221Y-127160000D01*
X168462779Y-126140000D02*
X168137221Y-126140000D01*
X81540000Y-124562779D02*
X81540000Y-124237221D01*
X82560000Y-124562779D02*
X82560000Y-124237221D01*
X125210000Y-107297936D02*
X125210000Y-108502064D01*
X123390000Y-107297936D02*
X123390000Y-108502064D01*
X101010000Y-72203922D02*
X101010000Y-72721078D01*
X99590000Y-72203922D02*
X99590000Y-72721078D01*
X127510000Y-72141422D02*
X127510000Y-72658578D01*
X126090000Y-72141422D02*
X126090000Y-72658578D01*
X195010000Y-72141422D02*
X195010000Y-72658578D01*
X193590000Y-72141422D02*
X193590000Y-72658578D01*
X91010000Y-72141422D02*
X91010000Y-72658578D01*
X89590000Y-72141422D02*
X89590000Y-72658578D01*
X138010000Y-72141422D02*
X138010000Y-72658578D01*
X136590000Y-72141422D02*
X136590000Y-72658578D01*
X205510000Y-72203922D02*
X205510000Y-72721078D01*
X204090000Y-72203922D02*
X204090000Y-72721078D01*
X70510000Y-72141422D02*
X70510000Y-72658578D01*
X69090000Y-72141422D02*
X69090000Y-72658578D01*
X158510000Y-72203922D02*
X158510000Y-72721078D01*
X157090000Y-72203922D02*
X157090000Y-72721078D01*
X226010000Y-72141422D02*
X226010000Y-72658578D01*
X224590000Y-72141422D02*
X224590000Y-72658578D01*
X60010000Y-72141422D02*
X60010000Y-72658578D01*
X58590000Y-72141422D02*
X58590000Y-72658578D01*
X168260000Y-72203922D02*
X168260000Y-72721078D01*
X166840000Y-72203922D02*
X166840000Y-72721078D01*
X235760000Y-72203922D02*
X235760000Y-72721078D01*
X234340000Y-72203922D02*
X234340000Y-72721078D01*
X174290000Y-119812779D02*
X174290000Y-119487221D01*
X175310000Y-119812779D02*
X175310000Y-119487221D01*
X122152064Y-85310000D02*
X120947936Y-85310000D01*
X122152064Y-83490000D02*
X120947936Y-83490000D01*
X83590000Y-125910000D02*
X83590000Y-119150000D01*
X87010000Y-125910000D02*
X83590000Y-125910000D01*
X87010000Y-119150000D02*
X87010000Y-125910000D01*
X44725000Y-113666666D02*
X44958333Y-113333333D01*
X45125000Y-113666666D02*
X45125000Y-112966666D01*
X44858333Y-112966666D01*
X44791666Y-113000000D01*
X44758333Y-113033333D01*
X44725000Y-113100000D01*
X44725000Y-113200000D01*
X44758333Y-113266666D01*
X44791666Y-113300000D01*
X44858333Y-113333333D01*
X45125000Y-113333333D01*
X44391666Y-113666666D02*
X44258333Y-113666666D01*
X44191666Y-113633333D01*
X44158333Y-113600000D01*
X44091666Y-113500000D01*
X44058333Y-113366666D01*
X44058333Y-113100000D01*
X44091666Y-113033333D01*
X44125000Y-113000000D01*
X44191666Y-112966666D01*
X44325000Y-112966666D01*
X44391666Y-113000000D01*
X44425000Y-113033333D01*
X44458333Y-113100000D01*
X44458333Y-113266666D01*
X44425000Y-113333333D01*
X44391666Y-113366666D01*
X44325000Y-113400000D01*
X44191666Y-113400000D01*
X44125000Y-113366666D01*
X44091666Y-113333333D01*
X44058333Y-113266666D01*
X43825000Y-112966666D02*
X43391666Y-112966666D01*
X43625000Y-113233333D01*
X43525000Y-113233333D01*
X43458333Y-113266666D01*
X43425000Y-113300000D01*
X43391666Y-113366666D01*
X43391666Y-113533333D01*
X43425000Y-113600000D01*
X43458333Y-113633333D01*
X43525000Y-113666666D01*
X43725000Y-113666666D01*
X43791666Y-113633333D01*
X43825000Y-113600000D01*
X45830000Y-108000000D02*
X45863333Y-107966666D01*
X45896666Y-107866666D01*
X45896666Y-107800000D01*
X45863333Y-107700000D01*
X45796666Y-107633333D01*
X45730000Y-107600000D01*
X45596666Y-107566666D01*
X45496666Y-107566666D01*
X45363333Y-107600000D01*
X45296666Y-107633333D01*
X45230000Y-107700000D01*
X45196666Y-107800000D01*
X45196666Y-107866666D01*
X45230000Y-107966666D01*
X45263333Y-108000000D01*
X45896666Y-108333333D02*
X45896666Y-108466666D01*
X45863333Y-108533333D01*
X45830000Y-108566666D01*
X45730000Y-108633333D01*
X45596666Y-108666666D01*
X45330000Y-108666666D01*
X45263333Y-108633333D01*
X45230000Y-108600000D01*
X45196666Y-108533333D01*
X45196666Y-108400000D01*
X45230000Y-108333333D01*
X45263333Y-108300000D01*
X45330000Y-108266666D01*
X45496666Y-108266666D01*
X45563333Y-108300000D01*
X45596666Y-108333333D01*
X45630000Y-108400000D01*
X45630000Y-108533333D01*
X45596666Y-108600000D01*
X45563333Y-108633333D01*
X45496666Y-108666666D01*
X45496666Y-109066666D02*
X45463333Y-109000000D01*
X45430000Y-108966666D01*
X45363333Y-108933333D01*
X45330000Y-108933333D01*
X45263333Y-108966666D01*
X45230000Y-109000000D01*
X45196666Y-109066666D01*
X45196666Y-109200000D01*
X45230000Y-109266666D01*
X45263333Y-109300000D01*
X45330000Y-109333333D01*
X45363333Y-109333333D01*
X45430000Y-109300000D01*
X45463333Y-109266666D01*
X45496666Y-109200000D01*
X45496666Y-109066666D01*
X45530000Y-109000000D01*
X45563333Y-108966666D01*
X45630000Y-108933333D01*
X45763333Y-108933333D01*
X45830000Y-108966666D01*
X45863333Y-109000000D01*
X45896666Y-109066666D01*
X45896666Y-109200000D01*
X45863333Y-109266666D01*
X45830000Y-109300000D01*
X45763333Y-109333333D01*
X45630000Y-109333333D01*
X45563333Y-109300000D01*
X45530000Y-109266666D01*
X45496666Y-109200000D01*
X247050000Y-100950000D02*
X247083333Y-100916666D01*
X247116666Y-100816666D01*
X247116666Y-100750000D01*
X247083333Y-100650000D01*
X247016666Y-100583333D01*
X246950000Y-100550000D01*
X246816666Y-100516666D01*
X246716666Y-100516666D01*
X246583333Y-100550000D01*
X246516666Y-100583333D01*
X246450000Y-100650000D01*
X246416666Y-100750000D01*
X246416666Y-100816666D01*
X246450000Y-100916666D01*
X246483333Y-100950000D01*
X246416666Y-101183333D02*
X246416666Y-101616666D01*
X246683333Y-101383333D01*
X246683333Y-101483333D01*
X246716666Y-101550000D01*
X246750000Y-101583333D01*
X246816666Y-101616666D01*
X246983333Y-101616666D01*
X247050000Y-101583333D01*
X247083333Y-101550000D01*
X247116666Y-101483333D01*
X247116666Y-101283333D01*
X247083333Y-101216666D01*
X247050000Y-101183333D01*
X246416666Y-102050000D02*
X246416666Y-102116666D01*
X246450000Y-102183333D01*
X246483333Y-102216666D01*
X246550000Y-102250000D01*
X246683333Y-102283333D01*
X246850000Y-102283333D01*
X246983333Y-102250000D01*
X247050000Y-102216666D01*
X247083333Y-102183333D01*
X247116666Y-102116666D01*
X247116666Y-102050000D01*
X247083333Y-101983333D01*
X247050000Y-101950000D01*
X246983333Y-101916666D01*
X246850000Y-101883333D01*
X246683333Y-101883333D01*
X246550000Y-101916666D01*
X246483333Y-101950000D01*
X246450000Y-101983333D01*
X246416666Y-102050000D01*
X179550000Y-100450000D02*
X179583333Y-100416666D01*
X179616666Y-100316666D01*
X179616666Y-100250000D01*
X179583333Y-100150000D01*
X179516666Y-100083333D01*
X179450000Y-100050000D01*
X179316666Y-100016666D01*
X179216666Y-100016666D01*
X179083333Y-100050000D01*
X179016666Y-100083333D01*
X178950000Y-100150000D01*
X178916666Y-100250000D01*
X178916666Y-100316666D01*
X178950000Y-100416666D01*
X178983333Y-100450000D01*
X178983333Y-100716666D02*
X178950000Y-100750000D01*
X178916666Y-100816666D01*
X178916666Y-100983333D01*
X178950000Y-101050000D01*
X178983333Y-101083333D01*
X179050000Y-101116666D01*
X179116666Y-101116666D01*
X179216666Y-101083333D01*
X179616666Y-100683333D01*
X179616666Y-101116666D01*
X179616666Y-101450000D02*
X179616666Y-101583333D01*
X179583333Y-101650000D01*
X179550000Y-101683333D01*
X179450000Y-101750000D01*
X179316666Y-101783333D01*
X179050000Y-101783333D01*
X178983333Y-101750000D01*
X178950000Y-101716666D01*
X178916666Y-101650000D01*
X178916666Y-101516666D01*
X178950000Y-101450000D01*
X178983333Y-101416666D01*
X179050000Y-101383333D01*
X179216666Y-101383333D01*
X179283333Y-101416666D01*
X179316666Y-101450000D01*
X179350000Y-101516666D01*
X179350000Y-101650000D01*
X179316666Y-101716666D01*
X179283333Y-101750000D01*
X179216666Y-101783333D01*
X112050000Y-100450000D02*
X112083333Y-100416666D01*
X112116666Y-100316666D01*
X112116666Y-100250000D01*
X112083333Y-100150000D01*
X112016666Y-100083333D01*
X111950000Y-100050000D01*
X111816666Y-100016666D01*
X111716666Y-100016666D01*
X111583333Y-100050000D01*
X111516666Y-100083333D01*
X111450000Y-100150000D01*
X111416666Y-100250000D01*
X111416666Y-100316666D01*
X111450000Y-100416666D01*
X111483333Y-100450000D01*
X111483333Y-100716666D02*
X111450000Y-100750000D01*
X111416666Y-100816666D01*
X111416666Y-100983333D01*
X111450000Y-101050000D01*
X111483333Y-101083333D01*
X111550000Y-101116666D01*
X111616666Y-101116666D01*
X111716666Y-101083333D01*
X112116666Y-100683333D01*
X112116666Y-101116666D01*
X111716666Y-101516666D02*
X111683333Y-101450000D01*
X111650000Y-101416666D01*
X111583333Y-101383333D01*
X111550000Y-101383333D01*
X111483333Y-101416666D01*
X111450000Y-101450000D01*
X111416666Y-101516666D01*
X111416666Y-101650000D01*
X111450000Y-101716666D01*
X111483333Y-101750000D01*
X111550000Y-101783333D01*
X111583333Y-101783333D01*
X111650000Y-101750000D01*
X111683333Y-101716666D01*
X111716666Y-101650000D01*
X111716666Y-101516666D01*
X111750000Y-101450000D01*
X111783333Y-101416666D01*
X111850000Y-101383333D01*
X111983333Y-101383333D01*
X112050000Y-101416666D01*
X112083333Y-101450000D01*
X112116666Y-101516666D01*
X112116666Y-101650000D01*
X112083333Y-101716666D01*
X112050000Y-101750000D01*
X111983333Y-101783333D01*
X111850000Y-101783333D01*
X111783333Y-101750000D01*
X111750000Y-101716666D01*
X111716666Y-101650000D01*
X257050000Y-100950000D02*
X257083333Y-100916666D01*
X257116666Y-100816666D01*
X257116666Y-100750000D01*
X257083333Y-100650000D01*
X257016666Y-100583333D01*
X256950000Y-100550000D01*
X256816666Y-100516666D01*
X256716666Y-100516666D01*
X256583333Y-100550000D01*
X256516666Y-100583333D01*
X256450000Y-100650000D01*
X256416666Y-100750000D01*
X256416666Y-100816666D01*
X256450000Y-100916666D01*
X256483333Y-100950000D01*
X256483333Y-101216666D02*
X256450000Y-101250000D01*
X256416666Y-101316666D01*
X256416666Y-101483333D01*
X256450000Y-101550000D01*
X256483333Y-101583333D01*
X256550000Y-101616666D01*
X256616666Y-101616666D01*
X256716666Y-101583333D01*
X257116666Y-101183333D01*
X257116666Y-101616666D01*
X256416666Y-101850000D02*
X256416666Y-102316666D01*
X257116666Y-102016666D01*
X189550000Y-100450000D02*
X189583333Y-100416666D01*
X189616666Y-100316666D01*
X189616666Y-100250000D01*
X189583333Y-100150000D01*
X189516666Y-100083333D01*
X189450000Y-100050000D01*
X189316666Y-100016666D01*
X189216666Y-100016666D01*
X189083333Y-100050000D01*
X189016666Y-100083333D01*
X188950000Y-100150000D01*
X188916666Y-100250000D01*
X188916666Y-100316666D01*
X188950000Y-100416666D01*
X188983333Y-100450000D01*
X188983333Y-100716666D02*
X188950000Y-100750000D01*
X188916666Y-100816666D01*
X188916666Y-100983333D01*
X188950000Y-101050000D01*
X188983333Y-101083333D01*
X189050000Y-101116666D01*
X189116666Y-101116666D01*
X189216666Y-101083333D01*
X189616666Y-100683333D01*
X189616666Y-101116666D01*
X188916666Y-101716666D02*
X188916666Y-101583333D01*
X188950000Y-101516666D01*
X188983333Y-101483333D01*
X189083333Y-101416666D01*
X189216666Y-101383333D01*
X189483333Y-101383333D01*
X189550000Y-101416666D01*
X189583333Y-101450000D01*
X189616666Y-101516666D01*
X189616666Y-101650000D01*
X189583333Y-101716666D01*
X189550000Y-101750000D01*
X189483333Y-101783333D01*
X189316666Y-101783333D01*
X189250000Y-101750000D01*
X189216666Y-101716666D01*
X189183333Y-101650000D01*
X189183333Y-101516666D01*
X189216666Y-101450000D01*
X189250000Y-101416666D01*
X189316666Y-101383333D01*
X122050000Y-100450000D02*
X122083333Y-100416666D01*
X122116666Y-100316666D01*
X122116666Y-100250000D01*
X122083333Y-100150000D01*
X122016666Y-100083333D01*
X121950000Y-100050000D01*
X121816666Y-100016666D01*
X121716666Y-100016666D01*
X121583333Y-100050000D01*
X121516666Y-100083333D01*
X121450000Y-100150000D01*
X121416666Y-100250000D01*
X121416666Y-100316666D01*
X121450000Y-100416666D01*
X121483333Y-100450000D01*
X121483333Y-100716666D02*
X121450000Y-100750000D01*
X121416666Y-100816666D01*
X121416666Y-100983333D01*
X121450000Y-101050000D01*
X121483333Y-101083333D01*
X121550000Y-101116666D01*
X121616666Y-101116666D01*
X121716666Y-101083333D01*
X122116666Y-100683333D01*
X122116666Y-101116666D01*
X121416666Y-101750000D02*
X121416666Y-101416666D01*
X121750000Y-101383333D01*
X121716666Y-101416666D01*
X121683333Y-101483333D01*
X121683333Y-101650000D01*
X121716666Y-101716666D01*
X121750000Y-101750000D01*
X121816666Y-101783333D01*
X121983333Y-101783333D01*
X122050000Y-101750000D01*
X122083333Y-101716666D01*
X122116666Y-101650000D01*
X122116666Y-101483333D01*
X122083333Y-101416666D01*
X122050000Y-101383333D01*
X255916666Y-118150000D02*
X255950000Y-118183333D01*
X256050000Y-118216666D01*
X256116666Y-118216666D01*
X256216666Y-118183333D01*
X256283333Y-118116666D01*
X256316666Y-118050000D01*
X256350000Y-117916666D01*
X256350000Y-117816666D01*
X256316666Y-117683333D01*
X256283333Y-117616666D01*
X256216666Y-117550000D01*
X256116666Y-117516666D01*
X256050000Y-117516666D01*
X255950000Y-117550000D01*
X255916666Y-117583333D01*
X255683333Y-117516666D02*
X255250000Y-117516666D01*
X255483333Y-117783333D01*
X255383333Y-117783333D01*
X255316666Y-117816666D01*
X255283333Y-117850000D01*
X255250000Y-117916666D01*
X255250000Y-118083333D01*
X255283333Y-118150000D01*
X255316666Y-118183333D01*
X255383333Y-118216666D01*
X255583333Y-118216666D01*
X255650000Y-118183333D01*
X255683333Y-118150000D01*
X188416666Y-117400000D02*
X188450000Y-117433333D01*
X188550000Y-117466666D01*
X188616666Y-117466666D01*
X188716666Y-117433333D01*
X188783333Y-117366666D01*
X188816666Y-117300000D01*
X188850000Y-117166666D01*
X188850000Y-117066666D01*
X188816666Y-116933333D01*
X188783333Y-116866666D01*
X188716666Y-116800000D01*
X188616666Y-116766666D01*
X188550000Y-116766666D01*
X188450000Y-116800000D01*
X188416666Y-116833333D01*
X188150000Y-116833333D02*
X188116666Y-116800000D01*
X188050000Y-116766666D01*
X187883333Y-116766666D01*
X187816666Y-116800000D01*
X187783333Y-116833333D01*
X187750000Y-116900000D01*
X187750000Y-116966666D01*
X187783333Y-117066666D01*
X188183333Y-117466666D01*
X187750000Y-117466666D01*
X120916666Y-117900000D02*
X120950000Y-117933333D01*
X121050000Y-117966666D01*
X121116666Y-117966666D01*
X121216666Y-117933333D01*
X121283333Y-117866666D01*
X121316666Y-117800000D01*
X121350000Y-117666666D01*
X121350000Y-117566666D01*
X121316666Y-117433333D01*
X121283333Y-117366666D01*
X121216666Y-117300000D01*
X121116666Y-117266666D01*
X121050000Y-117266666D01*
X120950000Y-117300000D01*
X120916666Y-117333333D01*
X120250000Y-117966666D02*
X120650000Y-117966666D01*
X120450000Y-117966666D02*
X120450000Y-117266666D01*
X120516666Y-117366666D01*
X120583333Y-117433333D01*
X120650000Y-117466666D01*
X188750000Y-115150000D02*
X188783333Y-115183333D01*
X188883333Y-115216666D01*
X188950000Y-115216666D01*
X189050000Y-115183333D01*
X189116666Y-115116666D01*
X189150000Y-115050000D01*
X189183333Y-114916666D01*
X189183333Y-114816666D01*
X189150000Y-114683333D01*
X189116666Y-114616666D01*
X189050000Y-114550000D01*
X188950000Y-114516666D01*
X188883333Y-114516666D01*
X188783333Y-114550000D01*
X188750000Y-114583333D01*
X188083333Y-115216666D02*
X188483333Y-115216666D01*
X188283333Y-115216666D02*
X188283333Y-114516666D01*
X188350000Y-114616666D01*
X188416666Y-114683333D01*
X188483333Y-114716666D01*
X187416666Y-115216666D02*
X187816666Y-115216666D01*
X187616666Y-115216666D02*
X187616666Y-114516666D01*
X187683333Y-114616666D01*
X187750000Y-114683333D01*
X187816666Y-114716666D01*
X256250000Y-115900000D02*
X256283333Y-115933333D01*
X256383333Y-115966666D01*
X256450000Y-115966666D01*
X256550000Y-115933333D01*
X256616666Y-115866666D01*
X256650000Y-115800000D01*
X256683333Y-115666666D01*
X256683333Y-115566666D01*
X256650000Y-115433333D01*
X256616666Y-115366666D01*
X256550000Y-115300000D01*
X256450000Y-115266666D01*
X256383333Y-115266666D01*
X256283333Y-115300000D01*
X256250000Y-115333333D01*
X255583333Y-115966666D02*
X255983333Y-115966666D01*
X255783333Y-115966666D02*
X255783333Y-115266666D01*
X255850000Y-115366666D01*
X255916666Y-115433333D01*
X255983333Y-115466666D01*
X255316666Y-115333333D02*
X255283333Y-115300000D01*
X255216666Y-115266666D01*
X255050000Y-115266666D01*
X254983333Y-115300000D01*
X254950000Y-115333333D01*
X254916666Y-115400000D01*
X254916666Y-115466666D01*
X254950000Y-115566666D01*
X255350000Y-115966666D01*
X254916666Y-115966666D01*
X121250000Y-115400000D02*
X121283333Y-115433333D01*
X121383333Y-115466666D01*
X121450000Y-115466666D01*
X121550000Y-115433333D01*
X121616666Y-115366666D01*
X121650000Y-115300000D01*
X121683333Y-115166666D01*
X121683333Y-115066666D01*
X121650000Y-114933333D01*
X121616666Y-114866666D01*
X121550000Y-114800000D01*
X121450000Y-114766666D01*
X121383333Y-114766666D01*
X121283333Y-114800000D01*
X121250000Y-114833333D01*
X120583333Y-115466666D02*
X120983333Y-115466666D01*
X120783333Y-115466666D02*
X120783333Y-114766666D01*
X120850000Y-114866666D01*
X120916666Y-114933333D01*
X120983333Y-114966666D01*
X120150000Y-114766666D02*
X120083333Y-114766666D01*
X120016666Y-114800000D01*
X119983333Y-114833333D01*
X119950000Y-114900000D01*
X119916666Y-115033333D01*
X119916666Y-115200000D01*
X119950000Y-115333333D01*
X119983333Y-115400000D01*
X120016666Y-115433333D01*
X120083333Y-115466666D01*
X120150000Y-115466666D01*
X120216666Y-115433333D01*
X120250000Y-115400000D01*
X120283333Y-115333333D01*
X120316666Y-115200000D01*
X120316666Y-115033333D01*
X120283333Y-114900000D01*
X120250000Y-114833333D01*
X120216666Y-114800000D01*
X120150000Y-114766666D01*
X79866666Y-94950000D02*
X79533333Y-94716666D01*
X79866666Y-94550000D02*
X79166666Y-94550000D01*
X79166666Y-94816666D01*
X79200000Y-94883333D01*
X79233333Y-94916666D01*
X79300000Y-94950000D01*
X79400000Y-94950000D01*
X79466666Y-94916666D01*
X79500000Y-94883333D01*
X79533333Y-94816666D01*
X79533333Y-94550000D01*
X79166666Y-95183333D02*
X79166666Y-95616666D01*
X79433333Y-95383333D01*
X79433333Y-95483333D01*
X79466666Y-95550000D01*
X79500000Y-95583333D01*
X79566666Y-95616666D01*
X79733333Y-95616666D01*
X79800000Y-95583333D01*
X79833333Y-95550000D01*
X79866666Y-95483333D01*
X79866666Y-95283333D01*
X79833333Y-95216666D01*
X79800000Y-95183333D01*
X79866666Y-96283333D02*
X79866666Y-95883333D01*
X79866666Y-96083333D02*
X79166666Y-96083333D01*
X79266666Y-96016666D01*
X79333333Y-95950000D01*
X79366666Y-95883333D01*
X147366666Y-94450000D02*
X147033333Y-94216666D01*
X147366666Y-94050000D02*
X146666666Y-94050000D01*
X146666666Y-94316666D01*
X146700000Y-94383333D01*
X146733333Y-94416666D01*
X146800000Y-94450000D01*
X146900000Y-94450000D01*
X146966666Y-94416666D01*
X147000000Y-94383333D01*
X147033333Y-94316666D01*
X147033333Y-94050000D01*
X146666666Y-94683333D02*
X146666666Y-95116666D01*
X146933333Y-94883333D01*
X146933333Y-94983333D01*
X146966666Y-95050000D01*
X147000000Y-95083333D01*
X147066666Y-95116666D01*
X147233333Y-95116666D01*
X147300000Y-95083333D01*
X147333333Y-95050000D01*
X147366666Y-94983333D01*
X147366666Y-94783333D01*
X147333333Y-94716666D01*
X147300000Y-94683333D01*
X146733333Y-95383333D02*
X146700000Y-95416666D01*
X146666666Y-95483333D01*
X146666666Y-95650000D01*
X146700000Y-95716666D01*
X146733333Y-95750000D01*
X146800000Y-95783333D01*
X146866666Y-95783333D01*
X146966666Y-95750000D01*
X147366666Y-95350000D01*
X147366666Y-95783333D01*
X214866666Y-94950000D02*
X214533333Y-94716666D01*
X214866666Y-94550000D02*
X214166666Y-94550000D01*
X214166666Y-94816666D01*
X214200000Y-94883333D01*
X214233333Y-94916666D01*
X214300000Y-94950000D01*
X214400000Y-94950000D01*
X214466666Y-94916666D01*
X214500000Y-94883333D01*
X214533333Y-94816666D01*
X214533333Y-94550000D01*
X214166666Y-95183333D02*
X214166666Y-95616666D01*
X214433333Y-95383333D01*
X214433333Y-95483333D01*
X214466666Y-95550000D01*
X214500000Y-95583333D01*
X214566666Y-95616666D01*
X214733333Y-95616666D01*
X214800000Y-95583333D01*
X214833333Y-95550000D01*
X214866666Y-95483333D01*
X214866666Y-95283333D01*
X214833333Y-95216666D01*
X214800000Y-95183333D01*
X214166666Y-95850000D02*
X214166666Y-96283333D01*
X214433333Y-96050000D01*
X214433333Y-96150000D01*
X214466666Y-96216666D01*
X214500000Y-96250000D01*
X214566666Y-96283333D01*
X214733333Y-96283333D01*
X214800000Y-96250000D01*
X214833333Y-96216666D01*
X214866666Y-96150000D01*
X214866666Y-95950000D01*
X214833333Y-95883333D01*
X214800000Y-95850000D01*
X169883333Y-115883333D02*
X169883333Y-116216666D01*
X170116666Y-115516666D02*
X169883333Y-115883333D01*
X169650000Y-115516666D01*
X169050000Y-116216666D02*
X169450000Y-116216666D01*
X169250000Y-116216666D02*
X169250000Y-115516666D01*
X169316666Y-115616666D01*
X169383333Y-115683333D01*
X169450000Y-115716666D01*
X173116666Y-104283333D02*
X173183333Y-104250000D01*
X173250000Y-104183333D01*
X173350000Y-104083333D01*
X173416666Y-104050000D01*
X173483333Y-104050000D01*
X173450000Y-104216666D02*
X173516666Y-104183333D01*
X173583333Y-104116666D01*
X173616666Y-103983333D01*
X173616666Y-103750000D01*
X173583333Y-103616666D01*
X173516666Y-103550000D01*
X173450000Y-103516666D01*
X173316666Y-103516666D01*
X173250000Y-103550000D01*
X173183333Y-103616666D01*
X173150000Y-103750000D01*
X173150000Y-103983333D01*
X173183333Y-104116666D01*
X173250000Y-104183333D01*
X173316666Y-104216666D01*
X173450000Y-104216666D01*
X172550000Y-103750000D02*
X172550000Y-104216666D01*
X172716666Y-103483333D02*
X172883333Y-103983333D01*
X172450000Y-103983333D01*
X199660000Y-104533333D02*
X199726666Y-104500000D01*
X199793333Y-104433333D01*
X199893333Y-104333333D01*
X199960000Y-104300000D01*
X200026666Y-104300000D01*
X199993333Y-104466666D02*
X200060000Y-104433333D01*
X200126666Y-104366666D01*
X200160000Y-104233333D01*
X200160000Y-104000000D01*
X200126666Y-103866666D01*
X200060000Y-103800000D01*
X199993333Y-103766666D01*
X199860000Y-103766666D01*
X199793333Y-103800000D01*
X199726666Y-103866666D01*
X199693333Y-104000000D01*
X199693333Y-104233333D01*
X199726666Y-104366666D01*
X199793333Y-104433333D01*
X199860000Y-104466666D01*
X199993333Y-104466666D01*
X199426666Y-103833333D02*
X199393333Y-103800000D01*
X199326666Y-103766666D01*
X199160000Y-103766666D01*
X199093333Y-103800000D01*
X199060000Y-103833333D01*
X199026666Y-103900000D01*
X199026666Y-103966666D01*
X199060000Y-104066666D01*
X199460000Y-104466666D01*
X199026666Y-104466666D01*
X198426666Y-104000000D02*
X198426666Y-104466666D01*
X198593333Y-103733333D02*
X198760000Y-104233333D01*
X198326666Y-104233333D01*
X240740000Y-65033333D02*
X240806666Y-65000000D01*
X240873333Y-64933333D01*
X240973333Y-64833333D01*
X241040000Y-64800000D01*
X241106666Y-64800000D01*
X241073333Y-64966666D02*
X241140000Y-64933333D01*
X241206666Y-64866666D01*
X241240000Y-64733333D01*
X241240000Y-64500000D01*
X241206666Y-64366666D01*
X241140000Y-64300000D01*
X241073333Y-64266666D01*
X240940000Y-64266666D01*
X240873333Y-64300000D01*
X240806666Y-64366666D01*
X240773333Y-64500000D01*
X240773333Y-64733333D01*
X240806666Y-64866666D01*
X240873333Y-64933333D01*
X240940000Y-64966666D01*
X241073333Y-64966666D01*
X240506666Y-64333333D02*
X240473333Y-64300000D01*
X240406666Y-64266666D01*
X240240000Y-64266666D01*
X240173333Y-64300000D01*
X240140000Y-64333333D01*
X240106666Y-64400000D01*
X240106666Y-64466666D01*
X240140000Y-64566666D01*
X240540000Y-64966666D01*
X240106666Y-64966666D01*
X239873333Y-64266666D02*
X239440000Y-64266666D01*
X239673333Y-64533333D01*
X239573333Y-64533333D01*
X239506666Y-64566666D01*
X239473333Y-64600000D01*
X239440000Y-64666666D01*
X239440000Y-64833333D01*
X239473333Y-64900000D01*
X239506666Y-64933333D01*
X239573333Y-64966666D01*
X239773333Y-64966666D01*
X239840000Y-64933333D01*
X239873333Y-64900000D01*
X132200000Y-104033333D02*
X132266666Y-104000000D01*
X132333333Y-103933333D01*
X132433333Y-103833333D01*
X132500000Y-103800000D01*
X132566666Y-103800000D01*
X132533333Y-103966666D02*
X132600000Y-103933333D01*
X132666666Y-103866666D01*
X132700000Y-103733333D01*
X132700000Y-103500000D01*
X132666666Y-103366666D01*
X132600000Y-103300000D01*
X132533333Y-103266666D01*
X132400000Y-103266666D01*
X132333333Y-103300000D01*
X132266666Y-103366666D01*
X132233333Y-103500000D01*
X132233333Y-103733333D01*
X132266666Y-103866666D01*
X132333333Y-103933333D01*
X132400000Y-103966666D01*
X132533333Y-103966666D01*
X131966666Y-103333333D02*
X131933333Y-103300000D01*
X131866666Y-103266666D01*
X131700000Y-103266666D01*
X131633333Y-103300000D01*
X131600000Y-103333333D01*
X131566666Y-103400000D01*
X131566666Y-103466666D01*
X131600000Y-103566666D01*
X132000000Y-103966666D01*
X131566666Y-103966666D01*
X131300000Y-103333333D02*
X131266666Y-103300000D01*
X131200000Y-103266666D01*
X131033333Y-103266666D01*
X130966666Y-103300000D01*
X130933333Y-103333333D01*
X130900000Y-103400000D01*
X130900000Y-103466666D01*
X130933333Y-103566666D01*
X131333333Y-103966666D01*
X130900000Y-103966666D01*
X173240000Y-65033333D02*
X173306666Y-65000000D01*
X173373333Y-64933333D01*
X173473333Y-64833333D01*
X173540000Y-64800000D01*
X173606666Y-64800000D01*
X173573333Y-64966666D02*
X173640000Y-64933333D01*
X173706666Y-64866666D01*
X173740000Y-64733333D01*
X173740000Y-64500000D01*
X173706666Y-64366666D01*
X173640000Y-64300000D01*
X173573333Y-64266666D01*
X173440000Y-64266666D01*
X173373333Y-64300000D01*
X173306666Y-64366666D01*
X173273333Y-64500000D01*
X173273333Y-64733333D01*
X173306666Y-64866666D01*
X173373333Y-64933333D01*
X173440000Y-64966666D01*
X173573333Y-64966666D01*
X173006666Y-64333333D02*
X172973333Y-64300000D01*
X172906666Y-64266666D01*
X172740000Y-64266666D01*
X172673333Y-64300000D01*
X172640000Y-64333333D01*
X172606666Y-64400000D01*
X172606666Y-64466666D01*
X172640000Y-64566666D01*
X173040000Y-64966666D01*
X172606666Y-64966666D01*
X171940000Y-64966666D02*
X172340000Y-64966666D01*
X172140000Y-64966666D02*
X172140000Y-64266666D01*
X172206666Y-64366666D01*
X172273333Y-64433333D01*
X172340000Y-64466666D01*
X95200000Y-104033333D02*
X95266666Y-104000000D01*
X95333333Y-103933333D01*
X95433333Y-103833333D01*
X95500000Y-103800000D01*
X95566666Y-103800000D01*
X95533333Y-103966666D02*
X95600000Y-103933333D01*
X95666666Y-103866666D01*
X95700000Y-103733333D01*
X95700000Y-103500000D01*
X95666666Y-103366666D01*
X95600000Y-103300000D01*
X95533333Y-103266666D01*
X95400000Y-103266666D01*
X95333333Y-103300000D01*
X95266666Y-103366666D01*
X95233333Y-103500000D01*
X95233333Y-103733333D01*
X95266666Y-103866666D01*
X95333333Y-103933333D01*
X95400000Y-103966666D01*
X95533333Y-103966666D01*
X94966666Y-103333333D02*
X94933333Y-103300000D01*
X94866666Y-103266666D01*
X94700000Y-103266666D01*
X94633333Y-103300000D01*
X94600000Y-103333333D01*
X94566666Y-103400000D01*
X94566666Y-103466666D01*
X94600000Y-103566666D01*
X95000000Y-103966666D01*
X94566666Y-103966666D01*
X94133333Y-103266666D02*
X94066666Y-103266666D01*
X94000000Y-103300000D01*
X93966666Y-103333333D01*
X93933333Y-103400000D01*
X93900000Y-103533333D01*
X93900000Y-103700000D01*
X93933333Y-103833333D01*
X93966666Y-103900000D01*
X94000000Y-103933333D01*
X94066666Y-103966666D01*
X94133333Y-103966666D01*
X94200000Y-103933333D01*
X94233333Y-103900000D01*
X94266666Y-103833333D01*
X94300000Y-103700000D01*
X94300000Y-103533333D01*
X94266666Y-103400000D01*
X94233333Y-103333333D01*
X94200000Y-103300000D01*
X94133333Y-103266666D01*
X64700000Y-64533333D02*
X64766666Y-64500000D01*
X64833333Y-64433333D01*
X64933333Y-64333333D01*
X65000000Y-64300000D01*
X65066666Y-64300000D01*
X65033333Y-64466666D02*
X65100000Y-64433333D01*
X65166666Y-64366666D01*
X65200000Y-64233333D01*
X65200000Y-64000000D01*
X65166666Y-63866666D01*
X65100000Y-63800000D01*
X65033333Y-63766666D01*
X64900000Y-63766666D01*
X64833333Y-63800000D01*
X64766666Y-63866666D01*
X64733333Y-64000000D01*
X64733333Y-64233333D01*
X64766666Y-64366666D01*
X64833333Y-64433333D01*
X64900000Y-64466666D01*
X65033333Y-64466666D01*
X64066666Y-64466666D02*
X64466666Y-64466666D01*
X64266666Y-64466666D02*
X64266666Y-63766666D01*
X64333333Y-63866666D01*
X64400000Y-63933333D01*
X64466666Y-63966666D01*
X63733333Y-64466666D02*
X63600000Y-64466666D01*
X63533333Y-64433333D01*
X63500000Y-64400000D01*
X63433333Y-64300000D01*
X63400000Y-64166666D01*
X63400000Y-63900000D01*
X63433333Y-63833333D01*
X63466666Y-63800000D01*
X63533333Y-63766666D01*
X63666666Y-63766666D01*
X63733333Y-63800000D01*
X63766666Y-63833333D01*
X63800000Y-63900000D01*
X63800000Y-64066666D01*
X63766666Y-64133333D01*
X63733333Y-64166666D01*
X63666666Y-64200000D01*
X63533333Y-64200000D01*
X63466666Y-64166666D01*
X63433333Y-64133333D01*
X63400000Y-64066666D01*
X210200000Y-104533333D02*
X210266666Y-104500000D01*
X210333333Y-104433333D01*
X210433333Y-104333333D01*
X210500000Y-104300000D01*
X210566666Y-104300000D01*
X210533333Y-104466666D02*
X210600000Y-104433333D01*
X210666666Y-104366666D01*
X210700000Y-104233333D01*
X210700000Y-104000000D01*
X210666666Y-103866666D01*
X210600000Y-103800000D01*
X210533333Y-103766666D01*
X210400000Y-103766666D01*
X210333333Y-103800000D01*
X210266666Y-103866666D01*
X210233333Y-104000000D01*
X210233333Y-104233333D01*
X210266666Y-104366666D01*
X210333333Y-104433333D01*
X210400000Y-104466666D01*
X210533333Y-104466666D01*
X209566666Y-104466666D02*
X209966666Y-104466666D01*
X209766666Y-104466666D02*
X209766666Y-103766666D01*
X209833333Y-103866666D01*
X209900000Y-103933333D01*
X209966666Y-103966666D01*
X209166666Y-104066666D02*
X209233333Y-104033333D01*
X209266666Y-104000000D01*
X209300000Y-103933333D01*
X209300000Y-103900000D01*
X209266666Y-103833333D01*
X209233333Y-103800000D01*
X209166666Y-103766666D01*
X209033333Y-103766666D01*
X208966666Y-103800000D01*
X208933333Y-103833333D01*
X208900000Y-103900000D01*
X208900000Y-103933333D01*
X208933333Y-104000000D01*
X208966666Y-104033333D01*
X209033333Y-104066666D01*
X209166666Y-104066666D01*
X209233333Y-104100000D01*
X209266666Y-104133333D01*
X209300000Y-104200000D01*
X209300000Y-104333333D01*
X209266666Y-104400000D01*
X209233333Y-104433333D01*
X209166666Y-104466666D01*
X209033333Y-104466666D01*
X208966666Y-104433333D01*
X208933333Y-104400000D01*
X208900000Y-104333333D01*
X208900000Y-104200000D01*
X208933333Y-104133333D01*
X208966666Y-104100000D01*
X209033333Y-104066666D01*
X230200000Y-65033333D02*
X230266666Y-65000000D01*
X230333333Y-64933333D01*
X230433333Y-64833333D01*
X230500000Y-64800000D01*
X230566666Y-64800000D01*
X230533333Y-64966666D02*
X230600000Y-64933333D01*
X230666666Y-64866666D01*
X230700000Y-64733333D01*
X230700000Y-64500000D01*
X230666666Y-64366666D01*
X230600000Y-64300000D01*
X230533333Y-64266666D01*
X230400000Y-64266666D01*
X230333333Y-64300000D01*
X230266666Y-64366666D01*
X230233333Y-64500000D01*
X230233333Y-64733333D01*
X230266666Y-64866666D01*
X230333333Y-64933333D01*
X230400000Y-64966666D01*
X230533333Y-64966666D01*
X229566666Y-64966666D02*
X229966666Y-64966666D01*
X229766666Y-64966666D02*
X229766666Y-64266666D01*
X229833333Y-64366666D01*
X229900000Y-64433333D01*
X229966666Y-64466666D01*
X229333333Y-64266666D02*
X228866666Y-64266666D01*
X229166666Y-64966666D01*
X142660000Y-104033333D02*
X142726666Y-104000000D01*
X142793333Y-103933333D01*
X142893333Y-103833333D01*
X142960000Y-103800000D01*
X143026666Y-103800000D01*
X142993333Y-103966666D02*
X143060000Y-103933333D01*
X143126666Y-103866666D01*
X143160000Y-103733333D01*
X143160000Y-103500000D01*
X143126666Y-103366666D01*
X143060000Y-103300000D01*
X142993333Y-103266666D01*
X142860000Y-103266666D01*
X142793333Y-103300000D01*
X142726666Y-103366666D01*
X142693333Y-103500000D01*
X142693333Y-103733333D01*
X142726666Y-103866666D01*
X142793333Y-103933333D01*
X142860000Y-103966666D01*
X142993333Y-103966666D01*
X142026666Y-103966666D02*
X142426666Y-103966666D01*
X142226666Y-103966666D02*
X142226666Y-103266666D01*
X142293333Y-103366666D01*
X142360000Y-103433333D01*
X142426666Y-103466666D01*
X141426666Y-103266666D02*
X141560000Y-103266666D01*
X141626666Y-103300000D01*
X141660000Y-103333333D01*
X141726666Y-103433333D01*
X141760000Y-103566666D01*
X141760000Y-103833333D01*
X141726666Y-103900000D01*
X141693333Y-103933333D01*
X141626666Y-103966666D01*
X141493333Y-103966666D01*
X141426666Y-103933333D01*
X141393333Y-103900000D01*
X141360000Y-103833333D01*
X141360000Y-103666666D01*
X141393333Y-103600000D01*
X141426666Y-103566666D01*
X141493333Y-103533333D01*
X141626666Y-103533333D01*
X141693333Y-103566666D01*
X141726666Y-103600000D01*
X141760000Y-103666666D01*
X162740000Y-65033333D02*
X162806666Y-65000000D01*
X162873333Y-64933333D01*
X162973333Y-64833333D01*
X163040000Y-64800000D01*
X163106666Y-64800000D01*
X163073333Y-64966666D02*
X163140000Y-64933333D01*
X163206666Y-64866666D01*
X163240000Y-64733333D01*
X163240000Y-64500000D01*
X163206666Y-64366666D01*
X163140000Y-64300000D01*
X163073333Y-64266666D01*
X162940000Y-64266666D01*
X162873333Y-64300000D01*
X162806666Y-64366666D01*
X162773333Y-64500000D01*
X162773333Y-64733333D01*
X162806666Y-64866666D01*
X162873333Y-64933333D01*
X162940000Y-64966666D01*
X163073333Y-64966666D01*
X162106666Y-64966666D02*
X162506666Y-64966666D01*
X162306666Y-64966666D02*
X162306666Y-64266666D01*
X162373333Y-64366666D01*
X162440000Y-64433333D01*
X162506666Y-64466666D01*
X161473333Y-64266666D02*
X161806666Y-64266666D01*
X161840000Y-64600000D01*
X161806666Y-64566666D01*
X161740000Y-64533333D01*
X161573333Y-64533333D01*
X161506666Y-64566666D01*
X161473333Y-64600000D01*
X161440000Y-64666666D01*
X161440000Y-64833333D01*
X161473333Y-64900000D01*
X161506666Y-64933333D01*
X161573333Y-64966666D01*
X161740000Y-64966666D01*
X161806666Y-64933333D01*
X161840000Y-64900000D01*
X106160000Y-104033333D02*
X106226666Y-104000000D01*
X106293333Y-103933333D01*
X106393333Y-103833333D01*
X106460000Y-103800000D01*
X106526666Y-103800000D01*
X106493333Y-103966666D02*
X106560000Y-103933333D01*
X106626666Y-103866666D01*
X106660000Y-103733333D01*
X106660000Y-103500000D01*
X106626666Y-103366666D01*
X106560000Y-103300000D01*
X106493333Y-103266666D01*
X106360000Y-103266666D01*
X106293333Y-103300000D01*
X106226666Y-103366666D01*
X106193333Y-103500000D01*
X106193333Y-103733333D01*
X106226666Y-103866666D01*
X106293333Y-103933333D01*
X106360000Y-103966666D01*
X106493333Y-103966666D01*
X105526666Y-103966666D02*
X105926666Y-103966666D01*
X105726666Y-103966666D02*
X105726666Y-103266666D01*
X105793333Y-103366666D01*
X105860000Y-103433333D01*
X105926666Y-103466666D01*
X104926666Y-103500000D02*
X104926666Y-103966666D01*
X105093333Y-103233333D02*
X105260000Y-103733333D01*
X104826666Y-103733333D01*
X75200000Y-64783333D02*
X75266666Y-64750000D01*
X75333333Y-64683333D01*
X75433333Y-64583333D01*
X75500000Y-64550000D01*
X75566666Y-64550000D01*
X75533333Y-64716666D02*
X75600000Y-64683333D01*
X75666666Y-64616666D01*
X75700000Y-64483333D01*
X75700000Y-64250000D01*
X75666666Y-64116666D01*
X75600000Y-64050000D01*
X75533333Y-64016666D01*
X75400000Y-64016666D01*
X75333333Y-64050000D01*
X75266666Y-64116666D01*
X75233333Y-64250000D01*
X75233333Y-64483333D01*
X75266666Y-64616666D01*
X75333333Y-64683333D01*
X75400000Y-64716666D01*
X75533333Y-64716666D01*
X74566666Y-64716666D02*
X74966666Y-64716666D01*
X74766666Y-64716666D02*
X74766666Y-64016666D01*
X74833333Y-64116666D01*
X74900000Y-64183333D01*
X74966666Y-64216666D01*
X74333333Y-64016666D02*
X73900000Y-64016666D01*
X74133333Y-64283333D01*
X74033333Y-64283333D01*
X73966666Y-64316666D01*
X73933333Y-64350000D01*
X73900000Y-64416666D01*
X73900000Y-64583333D01*
X73933333Y-64650000D01*
X73966666Y-64683333D01*
X74033333Y-64716666D01*
X74233333Y-64716666D01*
X74300000Y-64683333D01*
X74333333Y-64650000D01*
X230160000Y-104533333D02*
X230226666Y-104500000D01*
X230293333Y-104433333D01*
X230393333Y-104333333D01*
X230460000Y-104300000D01*
X230526666Y-104300000D01*
X230493333Y-104466666D02*
X230560000Y-104433333D01*
X230626666Y-104366666D01*
X230660000Y-104233333D01*
X230660000Y-104000000D01*
X230626666Y-103866666D01*
X230560000Y-103800000D01*
X230493333Y-103766666D01*
X230360000Y-103766666D01*
X230293333Y-103800000D01*
X230226666Y-103866666D01*
X230193333Y-104000000D01*
X230193333Y-104233333D01*
X230226666Y-104366666D01*
X230293333Y-104433333D01*
X230360000Y-104466666D01*
X230493333Y-104466666D01*
X229526666Y-104466666D02*
X229926666Y-104466666D01*
X229726666Y-104466666D02*
X229726666Y-103766666D01*
X229793333Y-103866666D01*
X229860000Y-103933333D01*
X229926666Y-103966666D01*
X229260000Y-103833333D02*
X229226666Y-103800000D01*
X229160000Y-103766666D01*
X228993333Y-103766666D01*
X228926666Y-103800000D01*
X228893333Y-103833333D01*
X228860000Y-103900000D01*
X228860000Y-103966666D01*
X228893333Y-104066666D01*
X229293333Y-104466666D01*
X228860000Y-104466666D01*
X210240000Y-65033333D02*
X210306666Y-65000000D01*
X210373333Y-64933333D01*
X210473333Y-64833333D01*
X210540000Y-64800000D01*
X210606666Y-64800000D01*
X210573333Y-64966666D02*
X210640000Y-64933333D01*
X210706666Y-64866666D01*
X210740000Y-64733333D01*
X210740000Y-64500000D01*
X210706666Y-64366666D01*
X210640000Y-64300000D01*
X210573333Y-64266666D01*
X210440000Y-64266666D01*
X210373333Y-64300000D01*
X210306666Y-64366666D01*
X210273333Y-64500000D01*
X210273333Y-64733333D01*
X210306666Y-64866666D01*
X210373333Y-64933333D01*
X210440000Y-64966666D01*
X210573333Y-64966666D01*
X209606666Y-64966666D02*
X210006666Y-64966666D01*
X209806666Y-64966666D02*
X209806666Y-64266666D01*
X209873333Y-64366666D01*
X209940000Y-64433333D01*
X210006666Y-64466666D01*
X208940000Y-64966666D02*
X209340000Y-64966666D01*
X209140000Y-64966666D02*
X209140000Y-64266666D01*
X209206666Y-64366666D01*
X209273333Y-64433333D01*
X209340000Y-64466666D01*
X162700000Y-104283333D02*
X162766666Y-104250000D01*
X162833333Y-104183333D01*
X162933333Y-104083333D01*
X163000000Y-104050000D01*
X163066666Y-104050000D01*
X163033333Y-104216666D02*
X163100000Y-104183333D01*
X163166666Y-104116666D01*
X163200000Y-103983333D01*
X163200000Y-103750000D01*
X163166666Y-103616666D01*
X163100000Y-103550000D01*
X163033333Y-103516666D01*
X162900000Y-103516666D01*
X162833333Y-103550000D01*
X162766666Y-103616666D01*
X162733333Y-103750000D01*
X162733333Y-103983333D01*
X162766666Y-104116666D01*
X162833333Y-104183333D01*
X162900000Y-104216666D01*
X163033333Y-104216666D01*
X162066666Y-104216666D02*
X162466666Y-104216666D01*
X162266666Y-104216666D02*
X162266666Y-103516666D01*
X162333333Y-103616666D01*
X162400000Y-103683333D01*
X162466666Y-103716666D01*
X161633333Y-103516666D02*
X161566666Y-103516666D01*
X161500000Y-103550000D01*
X161466666Y-103583333D01*
X161433333Y-103650000D01*
X161400000Y-103783333D01*
X161400000Y-103950000D01*
X161433333Y-104083333D01*
X161466666Y-104150000D01*
X161500000Y-104183333D01*
X161566666Y-104216666D01*
X161633333Y-104216666D01*
X161700000Y-104183333D01*
X161733333Y-104150000D01*
X161766666Y-104083333D01*
X161800000Y-103950000D01*
X161800000Y-103783333D01*
X161766666Y-103650000D01*
X161733333Y-103583333D01*
X161700000Y-103550000D01*
X161633333Y-103516666D01*
X142406666Y-65283333D02*
X142473333Y-65250000D01*
X142540000Y-65183333D01*
X142640000Y-65083333D01*
X142706666Y-65050000D01*
X142773333Y-65050000D01*
X142740000Y-65216666D02*
X142806666Y-65183333D01*
X142873333Y-65116666D01*
X142906666Y-64983333D01*
X142906666Y-64750000D01*
X142873333Y-64616666D01*
X142806666Y-64550000D01*
X142740000Y-64516666D01*
X142606666Y-64516666D01*
X142540000Y-64550000D01*
X142473333Y-64616666D01*
X142440000Y-64750000D01*
X142440000Y-64983333D01*
X142473333Y-65116666D01*
X142540000Y-65183333D01*
X142606666Y-65216666D01*
X142740000Y-65216666D01*
X142106666Y-65216666D02*
X141973333Y-65216666D01*
X141906666Y-65183333D01*
X141873333Y-65150000D01*
X141806666Y-65050000D01*
X141773333Y-64916666D01*
X141773333Y-64650000D01*
X141806666Y-64583333D01*
X141840000Y-64550000D01*
X141906666Y-64516666D01*
X142040000Y-64516666D01*
X142106666Y-64550000D01*
X142140000Y-64583333D01*
X142173333Y-64650000D01*
X142173333Y-64816666D01*
X142140000Y-64883333D01*
X142106666Y-64916666D01*
X142040000Y-64950000D01*
X141906666Y-64950000D01*
X141840000Y-64916666D01*
X141806666Y-64883333D01*
X141773333Y-64816666D01*
X64326666Y-104033333D02*
X64393333Y-104000000D01*
X64460000Y-103933333D01*
X64560000Y-103833333D01*
X64626666Y-103800000D01*
X64693333Y-103800000D01*
X64660000Y-103966666D02*
X64726666Y-103933333D01*
X64793333Y-103866666D01*
X64826666Y-103733333D01*
X64826666Y-103500000D01*
X64793333Y-103366666D01*
X64726666Y-103300000D01*
X64660000Y-103266666D01*
X64526666Y-103266666D01*
X64460000Y-103300000D01*
X64393333Y-103366666D01*
X64360000Y-103500000D01*
X64360000Y-103733333D01*
X64393333Y-103866666D01*
X64460000Y-103933333D01*
X64526666Y-103966666D01*
X64660000Y-103966666D01*
X63960000Y-103566666D02*
X64026666Y-103533333D01*
X64060000Y-103500000D01*
X64093333Y-103433333D01*
X64093333Y-103400000D01*
X64060000Y-103333333D01*
X64026666Y-103300000D01*
X63960000Y-103266666D01*
X63826666Y-103266666D01*
X63760000Y-103300000D01*
X63726666Y-103333333D01*
X63693333Y-103400000D01*
X63693333Y-103433333D01*
X63726666Y-103500000D01*
X63760000Y-103533333D01*
X63826666Y-103566666D01*
X63960000Y-103566666D01*
X64026666Y-103600000D01*
X64060000Y-103633333D01*
X64093333Y-103700000D01*
X64093333Y-103833333D01*
X64060000Y-103900000D01*
X64026666Y-103933333D01*
X63960000Y-103966666D01*
X63826666Y-103966666D01*
X63760000Y-103933333D01*
X63726666Y-103900000D01*
X63693333Y-103833333D01*
X63693333Y-103700000D01*
X63726666Y-103633333D01*
X63760000Y-103600000D01*
X63826666Y-103566666D01*
X95116666Y-64783333D02*
X95183333Y-64750000D01*
X95250000Y-64683333D01*
X95350000Y-64583333D01*
X95416666Y-64550000D01*
X95483333Y-64550000D01*
X95450000Y-64716666D02*
X95516666Y-64683333D01*
X95583333Y-64616666D01*
X95616666Y-64483333D01*
X95616666Y-64250000D01*
X95583333Y-64116666D01*
X95516666Y-64050000D01*
X95450000Y-64016666D01*
X95316666Y-64016666D01*
X95250000Y-64050000D01*
X95183333Y-64116666D01*
X95150000Y-64250000D01*
X95150000Y-64483333D01*
X95183333Y-64616666D01*
X95250000Y-64683333D01*
X95316666Y-64716666D01*
X95450000Y-64716666D01*
X94916666Y-64016666D02*
X94450000Y-64016666D01*
X94750000Y-64716666D01*
X240326666Y-104283333D02*
X240393333Y-104250000D01*
X240460000Y-104183333D01*
X240560000Y-104083333D01*
X240626666Y-104050000D01*
X240693333Y-104050000D01*
X240660000Y-104216666D02*
X240726666Y-104183333D01*
X240793333Y-104116666D01*
X240826666Y-103983333D01*
X240826666Y-103750000D01*
X240793333Y-103616666D01*
X240726666Y-103550000D01*
X240660000Y-103516666D01*
X240526666Y-103516666D01*
X240460000Y-103550000D01*
X240393333Y-103616666D01*
X240360000Y-103750000D01*
X240360000Y-103983333D01*
X240393333Y-104116666D01*
X240460000Y-104183333D01*
X240526666Y-104216666D01*
X240660000Y-104216666D01*
X239760000Y-103516666D02*
X239893333Y-103516666D01*
X239960000Y-103550000D01*
X239993333Y-103583333D01*
X240060000Y-103683333D01*
X240093333Y-103816666D01*
X240093333Y-104083333D01*
X240060000Y-104150000D01*
X240026666Y-104183333D01*
X239960000Y-104216666D01*
X239826666Y-104216666D01*
X239760000Y-104183333D01*
X239726666Y-104150000D01*
X239693333Y-104083333D01*
X239693333Y-103916666D01*
X239726666Y-103850000D01*
X239760000Y-103816666D01*
X239826666Y-103783333D01*
X239960000Y-103783333D01*
X240026666Y-103816666D01*
X240060000Y-103850000D01*
X240093333Y-103916666D01*
X199326666Y-65033333D02*
X199393333Y-65000000D01*
X199460000Y-64933333D01*
X199560000Y-64833333D01*
X199626666Y-64800000D01*
X199693333Y-64800000D01*
X199660000Y-64966666D02*
X199726666Y-64933333D01*
X199793333Y-64866666D01*
X199826666Y-64733333D01*
X199826666Y-64500000D01*
X199793333Y-64366666D01*
X199726666Y-64300000D01*
X199660000Y-64266666D01*
X199526666Y-64266666D01*
X199460000Y-64300000D01*
X199393333Y-64366666D01*
X199360000Y-64500000D01*
X199360000Y-64733333D01*
X199393333Y-64866666D01*
X199460000Y-64933333D01*
X199526666Y-64966666D01*
X199660000Y-64966666D01*
X198726666Y-64266666D02*
X199060000Y-64266666D01*
X199093333Y-64600000D01*
X199060000Y-64566666D01*
X198993333Y-64533333D01*
X198826666Y-64533333D01*
X198760000Y-64566666D01*
X198726666Y-64600000D01*
X198693333Y-64666666D01*
X198693333Y-64833333D01*
X198726666Y-64900000D01*
X198760000Y-64933333D01*
X198826666Y-64966666D01*
X198993333Y-64966666D01*
X199060000Y-64933333D01*
X199093333Y-64900000D01*
X131866666Y-65283333D02*
X131933333Y-65250000D01*
X132000000Y-65183333D01*
X132100000Y-65083333D01*
X132166666Y-65050000D01*
X132233333Y-65050000D01*
X132200000Y-65216666D02*
X132266666Y-65183333D01*
X132333333Y-65116666D01*
X132366666Y-64983333D01*
X132366666Y-64750000D01*
X132333333Y-64616666D01*
X132266666Y-64550000D01*
X132200000Y-64516666D01*
X132066666Y-64516666D01*
X132000000Y-64550000D01*
X131933333Y-64616666D01*
X131900000Y-64750000D01*
X131900000Y-64983333D01*
X131933333Y-65116666D01*
X132000000Y-65183333D01*
X132066666Y-65216666D01*
X132200000Y-65216666D01*
X131666666Y-64516666D02*
X131233333Y-64516666D01*
X131466666Y-64783333D01*
X131366666Y-64783333D01*
X131300000Y-64816666D01*
X131266666Y-64850000D01*
X131233333Y-64916666D01*
X131233333Y-65083333D01*
X131266666Y-65150000D01*
X131300000Y-65183333D01*
X131366666Y-65216666D01*
X131566666Y-65216666D01*
X131633333Y-65183333D01*
X131666666Y-65150000D01*
X74866666Y-103783333D02*
X74933333Y-103750000D01*
X75000000Y-103683333D01*
X75100000Y-103583333D01*
X75166666Y-103550000D01*
X75233333Y-103550000D01*
X75200000Y-103716666D02*
X75266666Y-103683333D01*
X75333333Y-103616666D01*
X75366666Y-103483333D01*
X75366666Y-103250000D01*
X75333333Y-103116666D01*
X75266666Y-103050000D01*
X75200000Y-103016666D01*
X75066666Y-103016666D01*
X75000000Y-103050000D01*
X74933333Y-103116666D01*
X74900000Y-103250000D01*
X74900000Y-103483333D01*
X74933333Y-103616666D01*
X75000000Y-103683333D01*
X75066666Y-103716666D01*
X75200000Y-103716666D01*
X74633333Y-103083333D02*
X74600000Y-103050000D01*
X74533333Y-103016666D01*
X74366666Y-103016666D01*
X74300000Y-103050000D01*
X74266666Y-103083333D01*
X74233333Y-103150000D01*
X74233333Y-103216666D01*
X74266666Y-103316666D01*
X74666666Y-103716666D01*
X74233333Y-103716666D01*
X105616666Y-64783333D02*
X105683333Y-64750000D01*
X105750000Y-64683333D01*
X105850000Y-64583333D01*
X105916666Y-64550000D01*
X105983333Y-64550000D01*
X105950000Y-64716666D02*
X106016666Y-64683333D01*
X106083333Y-64616666D01*
X106116666Y-64483333D01*
X106116666Y-64250000D01*
X106083333Y-64116666D01*
X106016666Y-64050000D01*
X105950000Y-64016666D01*
X105816666Y-64016666D01*
X105750000Y-64050000D01*
X105683333Y-64116666D01*
X105650000Y-64250000D01*
X105650000Y-64483333D01*
X105683333Y-64616666D01*
X105750000Y-64683333D01*
X105816666Y-64716666D01*
X105950000Y-64716666D01*
X104983333Y-64716666D02*
X105383333Y-64716666D01*
X105183333Y-64716666D02*
X105183333Y-64016666D01*
X105250000Y-64116666D01*
X105316666Y-64183333D01*
X105383333Y-64216666D01*
X193950000Y-92586666D02*
X193550000Y-92586666D01*
X193750000Y-93286666D02*
X193750000Y-92586666D01*
X193316666Y-93286666D02*
X193316666Y-92586666D01*
X193316666Y-92920000D02*
X192916666Y-92920000D01*
X192916666Y-93286666D02*
X192916666Y-92586666D01*
X192216666Y-93286666D02*
X192616666Y-93286666D01*
X192416666Y-93286666D02*
X192416666Y-92586666D01*
X192483333Y-92686666D01*
X192550000Y-92753333D01*
X192616666Y-92786666D01*
X41566666Y-121216666D02*
X41566666Y-120516666D01*
X41400000Y-120516666D01*
X41300000Y-120550000D01*
X41233333Y-120616666D01*
X41200000Y-120683333D01*
X41166666Y-120816666D01*
X41166666Y-120916666D01*
X41200000Y-121050000D01*
X41233333Y-121116666D01*
X41300000Y-121183333D01*
X41400000Y-121216666D01*
X41566666Y-121216666D01*
X40933333Y-120516666D02*
X40466666Y-120516666D01*
X40766666Y-121216666D01*
X90458333Y-120900000D02*
X90491666Y-120933333D01*
X90591666Y-120966666D01*
X90658333Y-120966666D01*
X90758333Y-120933333D01*
X90825000Y-120866666D01*
X90858333Y-120800000D01*
X90891666Y-120666666D01*
X90891666Y-120566666D01*
X90858333Y-120433333D01*
X90825000Y-120366666D01*
X90758333Y-120300000D01*
X90658333Y-120266666D01*
X90591666Y-120266666D01*
X90491666Y-120300000D01*
X90458333Y-120333333D01*
X89791666Y-120966666D02*
X90191666Y-120966666D01*
X89991666Y-120966666D02*
X89991666Y-120266666D01*
X90058333Y-120366666D01*
X90125000Y-120433333D01*
X90191666Y-120466666D01*
X89358333Y-120266666D02*
X89291666Y-120266666D01*
X89225000Y-120300000D01*
X89191666Y-120333333D01*
X89158333Y-120400000D01*
X89125000Y-120533333D01*
X89125000Y-120700000D01*
X89158333Y-120833333D01*
X89191666Y-120900000D01*
X89225000Y-120933333D01*
X89291666Y-120966666D01*
X89358333Y-120966666D01*
X89425000Y-120933333D01*
X89458333Y-120900000D01*
X89491666Y-120833333D01*
X89525000Y-120700000D01*
X89525000Y-120533333D01*
X89491666Y-120400000D01*
X89458333Y-120333333D01*
X89425000Y-120300000D01*
X89358333Y-120266666D01*
X88691666Y-120266666D02*
X88625000Y-120266666D01*
X88558333Y-120300000D01*
X88525000Y-120333333D01*
X88491666Y-120400000D01*
X88458333Y-120533333D01*
X88458333Y-120700000D01*
X88491666Y-120833333D01*
X88525000Y-120900000D01*
X88558333Y-120933333D01*
X88625000Y-120966666D01*
X88691666Y-120966666D01*
X88758333Y-120933333D01*
X88791666Y-120900000D01*
X88825000Y-120833333D01*
X88858333Y-120700000D01*
X88858333Y-120533333D01*
X88825000Y-120400000D01*
X88791666Y-120333333D01*
X88758333Y-120300000D01*
X88691666Y-120266666D01*
X61316666Y-118966666D02*
X61316666Y-118266666D01*
X61150000Y-118266666D01*
X61050000Y-118300000D01*
X60983333Y-118366666D01*
X60950000Y-118433333D01*
X60916666Y-118566666D01*
X60916666Y-118666666D01*
X60950000Y-118800000D01*
X60983333Y-118866666D01*
X61050000Y-118933333D01*
X61150000Y-118966666D01*
X61316666Y-118966666D01*
X60583333Y-118966666D02*
X60450000Y-118966666D01*
X60383333Y-118933333D01*
X60350000Y-118900000D01*
X60283333Y-118800000D01*
X60250000Y-118666666D01*
X60250000Y-118400000D01*
X60283333Y-118333333D01*
X60316666Y-118300000D01*
X60383333Y-118266666D01*
X60516666Y-118266666D01*
X60583333Y-118300000D01*
X60616666Y-118333333D01*
X60650000Y-118400000D01*
X60650000Y-118566666D01*
X60616666Y-118633333D01*
X60583333Y-118666666D01*
X60516666Y-118700000D01*
X60383333Y-118700000D01*
X60316666Y-118666666D01*
X60283333Y-118633333D01*
X60250000Y-118566666D01*
X260066666Y-97716666D02*
X260066666Y-97016666D01*
X259900000Y-97016666D01*
X259800000Y-97050000D01*
X259733333Y-97116666D01*
X259700000Y-97183333D01*
X259666666Y-97316666D01*
X259666666Y-97416666D01*
X259700000Y-97550000D01*
X259733333Y-97616666D01*
X259800000Y-97683333D01*
X259900000Y-97716666D01*
X260066666Y-97716666D01*
X259433333Y-97016666D02*
X259000000Y-97016666D01*
X259233333Y-97283333D01*
X259133333Y-97283333D01*
X259066666Y-97316666D01*
X259033333Y-97350000D01*
X259000000Y-97416666D01*
X259000000Y-97583333D01*
X259033333Y-97650000D01*
X259066666Y-97683333D01*
X259133333Y-97716666D01*
X259333333Y-97716666D01*
X259400000Y-97683333D01*
X259433333Y-97650000D01*
X192316666Y-96966666D02*
X192316666Y-96266666D01*
X192150000Y-96266666D01*
X192050000Y-96300000D01*
X191983333Y-96366666D01*
X191950000Y-96433333D01*
X191916666Y-96566666D01*
X191916666Y-96666666D01*
X191950000Y-96800000D01*
X191983333Y-96866666D01*
X192050000Y-96933333D01*
X192150000Y-96966666D01*
X192316666Y-96966666D01*
X191650000Y-96333333D02*
X191616666Y-96300000D01*
X191550000Y-96266666D01*
X191383333Y-96266666D01*
X191316666Y-96300000D01*
X191283333Y-96333333D01*
X191250000Y-96400000D01*
X191250000Y-96466666D01*
X191283333Y-96566666D01*
X191683333Y-96966666D01*
X191250000Y-96966666D01*
X124816666Y-97216666D02*
X124816666Y-96516666D01*
X124650000Y-96516666D01*
X124550000Y-96550000D01*
X124483333Y-96616666D01*
X124450000Y-96683333D01*
X124416666Y-96816666D01*
X124416666Y-96916666D01*
X124450000Y-97050000D01*
X124483333Y-97116666D01*
X124550000Y-97183333D01*
X124650000Y-97216666D01*
X124816666Y-97216666D01*
X123750000Y-97216666D02*
X124150000Y-97216666D01*
X123950000Y-97216666D02*
X123950000Y-96516666D01*
X124016666Y-96616666D01*
X124083333Y-96683333D01*
X124150000Y-96716666D01*
X246083333Y-111266666D02*
X246083333Y-111833333D01*
X246050000Y-111900000D01*
X246016666Y-111933333D01*
X245950000Y-111966666D01*
X245816666Y-111966666D01*
X245750000Y-111933333D01*
X245716666Y-111900000D01*
X245683333Y-111833333D01*
X245683333Y-111266666D01*
X245416666Y-111266666D02*
X244983333Y-111266666D01*
X245216666Y-111533333D01*
X245116666Y-111533333D01*
X245050000Y-111566666D01*
X245016666Y-111600000D01*
X244983333Y-111666666D01*
X244983333Y-111833333D01*
X245016666Y-111900000D01*
X245050000Y-111933333D01*
X245116666Y-111966666D01*
X245316666Y-111966666D01*
X245383333Y-111933333D01*
X245416666Y-111900000D01*
X178583333Y-111016666D02*
X178583333Y-111583333D01*
X178550000Y-111650000D01*
X178516666Y-111683333D01*
X178450000Y-111716666D01*
X178316666Y-111716666D01*
X178250000Y-111683333D01*
X178216666Y-111650000D01*
X178183333Y-111583333D01*
X178183333Y-111016666D01*
X177883333Y-111083333D02*
X177850000Y-111050000D01*
X177783333Y-111016666D01*
X177616666Y-111016666D01*
X177550000Y-111050000D01*
X177516666Y-111083333D01*
X177483333Y-111150000D01*
X177483333Y-111216666D01*
X177516666Y-111316666D01*
X177916666Y-111716666D01*
X177483333Y-111716666D01*
X111083333Y-111016666D02*
X111083333Y-111583333D01*
X111050000Y-111650000D01*
X111016666Y-111683333D01*
X110950000Y-111716666D01*
X110816666Y-111716666D01*
X110750000Y-111683333D01*
X110716666Y-111650000D01*
X110683333Y-111583333D01*
X110683333Y-111016666D01*
X109983333Y-111716666D02*
X110383333Y-111716666D01*
X110183333Y-111716666D02*
X110183333Y-111016666D01*
X110250000Y-111116666D01*
X110316666Y-111183333D01*
X110383333Y-111216666D01*
X39250000Y-119466666D02*
X39483333Y-119133333D01*
X39650000Y-119466666D02*
X39650000Y-118766666D01*
X39383333Y-118766666D01*
X39316666Y-118800000D01*
X39283333Y-118833333D01*
X39250000Y-118900000D01*
X39250000Y-119000000D01*
X39283333Y-119066666D01*
X39316666Y-119100000D01*
X39383333Y-119133333D01*
X39650000Y-119133333D01*
X38916666Y-119466666D02*
X38783333Y-119466666D01*
X38716666Y-119433333D01*
X38683333Y-119400000D01*
X38616666Y-119300000D01*
X38583333Y-119166666D01*
X38583333Y-118900000D01*
X38616666Y-118833333D01*
X38650000Y-118800000D01*
X38716666Y-118766666D01*
X38850000Y-118766666D01*
X38916666Y-118800000D01*
X38950000Y-118833333D01*
X38983333Y-118900000D01*
X38983333Y-119066666D01*
X38950000Y-119133333D01*
X38916666Y-119166666D01*
X38850000Y-119200000D01*
X38716666Y-119200000D01*
X38650000Y-119166666D01*
X38616666Y-119133333D01*
X38583333Y-119066666D01*
X38350000Y-118766666D02*
X37883333Y-118766666D01*
X38183333Y-119466666D01*
X40866666Y-117950000D02*
X40533333Y-117716666D01*
X40866666Y-117550000D02*
X40166666Y-117550000D01*
X40166666Y-117816666D01*
X40200000Y-117883333D01*
X40233333Y-117916666D01*
X40300000Y-117950000D01*
X40400000Y-117950000D01*
X40466666Y-117916666D01*
X40500000Y-117883333D01*
X40533333Y-117816666D01*
X40533333Y-117550000D01*
X40866666Y-118283333D02*
X40866666Y-118416666D01*
X40833333Y-118483333D01*
X40800000Y-118516666D01*
X40700000Y-118583333D01*
X40566666Y-118616666D01*
X40300000Y-118616666D01*
X40233333Y-118583333D01*
X40200000Y-118550000D01*
X40166666Y-118483333D01*
X40166666Y-118350000D01*
X40200000Y-118283333D01*
X40233333Y-118250000D01*
X40300000Y-118216666D01*
X40466666Y-118216666D01*
X40533333Y-118250000D01*
X40566666Y-118283333D01*
X40600000Y-118350000D01*
X40600000Y-118483333D01*
X40566666Y-118550000D01*
X40533333Y-118583333D01*
X40466666Y-118616666D01*
X40166666Y-119216666D02*
X40166666Y-119083333D01*
X40200000Y-119016666D01*
X40233333Y-118983333D01*
X40333333Y-118916666D01*
X40466666Y-118883333D01*
X40733333Y-118883333D01*
X40800000Y-118916666D01*
X40833333Y-118950000D01*
X40866666Y-119016666D01*
X40866666Y-119150000D01*
X40833333Y-119216666D01*
X40800000Y-119250000D01*
X40733333Y-119283333D01*
X40566666Y-119283333D01*
X40500000Y-119250000D01*
X40466666Y-119216666D01*
X40433333Y-119150000D01*
X40433333Y-119016666D01*
X40466666Y-118950000D01*
X40500000Y-118916666D01*
X40566666Y-118883333D01*
X39333333Y-117900000D02*
X39366666Y-117933333D01*
X39466666Y-117966666D01*
X39533333Y-117966666D01*
X39633333Y-117933333D01*
X39700000Y-117866666D01*
X39733333Y-117800000D01*
X39766666Y-117666666D01*
X39766666Y-117566666D01*
X39733333Y-117433333D01*
X39700000Y-117366666D01*
X39633333Y-117300000D01*
X39533333Y-117266666D01*
X39466666Y-117266666D01*
X39366666Y-117300000D01*
X39333333Y-117333333D01*
X38666666Y-117966666D02*
X39066666Y-117966666D01*
X38866666Y-117966666D02*
X38866666Y-117266666D01*
X38933333Y-117366666D01*
X39000000Y-117433333D01*
X39066666Y-117466666D01*
X38233333Y-117266666D02*
X38166666Y-117266666D01*
X38100000Y-117300000D01*
X38066666Y-117333333D01*
X38033333Y-117400000D01*
X38000000Y-117533333D01*
X38000000Y-117700000D01*
X38033333Y-117833333D01*
X38066666Y-117900000D01*
X38100000Y-117933333D01*
X38166666Y-117966666D01*
X38233333Y-117966666D01*
X38300000Y-117933333D01*
X38333333Y-117900000D01*
X38366666Y-117833333D01*
X38400000Y-117700000D01*
X38400000Y-117533333D01*
X38366666Y-117400000D01*
X38333333Y-117333333D01*
X38300000Y-117300000D01*
X38233333Y-117266666D01*
X37766666Y-117266666D02*
X37300000Y-117266666D01*
X37600000Y-117966666D01*
X113000000Y-84716666D02*
X113233333Y-84383333D01*
X113400000Y-84716666D02*
X113400000Y-84016666D01*
X113133333Y-84016666D01*
X113066666Y-84050000D01*
X113033333Y-84083333D01*
X113000000Y-84150000D01*
X113000000Y-84250000D01*
X113033333Y-84316666D01*
X113066666Y-84350000D01*
X113133333Y-84383333D01*
X113400000Y-84383333D01*
X112400000Y-84016666D02*
X112533333Y-84016666D01*
X112600000Y-84050000D01*
X112633333Y-84083333D01*
X112700000Y-84183333D01*
X112733333Y-84316666D01*
X112733333Y-84583333D01*
X112700000Y-84650000D01*
X112666666Y-84683333D01*
X112600000Y-84716666D01*
X112466666Y-84716666D01*
X112400000Y-84683333D01*
X112366666Y-84650000D01*
X112333333Y-84583333D01*
X112333333Y-84416666D01*
X112366666Y-84350000D01*
X112400000Y-84316666D01*
X112466666Y-84283333D01*
X112600000Y-84283333D01*
X112666666Y-84316666D01*
X112700000Y-84350000D01*
X112733333Y-84416666D01*
X112066666Y-84083333D02*
X112033333Y-84050000D01*
X111966666Y-84016666D01*
X111800000Y-84016666D01*
X111733333Y-84050000D01*
X111700000Y-84083333D01*
X111666666Y-84150000D01*
X111666666Y-84216666D01*
X111700000Y-84316666D01*
X112100000Y-84716666D01*
X111666666Y-84716666D01*
X180750000Y-84716666D02*
X180983333Y-84383333D01*
X181150000Y-84716666D02*
X181150000Y-84016666D01*
X180883333Y-84016666D01*
X180816666Y-84050000D01*
X180783333Y-84083333D01*
X180750000Y-84150000D01*
X180750000Y-84250000D01*
X180783333Y-84316666D01*
X180816666Y-84350000D01*
X180883333Y-84383333D01*
X181150000Y-84383333D01*
X180150000Y-84016666D02*
X180283333Y-84016666D01*
X180350000Y-84050000D01*
X180383333Y-84083333D01*
X180450000Y-84183333D01*
X180483333Y-84316666D01*
X180483333Y-84583333D01*
X180450000Y-84650000D01*
X180416666Y-84683333D01*
X180350000Y-84716666D01*
X180216666Y-84716666D01*
X180150000Y-84683333D01*
X180116666Y-84650000D01*
X180083333Y-84583333D01*
X180083333Y-84416666D01*
X180116666Y-84350000D01*
X180150000Y-84316666D01*
X180216666Y-84283333D01*
X180350000Y-84283333D01*
X180416666Y-84316666D01*
X180450000Y-84350000D01*
X180483333Y-84416666D01*
X179416666Y-84716666D02*
X179816666Y-84716666D01*
X179616666Y-84716666D02*
X179616666Y-84016666D01*
X179683333Y-84116666D01*
X179750000Y-84183333D01*
X179816666Y-84216666D01*
X246750000Y-84716666D02*
X246983333Y-84383333D01*
X247150000Y-84716666D02*
X247150000Y-84016666D01*
X246883333Y-84016666D01*
X246816666Y-84050000D01*
X246783333Y-84083333D01*
X246750000Y-84150000D01*
X246750000Y-84250000D01*
X246783333Y-84316666D01*
X246816666Y-84350000D01*
X246883333Y-84383333D01*
X247150000Y-84383333D01*
X246116666Y-84016666D02*
X246450000Y-84016666D01*
X246483333Y-84350000D01*
X246450000Y-84316666D01*
X246383333Y-84283333D01*
X246216666Y-84283333D01*
X246150000Y-84316666D01*
X246116666Y-84350000D01*
X246083333Y-84416666D01*
X246083333Y-84583333D01*
X246116666Y-84650000D01*
X246150000Y-84683333D01*
X246216666Y-84716666D01*
X246383333Y-84716666D01*
X246450000Y-84683333D01*
X246483333Y-84650000D01*
X245750000Y-84716666D02*
X245616666Y-84716666D01*
X245550000Y-84683333D01*
X245516666Y-84650000D01*
X245450000Y-84550000D01*
X245416666Y-84416666D01*
X245416666Y-84150000D01*
X245450000Y-84083333D01*
X245483333Y-84050000D01*
X245550000Y-84016666D01*
X245683333Y-84016666D01*
X245750000Y-84050000D01*
X245783333Y-84083333D01*
X245816666Y-84150000D01*
X245816666Y-84316666D01*
X245783333Y-84383333D01*
X245750000Y-84416666D01*
X245683333Y-84450000D01*
X245550000Y-84450000D01*
X245483333Y-84416666D01*
X245450000Y-84383333D01*
X245416666Y-84316666D01*
X45250000Y-84716666D02*
X45483333Y-84383333D01*
X45650000Y-84716666D02*
X45650000Y-84016666D01*
X45383333Y-84016666D01*
X45316666Y-84050000D01*
X45283333Y-84083333D01*
X45250000Y-84150000D01*
X45250000Y-84250000D01*
X45283333Y-84316666D01*
X45316666Y-84350000D01*
X45383333Y-84383333D01*
X45650000Y-84383333D01*
X44616666Y-84016666D02*
X44950000Y-84016666D01*
X44983333Y-84350000D01*
X44950000Y-84316666D01*
X44883333Y-84283333D01*
X44716666Y-84283333D01*
X44650000Y-84316666D01*
X44616666Y-84350000D01*
X44583333Y-84416666D01*
X44583333Y-84583333D01*
X44616666Y-84650000D01*
X44650000Y-84683333D01*
X44716666Y-84716666D01*
X44883333Y-84716666D01*
X44950000Y-84683333D01*
X44983333Y-84650000D01*
X44183333Y-84316666D02*
X44250000Y-84283333D01*
X44283333Y-84250000D01*
X44316666Y-84183333D01*
X44316666Y-84150000D01*
X44283333Y-84083333D01*
X44250000Y-84050000D01*
X44183333Y-84016666D01*
X44050000Y-84016666D01*
X43983333Y-84050000D01*
X43950000Y-84083333D01*
X43916666Y-84150000D01*
X43916666Y-84183333D01*
X43950000Y-84250000D01*
X43983333Y-84283333D01*
X44050000Y-84316666D01*
X44183333Y-84316666D01*
X44250000Y-84350000D01*
X44283333Y-84383333D01*
X44316666Y-84450000D01*
X44316666Y-84583333D01*
X44283333Y-84650000D01*
X44250000Y-84683333D01*
X44183333Y-84716666D01*
X44050000Y-84716666D01*
X43983333Y-84683333D01*
X43950000Y-84650000D01*
X43916666Y-84583333D01*
X43916666Y-84450000D01*
X43950000Y-84383333D01*
X43983333Y-84350000D01*
X44050000Y-84316666D01*
X34500000Y-111216666D02*
X34733333Y-110883333D01*
X34900000Y-111216666D02*
X34900000Y-110516666D01*
X34633333Y-110516666D01*
X34566666Y-110550000D01*
X34533333Y-110583333D01*
X34500000Y-110650000D01*
X34500000Y-110750000D01*
X34533333Y-110816666D01*
X34566666Y-110850000D01*
X34633333Y-110883333D01*
X34900000Y-110883333D01*
X34166666Y-111216666D02*
X34033333Y-111216666D01*
X33966666Y-111183333D01*
X33933333Y-111150000D01*
X33866666Y-111050000D01*
X33833333Y-110916666D01*
X33833333Y-110650000D01*
X33866666Y-110583333D01*
X33900000Y-110550000D01*
X33966666Y-110516666D01*
X34100000Y-110516666D01*
X34166666Y-110550000D01*
X34200000Y-110583333D01*
X34233333Y-110650000D01*
X34233333Y-110816666D01*
X34200000Y-110883333D01*
X34166666Y-110916666D01*
X34100000Y-110950000D01*
X33966666Y-110950000D01*
X33900000Y-110916666D01*
X33866666Y-110883333D01*
X33833333Y-110816666D01*
X33500000Y-111216666D02*
X33366666Y-111216666D01*
X33300000Y-111183333D01*
X33266666Y-111150000D01*
X33200000Y-111050000D01*
X33166666Y-110916666D01*
X33166666Y-110650000D01*
X33200000Y-110583333D01*
X33233333Y-110550000D01*
X33300000Y-110516666D01*
X33433333Y-110516666D01*
X33500000Y-110550000D01*
X33533333Y-110583333D01*
X33566666Y-110650000D01*
X33566666Y-110816666D01*
X33533333Y-110883333D01*
X33500000Y-110916666D01*
X33433333Y-110950000D01*
X33300000Y-110950000D01*
X33233333Y-110916666D01*
X33200000Y-110883333D01*
X33166666Y-110816666D01*
X35250000Y-119466666D02*
X35483333Y-119133333D01*
X35650000Y-119466666D02*
X35650000Y-118766666D01*
X35383333Y-118766666D01*
X35316666Y-118800000D01*
X35283333Y-118833333D01*
X35250000Y-118900000D01*
X35250000Y-119000000D01*
X35283333Y-119066666D01*
X35316666Y-119100000D01*
X35383333Y-119133333D01*
X35650000Y-119133333D01*
X34916666Y-119466666D02*
X34783333Y-119466666D01*
X34716666Y-119433333D01*
X34683333Y-119400000D01*
X34616666Y-119300000D01*
X34583333Y-119166666D01*
X34583333Y-118900000D01*
X34616666Y-118833333D01*
X34650000Y-118800000D01*
X34716666Y-118766666D01*
X34850000Y-118766666D01*
X34916666Y-118800000D01*
X34950000Y-118833333D01*
X34983333Y-118900000D01*
X34983333Y-119066666D01*
X34950000Y-119133333D01*
X34916666Y-119166666D01*
X34850000Y-119200000D01*
X34716666Y-119200000D01*
X34650000Y-119166666D01*
X34616666Y-119133333D01*
X34583333Y-119066666D01*
X34183333Y-119066666D02*
X34250000Y-119033333D01*
X34283333Y-119000000D01*
X34316666Y-118933333D01*
X34316666Y-118900000D01*
X34283333Y-118833333D01*
X34250000Y-118800000D01*
X34183333Y-118766666D01*
X34050000Y-118766666D01*
X33983333Y-118800000D01*
X33950000Y-118833333D01*
X33916666Y-118900000D01*
X33916666Y-118933333D01*
X33950000Y-119000000D01*
X33983333Y-119033333D01*
X34050000Y-119066666D01*
X34183333Y-119066666D01*
X34250000Y-119100000D01*
X34283333Y-119133333D01*
X34316666Y-119200000D01*
X34316666Y-119333333D01*
X34283333Y-119400000D01*
X34250000Y-119433333D01*
X34183333Y-119466666D01*
X34050000Y-119466666D01*
X33983333Y-119433333D01*
X33950000Y-119400000D01*
X33916666Y-119333333D01*
X33916666Y-119200000D01*
X33950000Y-119133333D01*
X33983333Y-119100000D01*
X34050000Y-119066666D01*
X36000000Y-102966666D02*
X36233333Y-102633333D01*
X36400000Y-102966666D02*
X36400000Y-102266666D01*
X36133333Y-102266666D01*
X36066666Y-102300000D01*
X36033333Y-102333333D01*
X36000000Y-102400000D01*
X36000000Y-102500000D01*
X36033333Y-102566666D01*
X36066666Y-102600000D01*
X36133333Y-102633333D01*
X36400000Y-102633333D01*
X35666666Y-102966666D02*
X35533333Y-102966666D01*
X35466666Y-102933333D01*
X35433333Y-102900000D01*
X35366666Y-102800000D01*
X35333333Y-102666666D01*
X35333333Y-102400000D01*
X35366666Y-102333333D01*
X35400000Y-102300000D01*
X35466666Y-102266666D01*
X35600000Y-102266666D01*
X35666666Y-102300000D01*
X35700000Y-102333333D01*
X35733333Y-102400000D01*
X35733333Y-102566666D01*
X35700000Y-102633333D01*
X35666666Y-102666666D01*
X35600000Y-102700000D01*
X35466666Y-102700000D01*
X35400000Y-102666666D01*
X35366666Y-102633333D01*
X35333333Y-102566666D01*
X34733333Y-102500000D02*
X34733333Y-102966666D01*
X34900000Y-102233333D02*
X35066666Y-102733333D01*
X34633333Y-102733333D01*
X38500000Y-102966666D02*
X38733333Y-102633333D01*
X38900000Y-102966666D02*
X38900000Y-102266666D01*
X38633333Y-102266666D01*
X38566666Y-102300000D01*
X38533333Y-102333333D01*
X38500000Y-102400000D01*
X38500000Y-102500000D01*
X38533333Y-102566666D01*
X38566666Y-102600000D01*
X38633333Y-102633333D01*
X38900000Y-102633333D01*
X38166666Y-102966666D02*
X38033333Y-102966666D01*
X37966666Y-102933333D01*
X37933333Y-102900000D01*
X37866666Y-102800000D01*
X37833333Y-102666666D01*
X37833333Y-102400000D01*
X37866666Y-102333333D01*
X37900000Y-102300000D01*
X37966666Y-102266666D01*
X38100000Y-102266666D01*
X38166666Y-102300000D01*
X38200000Y-102333333D01*
X38233333Y-102400000D01*
X38233333Y-102566666D01*
X38200000Y-102633333D01*
X38166666Y-102666666D01*
X38100000Y-102700000D01*
X37966666Y-102700000D01*
X37900000Y-102666666D01*
X37866666Y-102633333D01*
X37833333Y-102566666D01*
X37166666Y-102966666D02*
X37566666Y-102966666D01*
X37366666Y-102966666D02*
X37366666Y-102266666D01*
X37433333Y-102366666D01*
X37500000Y-102433333D01*
X37566666Y-102466666D01*
X35483333Y-107466666D02*
X35483333Y-106766666D01*
X34750000Y-107400000D02*
X34783333Y-107433333D01*
X34883333Y-107466666D01*
X34950000Y-107466666D01*
X35050000Y-107433333D01*
X35116666Y-107366666D01*
X35150000Y-107300000D01*
X35183333Y-107166666D01*
X35183333Y-107066666D01*
X35150000Y-106933333D01*
X35116666Y-106866666D01*
X35050000Y-106800000D01*
X34950000Y-106766666D01*
X34883333Y-106766666D01*
X34783333Y-106800000D01*
X34750000Y-106833333D01*
X34083333Y-107466666D02*
X34483333Y-107466666D01*
X34283333Y-107466666D02*
X34283333Y-106766666D01*
X34350000Y-106866666D01*
X34416666Y-106933333D01*
X34483333Y-106966666D01*
X48300000Y-114116666D02*
X48333333Y-114083333D01*
X48366666Y-113983333D01*
X48366666Y-113916666D01*
X48333333Y-113816666D01*
X48266666Y-113750000D01*
X48200000Y-113716666D01*
X48066666Y-113683333D01*
X47966666Y-113683333D01*
X47833333Y-113716666D01*
X47766666Y-113750000D01*
X47700000Y-113816666D01*
X47666666Y-113916666D01*
X47666666Y-113983333D01*
X47700000Y-114083333D01*
X47733333Y-114116666D01*
X48366666Y-114783333D02*
X48366666Y-114383333D01*
X48366666Y-114583333D02*
X47666666Y-114583333D01*
X47766666Y-114516666D01*
X47833333Y-114450000D01*
X47866666Y-114383333D01*
X48366666Y-115450000D02*
X48366666Y-115050000D01*
X48366666Y-115250000D02*
X47666666Y-115250000D01*
X47766666Y-115183333D01*
X47833333Y-115116666D01*
X47866666Y-115050000D01*
X47666666Y-115683333D02*
X47666666Y-116150000D01*
X48366666Y-115850000D01*
X49550000Y-124116666D02*
X49583333Y-124083333D01*
X49616666Y-123983333D01*
X49616666Y-123916666D01*
X49583333Y-123816666D01*
X49516666Y-123750000D01*
X49450000Y-123716666D01*
X49316666Y-123683333D01*
X49216666Y-123683333D01*
X49083333Y-123716666D01*
X49016666Y-123750000D01*
X48950000Y-123816666D01*
X48916666Y-123916666D01*
X48916666Y-123983333D01*
X48950000Y-124083333D01*
X48983333Y-124116666D01*
X49616666Y-124783333D02*
X49616666Y-124383333D01*
X49616666Y-124583333D02*
X48916666Y-124583333D01*
X49016666Y-124516666D01*
X49083333Y-124450000D01*
X49116666Y-124383333D01*
X49616666Y-125450000D02*
X49616666Y-125050000D01*
X49616666Y-125250000D02*
X48916666Y-125250000D01*
X49016666Y-125183333D01*
X49083333Y-125116666D01*
X49116666Y-125050000D01*
X48916666Y-126050000D02*
X48916666Y-125916666D01*
X48950000Y-125850000D01*
X48983333Y-125816666D01*
X49083333Y-125750000D01*
X49216666Y-125716666D01*
X49483333Y-125716666D01*
X49550000Y-125750000D01*
X49583333Y-125783333D01*
X49616666Y-125850000D01*
X49616666Y-125983333D01*
X49583333Y-126050000D01*
X49550000Y-126083333D01*
X49483333Y-126116666D01*
X49316666Y-126116666D01*
X49250000Y-126083333D01*
X49216666Y-126050000D01*
X49183333Y-125983333D01*
X49183333Y-125850000D01*
X49216666Y-125783333D01*
X49250000Y-125750000D01*
X49316666Y-125716666D01*
X48300000Y-119366666D02*
X48333333Y-119333333D01*
X48366666Y-119233333D01*
X48366666Y-119166666D01*
X48333333Y-119066666D01*
X48266666Y-119000000D01*
X48200000Y-118966666D01*
X48066666Y-118933333D01*
X47966666Y-118933333D01*
X47833333Y-118966666D01*
X47766666Y-119000000D01*
X47700000Y-119066666D01*
X47666666Y-119166666D01*
X47666666Y-119233333D01*
X47700000Y-119333333D01*
X47733333Y-119366666D01*
X48366666Y-120033333D02*
X48366666Y-119633333D01*
X48366666Y-119833333D02*
X47666666Y-119833333D01*
X47766666Y-119766666D01*
X47833333Y-119700000D01*
X47866666Y-119633333D01*
X48366666Y-120700000D02*
X48366666Y-120300000D01*
X48366666Y-120500000D02*
X47666666Y-120500000D01*
X47766666Y-120433333D01*
X47833333Y-120366666D01*
X47866666Y-120300000D01*
X47666666Y-121333333D02*
X47666666Y-121000000D01*
X48000000Y-120966666D01*
X47966666Y-121000000D01*
X47933333Y-121066666D01*
X47933333Y-121233333D01*
X47966666Y-121300000D01*
X48000000Y-121333333D01*
X48066666Y-121366666D01*
X48233333Y-121366666D01*
X48300000Y-121333333D01*
X48333333Y-121300000D01*
X48366666Y-121233333D01*
X48366666Y-121066666D01*
X48333333Y-121000000D01*
X48300000Y-120966666D01*
X35333333Y-117900000D02*
X35366666Y-117933333D01*
X35466666Y-117966666D01*
X35533333Y-117966666D01*
X35633333Y-117933333D01*
X35700000Y-117866666D01*
X35733333Y-117800000D01*
X35766666Y-117666666D01*
X35766666Y-117566666D01*
X35733333Y-117433333D01*
X35700000Y-117366666D01*
X35633333Y-117300000D01*
X35533333Y-117266666D01*
X35466666Y-117266666D01*
X35366666Y-117300000D01*
X35333333Y-117333333D01*
X34666666Y-117966666D02*
X35066666Y-117966666D01*
X34866666Y-117966666D02*
X34866666Y-117266666D01*
X34933333Y-117366666D01*
X35000000Y-117433333D01*
X35066666Y-117466666D01*
X34233333Y-117266666D02*
X34166666Y-117266666D01*
X34100000Y-117300000D01*
X34066666Y-117333333D01*
X34033333Y-117400000D01*
X34000000Y-117533333D01*
X34000000Y-117700000D01*
X34033333Y-117833333D01*
X34066666Y-117900000D01*
X34100000Y-117933333D01*
X34166666Y-117966666D01*
X34233333Y-117966666D01*
X34300000Y-117933333D01*
X34333333Y-117900000D01*
X34366666Y-117833333D01*
X34400000Y-117700000D01*
X34400000Y-117533333D01*
X34366666Y-117400000D01*
X34333333Y-117333333D01*
X34300000Y-117300000D01*
X34233333Y-117266666D01*
X33600000Y-117566666D02*
X33666666Y-117533333D01*
X33700000Y-117500000D01*
X33733333Y-117433333D01*
X33733333Y-117400000D01*
X33700000Y-117333333D01*
X33666666Y-117300000D01*
X33600000Y-117266666D01*
X33466666Y-117266666D01*
X33400000Y-117300000D01*
X33366666Y-117333333D01*
X33333333Y-117400000D01*
X33333333Y-117433333D01*
X33366666Y-117500000D01*
X33400000Y-117533333D01*
X33466666Y-117566666D01*
X33600000Y-117566666D01*
X33666666Y-117600000D01*
X33700000Y-117633333D01*
X33733333Y-117700000D01*
X33733333Y-117833333D01*
X33700000Y-117900000D01*
X33666666Y-117933333D01*
X33600000Y-117966666D01*
X33466666Y-117966666D01*
X33400000Y-117933333D01*
X33366666Y-117900000D01*
X33333333Y-117833333D01*
X33333333Y-117700000D01*
X33366666Y-117633333D01*
X33400000Y-117600000D01*
X33466666Y-117566666D01*
X36800000Y-117616666D02*
X36833333Y-117583333D01*
X36866666Y-117483333D01*
X36866666Y-117416666D01*
X36833333Y-117316666D01*
X36766666Y-117250000D01*
X36700000Y-117216666D01*
X36566666Y-117183333D01*
X36466666Y-117183333D01*
X36333333Y-117216666D01*
X36266666Y-117250000D01*
X36200000Y-117316666D01*
X36166666Y-117416666D01*
X36166666Y-117483333D01*
X36200000Y-117583333D01*
X36233333Y-117616666D01*
X36866666Y-118283333D02*
X36866666Y-117883333D01*
X36866666Y-118083333D02*
X36166666Y-118083333D01*
X36266666Y-118016666D01*
X36333333Y-117950000D01*
X36366666Y-117883333D01*
X36166666Y-118716666D02*
X36166666Y-118783333D01*
X36200000Y-118850000D01*
X36233333Y-118883333D01*
X36300000Y-118916666D01*
X36433333Y-118950000D01*
X36600000Y-118950000D01*
X36733333Y-118916666D01*
X36800000Y-118883333D01*
X36833333Y-118850000D01*
X36866666Y-118783333D01*
X36866666Y-118716666D01*
X36833333Y-118650000D01*
X36800000Y-118616666D01*
X36733333Y-118583333D01*
X36600000Y-118550000D01*
X36433333Y-118550000D01*
X36300000Y-118583333D01*
X36233333Y-118616666D01*
X36200000Y-118650000D01*
X36166666Y-118716666D01*
X36233333Y-119216666D02*
X36200000Y-119250000D01*
X36166666Y-119316666D01*
X36166666Y-119483333D01*
X36200000Y-119550000D01*
X36233333Y-119583333D01*
X36300000Y-119616666D01*
X36366666Y-119616666D01*
X36466666Y-119583333D01*
X36866666Y-119183333D01*
X36866666Y-119616666D01*
X41833333Y-104400000D02*
X41866666Y-104433333D01*
X41966666Y-104466666D01*
X42033333Y-104466666D01*
X42133333Y-104433333D01*
X42200000Y-104366666D01*
X42233333Y-104300000D01*
X42266666Y-104166666D01*
X42266666Y-104066666D01*
X42233333Y-103933333D01*
X42200000Y-103866666D01*
X42133333Y-103800000D01*
X42033333Y-103766666D01*
X41966666Y-103766666D01*
X41866666Y-103800000D01*
X41833333Y-103833333D01*
X41166666Y-104466666D02*
X41566666Y-104466666D01*
X41366666Y-104466666D02*
X41366666Y-103766666D01*
X41433333Y-103866666D01*
X41500000Y-103933333D01*
X41566666Y-103966666D01*
X40733333Y-103766666D02*
X40666666Y-103766666D01*
X40600000Y-103800000D01*
X40566666Y-103833333D01*
X40533333Y-103900000D01*
X40500000Y-104033333D01*
X40500000Y-104200000D01*
X40533333Y-104333333D01*
X40566666Y-104400000D01*
X40600000Y-104433333D01*
X40666666Y-104466666D01*
X40733333Y-104466666D01*
X40800000Y-104433333D01*
X40833333Y-104400000D01*
X40866666Y-104333333D01*
X40900000Y-104200000D01*
X40900000Y-104033333D01*
X40866666Y-103900000D01*
X40833333Y-103833333D01*
X40800000Y-103800000D01*
X40733333Y-103766666D01*
X39833333Y-104466666D02*
X40233333Y-104466666D01*
X40033333Y-104466666D02*
X40033333Y-103766666D01*
X40100000Y-103866666D01*
X40166666Y-103933333D01*
X40233333Y-103966666D01*
X43500000Y-121216666D02*
X43733333Y-120883333D01*
X43900000Y-121216666D02*
X43900000Y-120516666D01*
X43633333Y-120516666D01*
X43566666Y-120550000D01*
X43533333Y-120583333D01*
X43500000Y-120650000D01*
X43500000Y-120750000D01*
X43533333Y-120816666D01*
X43566666Y-120850000D01*
X43633333Y-120883333D01*
X43900000Y-120883333D01*
X43100000Y-120816666D02*
X43166666Y-120783333D01*
X43200000Y-120750000D01*
X43233333Y-120683333D01*
X43233333Y-120650000D01*
X43200000Y-120583333D01*
X43166666Y-120550000D01*
X43100000Y-120516666D01*
X42966666Y-120516666D01*
X42900000Y-120550000D01*
X42866666Y-120583333D01*
X42833333Y-120650000D01*
X42833333Y-120683333D01*
X42866666Y-120750000D01*
X42900000Y-120783333D01*
X42966666Y-120816666D01*
X43100000Y-120816666D01*
X43166666Y-120850000D01*
X43200000Y-120883333D01*
X43233333Y-120950000D01*
X43233333Y-121083333D01*
X43200000Y-121150000D01*
X43166666Y-121183333D01*
X43100000Y-121216666D01*
X42966666Y-121216666D01*
X42900000Y-121183333D01*
X42866666Y-121150000D01*
X42833333Y-121083333D01*
X42833333Y-120950000D01*
X42866666Y-120883333D01*
X42900000Y-120850000D01*
X42966666Y-120816666D01*
X42200000Y-120516666D02*
X42533333Y-120516666D01*
X42566666Y-120850000D01*
X42533333Y-120816666D01*
X42466666Y-120783333D01*
X42300000Y-120783333D01*
X42233333Y-120816666D01*
X42200000Y-120850000D01*
X42166666Y-120916666D01*
X42166666Y-121083333D01*
X42200000Y-121150000D01*
X42233333Y-121183333D01*
X42300000Y-121216666D01*
X42466666Y-121216666D01*
X42533333Y-121183333D01*
X42566666Y-121150000D01*
X46000000Y-122716666D02*
X46233333Y-122383333D01*
X46400000Y-122716666D02*
X46400000Y-122016666D01*
X46133333Y-122016666D01*
X46066666Y-122050000D01*
X46033333Y-122083333D01*
X46000000Y-122150000D01*
X46000000Y-122250000D01*
X46033333Y-122316666D01*
X46066666Y-122350000D01*
X46133333Y-122383333D01*
X46400000Y-122383333D01*
X45600000Y-122316666D02*
X45666666Y-122283333D01*
X45700000Y-122250000D01*
X45733333Y-122183333D01*
X45733333Y-122150000D01*
X45700000Y-122083333D01*
X45666666Y-122050000D01*
X45600000Y-122016666D01*
X45466666Y-122016666D01*
X45400000Y-122050000D01*
X45366666Y-122083333D01*
X45333333Y-122150000D01*
X45333333Y-122183333D01*
X45366666Y-122250000D01*
X45400000Y-122283333D01*
X45466666Y-122316666D01*
X45600000Y-122316666D01*
X45666666Y-122350000D01*
X45700000Y-122383333D01*
X45733333Y-122450000D01*
X45733333Y-122583333D01*
X45700000Y-122650000D01*
X45666666Y-122683333D01*
X45600000Y-122716666D01*
X45466666Y-122716666D01*
X45400000Y-122683333D01*
X45366666Y-122650000D01*
X45333333Y-122583333D01*
X45333333Y-122450000D01*
X45366666Y-122383333D01*
X45400000Y-122350000D01*
X45466666Y-122316666D01*
X44733333Y-122250000D02*
X44733333Y-122716666D01*
X44900000Y-121983333D02*
X45066666Y-122483333D01*
X44633333Y-122483333D01*
X260000000Y-111466666D02*
X260233333Y-111133333D01*
X260400000Y-111466666D02*
X260400000Y-110766666D01*
X260133333Y-110766666D01*
X260066666Y-110800000D01*
X260033333Y-110833333D01*
X260000000Y-110900000D01*
X260000000Y-111000000D01*
X260033333Y-111066666D01*
X260066666Y-111100000D01*
X260133333Y-111133333D01*
X260400000Y-111133333D01*
X259333333Y-111466666D02*
X259733333Y-111466666D01*
X259533333Y-111466666D02*
X259533333Y-110766666D01*
X259600000Y-110866666D01*
X259666666Y-110933333D01*
X259733333Y-110966666D01*
X259066666Y-110833333D02*
X259033333Y-110800000D01*
X258966666Y-110766666D01*
X258800000Y-110766666D01*
X258733333Y-110800000D01*
X258700000Y-110833333D01*
X258666666Y-110900000D01*
X258666666Y-110966666D01*
X258700000Y-111066666D01*
X259100000Y-111466666D01*
X258666666Y-111466666D01*
X192250000Y-111216666D02*
X192483333Y-110883333D01*
X192650000Y-111216666D02*
X192650000Y-110516666D01*
X192383333Y-110516666D01*
X192316666Y-110550000D01*
X192283333Y-110583333D01*
X192250000Y-110650000D01*
X192250000Y-110750000D01*
X192283333Y-110816666D01*
X192316666Y-110850000D01*
X192383333Y-110883333D01*
X192650000Y-110883333D01*
X191583333Y-111216666D02*
X191983333Y-111216666D01*
X191783333Y-111216666D02*
X191783333Y-110516666D01*
X191850000Y-110616666D01*
X191916666Y-110683333D01*
X191983333Y-110716666D01*
X190916666Y-111216666D02*
X191316666Y-111216666D01*
X191116666Y-111216666D02*
X191116666Y-110516666D01*
X191183333Y-110616666D01*
X191250000Y-110683333D01*
X191316666Y-110716666D01*
X249250000Y-97650000D02*
X249283333Y-97683333D01*
X249383333Y-97716666D01*
X249450000Y-97716666D01*
X249550000Y-97683333D01*
X249616666Y-97616666D01*
X249650000Y-97550000D01*
X249683333Y-97416666D01*
X249683333Y-97316666D01*
X249650000Y-97183333D01*
X249616666Y-97116666D01*
X249550000Y-97050000D01*
X249450000Y-97016666D01*
X249383333Y-97016666D01*
X249283333Y-97050000D01*
X249250000Y-97083333D01*
X248983333Y-97083333D02*
X248950000Y-97050000D01*
X248883333Y-97016666D01*
X248716666Y-97016666D01*
X248650000Y-97050000D01*
X248616666Y-97083333D01*
X248583333Y-97150000D01*
X248583333Y-97216666D01*
X248616666Y-97316666D01*
X249016666Y-97716666D01*
X248583333Y-97716666D01*
X247983333Y-97250000D02*
X247983333Y-97716666D01*
X248150000Y-96983333D02*
X248316666Y-97483333D01*
X247883333Y-97483333D01*
X181750000Y-97150000D02*
X181783333Y-97183333D01*
X181883333Y-97216666D01*
X181950000Y-97216666D01*
X182050000Y-97183333D01*
X182116666Y-97116666D01*
X182150000Y-97050000D01*
X182183333Y-96916666D01*
X182183333Y-96816666D01*
X182150000Y-96683333D01*
X182116666Y-96616666D01*
X182050000Y-96550000D01*
X181950000Y-96516666D01*
X181883333Y-96516666D01*
X181783333Y-96550000D01*
X181750000Y-96583333D01*
X181483333Y-96583333D02*
X181450000Y-96550000D01*
X181383333Y-96516666D01*
X181216666Y-96516666D01*
X181150000Y-96550000D01*
X181116666Y-96583333D01*
X181083333Y-96650000D01*
X181083333Y-96716666D01*
X181116666Y-96816666D01*
X181516666Y-97216666D01*
X181083333Y-97216666D01*
X180850000Y-96516666D02*
X180416666Y-96516666D01*
X180650000Y-96783333D01*
X180550000Y-96783333D01*
X180483333Y-96816666D01*
X180450000Y-96850000D01*
X180416666Y-96916666D01*
X180416666Y-97083333D01*
X180450000Y-97150000D01*
X180483333Y-97183333D01*
X180550000Y-97216666D01*
X180750000Y-97216666D01*
X180816666Y-97183333D01*
X180850000Y-97150000D01*
X255250000Y-97650000D02*
X255283333Y-97683333D01*
X255383333Y-97716666D01*
X255450000Y-97716666D01*
X255550000Y-97683333D01*
X255616666Y-97616666D01*
X255650000Y-97550000D01*
X255683333Y-97416666D01*
X255683333Y-97316666D01*
X255650000Y-97183333D01*
X255616666Y-97116666D01*
X255550000Y-97050000D01*
X255450000Y-97016666D01*
X255383333Y-97016666D01*
X255283333Y-97050000D01*
X255250000Y-97083333D01*
X254983333Y-97083333D02*
X254950000Y-97050000D01*
X254883333Y-97016666D01*
X254716666Y-97016666D01*
X254650000Y-97050000D01*
X254616666Y-97083333D01*
X254583333Y-97150000D01*
X254583333Y-97216666D01*
X254616666Y-97316666D01*
X255016666Y-97716666D01*
X254583333Y-97716666D01*
X253916666Y-97716666D02*
X254316666Y-97716666D01*
X254116666Y-97716666D02*
X254116666Y-97016666D01*
X254183333Y-97116666D01*
X254250000Y-97183333D01*
X254316666Y-97216666D01*
X187750000Y-97150000D02*
X187783333Y-97183333D01*
X187883333Y-97216666D01*
X187950000Y-97216666D01*
X188050000Y-97183333D01*
X188116666Y-97116666D01*
X188150000Y-97050000D01*
X188183333Y-96916666D01*
X188183333Y-96816666D01*
X188150000Y-96683333D01*
X188116666Y-96616666D01*
X188050000Y-96550000D01*
X187950000Y-96516666D01*
X187883333Y-96516666D01*
X187783333Y-96550000D01*
X187750000Y-96583333D01*
X187483333Y-96583333D02*
X187450000Y-96550000D01*
X187383333Y-96516666D01*
X187216666Y-96516666D01*
X187150000Y-96550000D01*
X187116666Y-96583333D01*
X187083333Y-96650000D01*
X187083333Y-96716666D01*
X187116666Y-96816666D01*
X187516666Y-97216666D01*
X187083333Y-97216666D01*
X186650000Y-96516666D02*
X186583333Y-96516666D01*
X186516666Y-96550000D01*
X186483333Y-96583333D01*
X186450000Y-96650000D01*
X186416666Y-96783333D01*
X186416666Y-96950000D01*
X186450000Y-97083333D01*
X186483333Y-97150000D01*
X186516666Y-97183333D01*
X186583333Y-97216666D01*
X186650000Y-97216666D01*
X186716666Y-97183333D01*
X186750000Y-97150000D01*
X186783333Y-97083333D01*
X186816666Y-96950000D01*
X186816666Y-96783333D01*
X186783333Y-96650000D01*
X186750000Y-96583333D01*
X186716666Y-96550000D01*
X186650000Y-96516666D01*
X120250000Y-97150000D02*
X120283333Y-97183333D01*
X120383333Y-97216666D01*
X120450000Y-97216666D01*
X120550000Y-97183333D01*
X120616666Y-97116666D01*
X120650000Y-97050000D01*
X120683333Y-96916666D01*
X120683333Y-96816666D01*
X120650000Y-96683333D01*
X120616666Y-96616666D01*
X120550000Y-96550000D01*
X120450000Y-96516666D01*
X120383333Y-96516666D01*
X120283333Y-96550000D01*
X120250000Y-96583333D01*
X119583333Y-97216666D02*
X119983333Y-97216666D01*
X119783333Y-97216666D02*
X119783333Y-96516666D01*
X119850000Y-96616666D01*
X119916666Y-96683333D01*
X119983333Y-96716666D01*
X119250000Y-97216666D02*
X119116666Y-97216666D01*
X119050000Y-97183333D01*
X119016666Y-97150000D01*
X118950000Y-97050000D01*
X118916666Y-96916666D01*
X118916666Y-96650000D01*
X118950000Y-96583333D01*
X118983333Y-96550000D01*
X119050000Y-96516666D01*
X119183333Y-96516666D01*
X119250000Y-96550000D01*
X119283333Y-96583333D01*
X119316666Y-96650000D01*
X119316666Y-96816666D01*
X119283333Y-96883333D01*
X119250000Y-96916666D01*
X119183333Y-96950000D01*
X119050000Y-96950000D01*
X118983333Y-96916666D01*
X118950000Y-96883333D01*
X118916666Y-96816666D01*
X114250000Y-97150000D02*
X114283333Y-97183333D01*
X114383333Y-97216666D01*
X114450000Y-97216666D01*
X114550000Y-97183333D01*
X114616666Y-97116666D01*
X114650000Y-97050000D01*
X114683333Y-96916666D01*
X114683333Y-96816666D01*
X114650000Y-96683333D01*
X114616666Y-96616666D01*
X114550000Y-96550000D01*
X114450000Y-96516666D01*
X114383333Y-96516666D01*
X114283333Y-96550000D01*
X114250000Y-96583333D01*
X113983333Y-96583333D02*
X113950000Y-96550000D01*
X113883333Y-96516666D01*
X113716666Y-96516666D01*
X113650000Y-96550000D01*
X113616666Y-96583333D01*
X113583333Y-96650000D01*
X113583333Y-96716666D01*
X113616666Y-96816666D01*
X114016666Y-97216666D01*
X113583333Y-97216666D01*
X113316666Y-96583333D02*
X113283333Y-96550000D01*
X113216666Y-96516666D01*
X113050000Y-96516666D01*
X112983333Y-96550000D01*
X112950000Y-96583333D01*
X112916666Y-96650000D01*
X112916666Y-96716666D01*
X112950000Y-96816666D01*
X113350000Y-97216666D01*
X112916666Y-97216666D01*
X57750000Y-84650000D02*
X57783333Y-84683333D01*
X57883333Y-84716666D01*
X57950000Y-84716666D01*
X58050000Y-84683333D01*
X58116666Y-84616666D01*
X58150000Y-84550000D01*
X58183333Y-84416666D01*
X58183333Y-84316666D01*
X58150000Y-84183333D01*
X58116666Y-84116666D01*
X58050000Y-84050000D01*
X57950000Y-84016666D01*
X57883333Y-84016666D01*
X57783333Y-84050000D01*
X57750000Y-84083333D01*
X57150000Y-84250000D02*
X57150000Y-84716666D01*
X57316666Y-83983333D02*
X57483333Y-84483333D01*
X57050000Y-84483333D01*
X56816666Y-84083333D02*
X56783333Y-84050000D01*
X56716666Y-84016666D01*
X56550000Y-84016666D01*
X56483333Y-84050000D01*
X56450000Y-84083333D01*
X56416666Y-84150000D01*
X56416666Y-84216666D01*
X56450000Y-84316666D01*
X56850000Y-84716666D01*
X56416666Y-84716666D01*
X259250000Y-84650000D02*
X259283333Y-84683333D01*
X259383333Y-84716666D01*
X259450000Y-84716666D01*
X259550000Y-84683333D01*
X259616666Y-84616666D01*
X259650000Y-84550000D01*
X259683333Y-84416666D01*
X259683333Y-84316666D01*
X259650000Y-84183333D01*
X259616666Y-84116666D01*
X259550000Y-84050000D01*
X259450000Y-84016666D01*
X259383333Y-84016666D01*
X259283333Y-84050000D01*
X259250000Y-84083333D01*
X258650000Y-84250000D02*
X258650000Y-84716666D01*
X258816666Y-83983333D02*
X258983333Y-84483333D01*
X258550000Y-84483333D01*
X257950000Y-84016666D02*
X258283333Y-84016666D01*
X258316666Y-84350000D01*
X258283333Y-84316666D01*
X258216666Y-84283333D01*
X258050000Y-84283333D01*
X257983333Y-84316666D01*
X257950000Y-84350000D01*
X257916666Y-84416666D01*
X257916666Y-84583333D01*
X257950000Y-84650000D01*
X257983333Y-84683333D01*
X258050000Y-84716666D01*
X258216666Y-84716666D01*
X258283333Y-84683333D01*
X258316666Y-84650000D01*
X193250000Y-84650000D02*
X193283333Y-84683333D01*
X193383333Y-84716666D01*
X193450000Y-84716666D01*
X193550000Y-84683333D01*
X193616666Y-84616666D01*
X193650000Y-84550000D01*
X193683333Y-84416666D01*
X193683333Y-84316666D01*
X193650000Y-84183333D01*
X193616666Y-84116666D01*
X193550000Y-84050000D01*
X193450000Y-84016666D01*
X193383333Y-84016666D01*
X193283333Y-84050000D01*
X193250000Y-84083333D01*
X192650000Y-84250000D02*
X192650000Y-84716666D01*
X192816666Y-83983333D02*
X192983333Y-84483333D01*
X192550000Y-84483333D01*
X192183333Y-84316666D02*
X192250000Y-84283333D01*
X192283333Y-84250000D01*
X192316666Y-84183333D01*
X192316666Y-84150000D01*
X192283333Y-84083333D01*
X192250000Y-84050000D01*
X192183333Y-84016666D01*
X192050000Y-84016666D01*
X191983333Y-84050000D01*
X191950000Y-84083333D01*
X191916666Y-84150000D01*
X191916666Y-84183333D01*
X191950000Y-84250000D01*
X191983333Y-84283333D01*
X192050000Y-84316666D01*
X192183333Y-84316666D01*
X192250000Y-84350000D01*
X192283333Y-84383333D01*
X192316666Y-84450000D01*
X192316666Y-84583333D01*
X192283333Y-84650000D01*
X192250000Y-84683333D01*
X192183333Y-84716666D01*
X192050000Y-84716666D01*
X191983333Y-84683333D01*
X191950000Y-84650000D01*
X191916666Y-84583333D01*
X191916666Y-84450000D01*
X191950000Y-84383333D01*
X191983333Y-84350000D01*
X192050000Y-84316666D01*
X160500000Y-123400000D02*
X160533333Y-123433333D01*
X160633333Y-123466666D01*
X160700000Y-123466666D01*
X160800000Y-123433333D01*
X160866666Y-123366666D01*
X160900000Y-123300000D01*
X160933333Y-123166666D01*
X160933333Y-123066666D01*
X160900000Y-122933333D01*
X160866666Y-122866666D01*
X160800000Y-122800000D01*
X160700000Y-122766666D01*
X160633333Y-122766666D01*
X160533333Y-122800000D01*
X160500000Y-122833333D01*
X159900000Y-122766666D02*
X160033333Y-122766666D01*
X160100000Y-122800000D01*
X160133333Y-122833333D01*
X160200000Y-122933333D01*
X160233333Y-123066666D01*
X160233333Y-123333333D01*
X160200000Y-123400000D01*
X160166666Y-123433333D01*
X160100000Y-123466666D01*
X159966666Y-123466666D01*
X159900000Y-123433333D01*
X159866666Y-123400000D01*
X159833333Y-123333333D01*
X159833333Y-123166666D01*
X159866666Y-123100000D01*
X159900000Y-123066666D01*
X159966666Y-123033333D01*
X160100000Y-123033333D01*
X160166666Y-123066666D01*
X160200000Y-123100000D01*
X160233333Y-123166666D01*
X159566666Y-122833333D02*
X159533333Y-122800000D01*
X159466666Y-122766666D01*
X159300000Y-122766666D01*
X159233333Y-122800000D01*
X159200000Y-122833333D01*
X159166666Y-122900000D01*
X159166666Y-122966666D01*
X159200000Y-123066666D01*
X159600000Y-123466666D01*
X159166666Y-123466666D01*
X171750000Y-124150000D02*
X171783333Y-124183333D01*
X171883333Y-124216666D01*
X171950000Y-124216666D01*
X172050000Y-124183333D01*
X172116666Y-124116666D01*
X172150000Y-124050000D01*
X172183333Y-123916666D01*
X172183333Y-123816666D01*
X172150000Y-123683333D01*
X172116666Y-123616666D01*
X172050000Y-123550000D01*
X171950000Y-123516666D01*
X171883333Y-123516666D01*
X171783333Y-123550000D01*
X171750000Y-123583333D01*
X171150000Y-123516666D02*
X171283333Y-123516666D01*
X171350000Y-123550000D01*
X171383333Y-123583333D01*
X171450000Y-123683333D01*
X171483333Y-123816666D01*
X171483333Y-124083333D01*
X171450000Y-124150000D01*
X171416666Y-124183333D01*
X171350000Y-124216666D01*
X171216666Y-124216666D01*
X171150000Y-124183333D01*
X171116666Y-124150000D01*
X171083333Y-124083333D01*
X171083333Y-123916666D01*
X171116666Y-123850000D01*
X171150000Y-123816666D01*
X171216666Y-123783333D01*
X171350000Y-123783333D01*
X171416666Y-123816666D01*
X171450000Y-123850000D01*
X171483333Y-123916666D01*
X170483333Y-123750000D02*
X170483333Y-124216666D01*
X170650000Y-123483333D02*
X170816666Y-123983333D01*
X170383333Y-123983333D01*
X166250000Y-125150000D02*
X166283333Y-125183333D01*
X166383333Y-125216666D01*
X166450000Y-125216666D01*
X166550000Y-125183333D01*
X166616666Y-125116666D01*
X166650000Y-125050000D01*
X166683333Y-124916666D01*
X166683333Y-124816666D01*
X166650000Y-124683333D01*
X166616666Y-124616666D01*
X166550000Y-124550000D01*
X166450000Y-124516666D01*
X166383333Y-124516666D01*
X166283333Y-124550000D01*
X166250000Y-124583333D01*
X165650000Y-124516666D02*
X165783333Y-124516666D01*
X165850000Y-124550000D01*
X165883333Y-124583333D01*
X165950000Y-124683333D01*
X165983333Y-124816666D01*
X165983333Y-125083333D01*
X165950000Y-125150000D01*
X165916666Y-125183333D01*
X165850000Y-125216666D01*
X165716666Y-125216666D01*
X165650000Y-125183333D01*
X165616666Y-125150000D01*
X165583333Y-125083333D01*
X165583333Y-124916666D01*
X165616666Y-124850000D01*
X165650000Y-124816666D01*
X165716666Y-124783333D01*
X165850000Y-124783333D01*
X165916666Y-124816666D01*
X165950000Y-124850000D01*
X165983333Y-124916666D01*
X165183333Y-124816666D02*
X165250000Y-124783333D01*
X165283333Y-124750000D01*
X165316666Y-124683333D01*
X165316666Y-124650000D01*
X165283333Y-124583333D01*
X165250000Y-124550000D01*
X165183333Y-124516666D01*
X165050000Y-124516666D01*
X164983333Y-124550000D01*
X164950000Y-124583333D01*
X164916666Y-124650000D01*
X164916666Y-124683333D01*
X164950000Y-124750000D01*
X164983333Y-124783333D01*
X165050000Y-124816666D01*
X165183333Y-124816666D01*
X165250000Y-124850000D01*
X165283333Y-124883333D01*
X165316666Y-124950000D01*
X165316666Y-125083333D01*
X165283333Y-125150000D01*
X165250000Y-125183333D01*
X165183333Y-125216666D01*
X165050000Y-125216666D01*
X164983333Y-125183333D01*
X164950000Y-125150000D01*
X164916666Y-125083333D01*
X164916666Y-124950000D01*
X164950000Y-124883333D01*
X164983333Y-124850000D01*
X165050000Y-124816666D01*
X160500000Y-126900000D02*
X160533333Y-126933333D01*
X160633333Y-126966666D01*
X160700000Y-126966666D01*
X160800000Y-126933333D01*
X160866666Y-126866666D01*
X160900000Y-126800000D01*
X160933333Y-126666666D01*
X160933333Y-126566666D01*
X160900000Y-126433333D01*
X160866666Y-126366666D01*
X160800000Y-126300000D01*
X160700000Y-126266666D01*
X160633333Y-126266666D01*
X160533333Y-126300000D01*
X160500000Y-126333333D01*
X160266666Y-126266666D02*
X159800000Y-126266666D01*
X160100000Y-126966666D01*
X159400000Y-126266666D02*
X159333333Y-126266666D01*
X159266666Y-126300000D01*
X159233333Y-126333333D01*
X159200000Y-126400000D01*
X159166666Y-126533333D01*
X159166666Y-126700000D01*
X159200000Y-126833333D01*
X159233333Y-126900000D01*
X159266666Y-126933333D01*
X159333333Y-126966666D01*
X159400000Y-126966666D01*
X159466666Y-126933333D01*
X159500000Y-126900000D01*
X159533333Y-126833333D01*
X159566666Y-126700000D01*
X159566666Y-126533333D01*
X159533333Y-126400000D01*
X159500000Y-126333333D01*
X159466666Y-126300000D01*
X159400000Y-126266666D01*
X170500000Y-122650000D02*
X170533333Y-122683333D01*
X170633333Y-122716666D01*
X170700000Y-122716666D01*
X170800000Y-122683333D01*
X170866666Y-122616666D01*
X170900000Y-122550000D01*
X170933333Y-122416666D01*
X170933333Y-122316666D01*
X170900000Y-122183333D01*
X170866666Y-122116666D01*
X170800000Y-122050000D01*
X170700000Y-122016666D01*
X170633333Y-122016666D01*
X170533333Y-122050000D01*
X170500000Y-122083333D01*
X170266666Y-122016666D02*
X169800000Y-122016666D01*
X170100000Y-122716666D01*
X169566666Y-122083333D02*
X169533333Y-122050000D01*
X169466666Y-122016666D01*
X169300000Y-122016666D01*
X169233333Y-122050000D01*
X169200000Y-122083333D01*
X169166666Y-122150000D01*
X169166666Y-122216666D01*
X169200000Y-122316666D01*
X169600000Y-122716666D01*
X169166666Y-122716666D01*
X173450000Y-115350000D02*
X173483333Y-115316666D01*
X173516666Y-115216666D01*
X173516666Y-115150000D01*
X173483333Y-115050000D01*
X173416666Y-114983333D01*
X173350000Y-114950000D01*
X173216666Y-114916666D01*
X173116666Y-114916666D01*
X172983333Y-114950000D01*
X172916666Y-114983333D01*
X172850000Y-115050000D01*
X172816666Y-115150000D01*
X172816666Y-115216666D01*
X172850000Y-115316666D01*
X172883333Y-115350000D01*
X172816666Y-115583333D02*
X172816666Y-116050000D01*
X173516666Y-115750000D01*
X172816666Y-116250000D02*
X172816666Y-116683333D01*
X173083333Y-116450000D01*
X173083333Y-116550000D01*
X173116666Y-116616666D01*
X173150000Y-116650000D01*
X173216666Y-116683333D01*
X173383333Y-116683333D01*
X173450000Y-116650000D01*
X173483333Y-116616666D01*
X173516666Y-116550000D01*
X173516666Y-116350000D01*
X173483333Y-116283333D01*
X173450000Y-116250000D01*
X176800000Y-116700000D02*
X176833333Y-116666666D01*
X176866666Y-116566666D01*
X176866666Y-116500000D01*
X176833333Y-116400000D01*
X176766666Y-116333333D01*
X176700000Y-116300000D01*
X176566666Y-116266666D01*
X176466666Y-116266666D01*
X176333333Y-116300000D01*
X176266666Y-116333333D01*
X176200000Y-116400000D01*
X176166666Y-116500000D01*
X176166666Y-116566666D01*
X176200000Y-116666666D01*
X176233333Y-116700000D01*
X176166666Y-116933333D02*
X176166666Y-117400000D01*
X176866666Y-117100000D01*
X176400000Y-117966666D02*
X176866666Y-117966666D01*
X176133333Y-117800000D02*
X176633333Y-117633333D01*
X176633333Y-118066666D01*
X160500000Y-125150000D02*
X160533333Y-125183333D01*
X160633333Y-125216666D01*
X160700000Y-125216666D01*
X160800000Y-125183333D01*
X160866666Y-125116666D01*
X160900000Y-125050000D01*
X160933333Y-124916666D01*
X160933333Y-124816666D01*
X160900000Y-124683333D01*
X160866666Y-124616666D01*
X160800000Y-124550000D01*
X160700000Y-124516666D01*
X160633333Y-124516666D01*
X160533333Y-124550000D01*
X160500000Y-124583333D01*
X160266666Y-124516666D02*
X159800000Y-124516666D01*
X160100000Y-125216666D01*
X159500000Y-125216666D02*
X159366666Y-125216666D01*
X159300000Y-125183333D01*
X159266666Y-125150000D01*
X159200000Y-125050000D01*
X159166666Y-124916666D01*
X159166666Y-124650000D01*
X159200000Y-124583333D01*
X159233333Y-124550000D01*
X159300000Y-124516666D01*
X159433333Y-124516666D01*
X159500000Y-124550000D01*
X159533333Y-124583333D01*
X159566666Y-124650000D01*
X159566666Y-124816666D01*
X159533333Y-124883333D01*
X159500000Y-124916666D01*
X159433333Y-124950000D01*
X159300000Y-124950000D01*
X159233333Y-124916666D01*
X159200000Y-124883333D01*
X159166666Y-124816666D01*
X166250000Y-126900000D02*
X166283333Y-126933333D01*
X166383333Y-126966666D01*
X166450000Y-126966666D01*
X166550000Y-126933333D01*
X166616666Y-126866666D01*
X166650000Y-126800000D01*
X166683333Y-126666666D01*
X166683333Y-126566666D01*
X166650000Y-126433333D01*
X166616666Y-126366666D01*
X166550000Y-126300000D01*
X166450000Y-126266666D01*
X166383333Y-126266666D01*
X166283333Y-126300000D01*
X166250000Y-126333333D01*
X165850000Y-126566666D02*
X165916666Y-126533333D01*
X165950000Y-126500000D01*
X165983333Y-126433333D01*
X165983333Y-126400000D01*
X165950000Y-126333333D01*
X165916666Y-126300000D01*
X165850000Y-126266666D01*
X165716666Y-126266666D01*
X165650000Y-126300000D01*
X165616666Y-126333333D01*
X165583333Y-126400000D01*
X165583333Y-126433333D01*
X165616666Y-126500000D01*
X165650000Y-126533333D01*
X165716666Y-126566666D01*
X165850000Y-126566666D01*
X165916666Y-126600000D01*
X165950000Y-126633333D01*
X165983333Y-126700000D01*
X165983333Y-126833333D01*
X165950000Y-126900000D01*
X165916666Y-126933333D01*
X165850000Y-126966666D01*
X165716666Y-126966666D01*
X165650000Y-126933333D01*
X165616666Y-126900000D01*
X165583333Y-126833333D01*
X165583333Y-126700000D01*
X165616666Y-126633333D01*
X165650000Y-126600000D01*
X165716666Y-126566666D01*
X165150000Y-126266666D02*
X165083333Y-126266666D01*
X165016666Y-126300000D01*
X164983333Y-126333333D01*
X164950000Y-126400000D01*
X164916666Y-126533333D01*
X164916666Y-126700000D01*
X164950000Y-126833333D01*
X164983333Y-126900000D01*
X165016666Y-126933333D01*
X165083333Y-126966666D01*
X165150000Y-126966666D01*
X165216666Y-126933333D01*
X165250000Y-126900000D01*
X165283333Y-126833333D01*
X165316666Y-126700000D01*
X165316666Y-126533333D01*
X165283333Y-126400000D01*
X165250000Y-126333333D01*
X165216666Y-126300000D01*
X165150000Y-126266666D01*
X82633333Y-122350000D02*
X82866666Y-122350000D01*
X82866666Y-122716666D02*
X82866666Y-122016666D01*
X82533333Y-122016666D01*
X82033333Y-122350000D02*
X81933333Y-122383333D01*
X81900000Y-122416666D01*
X81866666Y-122483333D01*
X81866666Y-122583333D01*
X81900000Y-122650000D01*
X81933333Y-122683333D01*
X82000000Y-122716666D01*
X82266666Y-122716666D01*
X82266666Y-122016666D01*
X82033333Y-122016666D01*
X81966666Y-122050000D01*
X81933333Y-122083333D01*
X81900000Y-122150000D01*
X81900000Y-122216666D01*
X81933333Y-122283333D01*
X81966666Y-122316666D01*
X82033333Y-122350000D01*
X82266666Y-122350000D01*
X81466666Y-122316666D02*
X81533333Y-122283333D01*
X81566666Y-122250000D01*
X81600000Y-122183333D01*
X81600000Y-122150000D01*
X81566666Y-122083333D01*
X81533333Y-122050000D01*
X81466666Y-122016666D01*
X81333333Y-122016666D01*
X81266666Y-122050000D01*
X81233333Y-122083333D01*
X81200000Y-122150000D01*
X81200000Y-122183333D01*
X81233333Y-122250000D01*
X81266666Y-122283333D01*
X81333333Y-122316666D01*
X81466666Y-122316666D01*
X81533333Y-122350000D01*
X81566666Y-122383333D01*
X81600000Y-122450000D01*
X81600000Y-122583333D01*
X81566666Y-122650000D01*
X81533333Y-122683333D01*
X81466666Y-122716666D01*
X81333333Y-122716666D01*
X81266666Y-122683333D01*
X81233333Y-122650000D01*
X81200000Y-122583333D01*
X81200000Y-122450000D01*
X81233333Y-122383333D01*
X81266666Y-122350000D01*
X81333333Y-122316666D01*
X124750000Y-111216666D02*
X124983333Y-110883333D01*
X125150000Y-111216666D02*
X125150000Y-110516666D01*
X124883333Y-110516666D01*
X124816666Y-110550000D01*
X124783333Y-110583333D01*
X124750000Y-110650000D01*
X124750000Y-110750000D01*
X124783333Y-110816666D01*
X124816666Y-110850000D01*
X124883333Y-110883333D01*
X125150000Y-110883333D01*
X124083333Y-111216666D02*
X124483333Y-111216666D01*
X124283333Y-111216666D02*
X124283333Y-110516666D01*
X124350000Y-110616666D01*
X124416666Y-110683333D01*
X124483333Y-110716666D01*
X123650000Y-110516666D02*
X123583333Y-110516666D01*
X123516666Y-110550000D01*
X123483333Y-110583333D01*
X123450000Y-110650000D01*
X123416666Y-110783333D01*
X123416666Y-110950000D01*
X123450000Y-111083333D01*
X123483333Y-111150000D01*
X123516666Y-111183333D01*
X123583333Y-111216666D01*
X123650000Y-111216666D01*
X123716666Y-111183333D01*
X123750000Y-111150000D01*
X123783333Y-111083333D01*
X123816666Y-110950000D01*
X123816666Y-110783333D01*
X123783333Y-110650000D01*
X123750000Y-110583333D01*
X123716666Y-110550000D01*
X123650000Y-110516666D01*
X100750000Y-74966666D02*
X100983333Y-74633333D01*
X101150000Y-74966666D02*
X101150000Y-74266666D01*
X100883333Y-74266666D01*
X100816666Y-74300000D01*
X100783333Y-74333333D01*
X100750000Y-74400000D01*
X100750000Y-74500000D01*
X100783333Y-74566666D01*
X100816666Y-74600000D01*
X100883333Y-74633333D01*
X101150000Y-74633333D01*
X100483333Y-74333333D02*
X100450000Y-74300000D01*
X100383333Y-74266666D01*
X100216666Y-74266666D01*
X100150000Y-74300000D01*
X100116666Y-74333333D01*
X100083333Y-74400000D01*
X100083333Y-74466666D01*
X100116666Y-74566666D01*
X100516666Y-74966666D01*
X100083333Y-74966666D01*
X99450000Y-74266666D02*
X99783333Y-74266666D01*
X99816666Y-74600000D01*
X99783333Y-74566666D01*
X99716666Y-74533333D01*
X99550000Y-74533333D01*
X99483333Y-74566666D01*
X99450000Y-74600000D01*
X99416666Y-74666666D01*
X99416666Y-74833333D01*
X99450000Y-74900000D01*
X99483333Y-74933333D01*
X99550000Y-74966666D01*
X99716666Y-74966666D01*
X99783333Y-74933333D01*
X99816666Y-74900000D01*
X127250000Y-74966666D02*
X127483333Y-74633333D01*
X127650000Y-74966666D02*
X127650000Y-74266666D01*
X127383333Y-74266666D01*
X127316666Y-74300000D01*
X127283333Y-74333333D01*
X127250000Y-74400000D01*
X127250000Y-74500000D01*
X127283333Y-74566666D01*
X127316666Y-74600000D01*
X127383333Y-74633333D01*
X127650000Y-74633333D01*
X126983333Y-74333333D02*
X126950000Y-74300000D01*
X126883333Y-74266666D01*
X126716666Y-74266666D01*
X126650000Y-74300000D01*
X126616666Y-74333333D01*
X126583333Y-74400000D01*
X126583333Y-74466666D01*
X126616666Y-74566666D01*
X127016666Y-74966666D01*
X126583333Y-74966666D01*
X125983333Y-74266666D02*
X126116666Y-74266666D01*
X126183333Y-74300000D01*
X126216666Y-74333333D01*
X126283333Y-74433333D01*
X126316666Y-74566666D01*
X126316666Y-74833333D01*
X126283333Y-74900000D01*
X126250000Y-74933333D01*
X126183333Y-74966666D01*
X126050000Y-74966666D01*
X125983333Y-74933333D01*
X125950000Y-74900000D01*
X125916666Y-74833333D01*
X125916666Y-74666666D01*
X125950000Y-74600000D01*
X125983333Y-74566666D01*
X126050000Y-74533333D01*
X126183333Y-74533333D01*
X126250000Y-74566666D01*
X126283333Y-74600000D01*
X126316666Y-74666666D01*
X194750000Y-74966666D02*
X194983333Y-74633333D01*
X195150000Y-74966666D02*
X195150000Y-74266666D01*
X194883333Y-74266666D01*
X194816666Y-74300000D01*
X194783333Y-74333333D01*
X194750000Y-74400000D01*
X194750000Y-74500000D01*
X194783333Y-74566666D01*
X194816666Y-74600000D01*
X194883333Y-74633333D01*
X195150000Y-74633333D01*
X194483333Y-74333333D02*
X194450000Y-74300000D01*
X194383333Y-74266666D01*
X194216666Y-74266666D01*
X194150000Y-74300000D01*
X194116666Y-74333333D01*
X194083333Y-74400000D01*
X194083333Y-74466666D01*
X194116666Y-74566666D01*
X194516666Y-74966666D01*
X194083333Y-74966666D01*
X193850000Y-74266666D02*
X193383333Y-74266666D01*
X193683333Y-74966666D01*
X90750000Y-74966666D02*
X90983333Y-74633333D01*
X91150000Y-74966666D02*
X91150000Y-74266666D01*
X90883333Y-74266666D01*
X90816666Y-74300000D01*
X90783333Y-74333333D01*
X90750000Y-74400000D01*
X90750000Y-74500000D01*
X90783333Y-74566666D01*
X90816666Y-74600000D01*
X90883333Y-74633333D01*
X91150000Y-74633333D01*
X90516666Y-74266666D02*
X90083333Y-74266666D01*
X90316666Y-74533333D01*
X90216666Y-74533333D01*
X90150000Y-74566666D01*
X90116666Y-74600000D01*
X90083333Y-74666666D01*
X90083333Y-74833333D01*
X90116666Y-74900000D01*
X90150000Y-74933333D01*
X90216666Y-74966666D01*
X90416666Y-74966666D01*
X90483333Y-74933333D01*
X90516666Y-74900000D01*
X89483333Y-74500000D02*
X89483333Y-74966666D01*
X89650000Y-74233333D02*
X89816666Y-74733333D01*
X89383333Y-74733333D01*
X137750000Y-74966666D02*
X137983333Y-74633333D01*
X138150000Y-74966666D02*
X138150000Y-74266666D01*
X137883333Y-74266666D01*
X137816666Y-74300000D01*
X137783333Y-74333333D01*
X137750000Y-74400000D01*
X137750000Y-74500000D01*
X137783333Y-74566666D01*
X137816666Y-74600000D01*
X137883333Y-74633333D01*
X138150000Y-74633333D01*
X137516666Y-74266666D02*
X137083333Y-74266666D01*
X137316666Y-74533333D01*
X137216666Y-74533333D01*
X137150000Y-74566666D01*
X137116666Y-74600000D01*
X137083333Y-74666666D01*
X137083333Y-74833333D01*
X137116666Y-74900000D01*
X137150000Y-74933333D01*
X137216666Y-74966666D01*
X137416666Y-74966666D01*
X137483333Y-74933333D01*
X137516666Y-74900000D01*
X136483333Y-74266666D02*
X136616666Y-74266666D01*
X136683333Y-74300000D01*
X136716666Y-74333333D01*
X136783333Y-74433333D01*
X136816666Y-74566666D01*
X136816666Y-74833333D01*
X136783333Y-74900000D01*
X136750000Y-74933333D01*
X136683333Y-74966666D01*
X136550000Y-74966666D01*
X136483333Y-74933333D01*
X136450000Y-74900000D01*
X136416666Y-74833333D01*
X136416666Y-74666666D01*
X136450000Y-74600000D01*
X136483333Y-74566666D01*
X136550000Y-74533333D01*
X136683333Y-74533333D01*
X136750000Y-74566666D01*
X136783333Y-74600000D01*
X136816666Y-74666666D01*
X205250000Y-74966666D02*
X205483333Y-74633333D01*
X205650000Y-74966666D02*
X205650000Y-74266666D01*
X205383333Y-74266666D01*
X205316666Y-74300000D01*
X205283333Y-74333333D01*
X205250000Y-74400000D01*
X205250000Y-74500000D01*
X205283333Y-74566666D01*
X205316666Y-74600000D01*
X205383333Y-74633333D01*
X205650000Y-74633333D01*
X205016666Y-74266666D02*
X204583333Y-74266666D01*
X204816666Y-74533333D01*
X204716666Y-74533333D01*
X204650000Y-74566666D01*
X204616666Y-74600000D01*
X204583333Y-74666666D01*
X204583333Y-74833333D01*
X204616666Y-74900000D01*
X204650000Y-74933333D01*
X204716666Y-74966666D01*
X204916666Y-74966666D01*
X204983333Y-74933333D01*
X205016666Y-74900000D01*
X204183333Y-74566666D02*
X204250000Y-74533333D01*
X204283333Y-74500000D01*
X204316666Y-74433333D01*
X204316666Y-74400000D01*
X204283333Y-74333333D01*
X204250000Y-74300000D01*
X204183333Y-74266666D01*
X204050000Y-74266666D01*
X203983333Y-74300000D01*
X203950000Y-74333333D01*
X203916666Y-74400000D01*
X203916666Y-74433333D01*
X203950000Y-74500000D01*
X203983333Y-74533333D01*
X204050000Y-74566666D01*
X204183333Y-74566666D01*
X204250000Y-74600000D01*
X204283333Y-74633333D01*
X204316666Y-74700000D01*
X204316666Y-74833333D01*
X204283333Y-74900000D01*
X204250000Y-74933333D01*
X204183333Y-74966666D01*
X204050000Y-74966666D01*
X203983333Y-74933333D01*
X203950000Y-74900000D01*
X203916666Y-74833333D01*
X203916666Y-74700000D01*
X203950000Y-74633333D01*
X203983333Y-74600000D01*
X204050000Y-74566666D01*
X70250000Y-74966666D02*
X70483333Y-74633333D01*
X70650000Y-74966666D02*
X70650000Y-74266666D01*
X70383333Y-74266666D01*
X70316666Y-74300000D01*
X70283333Y-74333333D01*
X70250000Y-74400000D01*
X70250000Y-74500000D01*
X70283333Y-74566666D01*
X70316666Y-74600000D01*
X70383333Y-74633333D01*
X70650000Y-74633333D01*
X69650000Y-74500000D02*
X69650000Y-74966666D01*
X69816666Y-74233333D02*
X69983333Y-74733333D01*
X69550000Y-74733333D01*
X69150000Y-74266666D02*
X69083333Y-74266666D01*
X69016666Y-74300000D01*
X68983333Y-74333333D01*
X68950000Y-74400000D01*
X68916666Y-74533333D01*
X68916666Y-74700000D01*
X68950000Y-74833333D01*
X68983333Y-74900000D01*
X69016666Y-74933333D01*
X69083333Y-74966666D01*
X69150000Y-74966666D01*
X69216666Y-74933333D01*
X69250000Y-74900000D01*
X69283333Y-74833333D01*
X69316666Y-74700000D01*
X69316666Y-74533333D01*
X69283333Y-74400000D01*
X69250000Y-74333333D01*
X69216666Y-74300000D01*
X69150000Y-74266666D01*
X158250000Y-74966666D02*
X158483333Y-74633333D01*
X158650000Y-74966666D02*
X158650000Y-74266666D01*
X158383333Y-74266666D01*
X158316666Y-74300000D01*
X158283333Y-74333333D01*
X158250000Y-74400000D01*
X158250000Y-74500000D01*
X158283333Y-74566666D01*
X158316666Y-74600000D01*
X158383333Y-74633333D01*
X158650000Y-74633333D01*
X157650000Y-74500000D02*
X157650000Y-74966666D01*
X157816666Y-74233333D02*
X157983333Y-74733333D01*
X157550000Y-74733333D01*
X157316666Y-74333333D02*
X157283333Y-74300000D01*
X157216666Y-74266666D01*
X157050000Y-74266666D01*
X156983333Y-74300000D01*
X156950000Y-74333333D01*
X156916666Y-74400000D01*
X156916666Y-74466666D01*
X156950000Y-74566666D01*
X157350000Y-74966666D01*
X156916666Y-74966666D01*
X225750000Y-74966666D02*
X225983333Y-74633333D01*
X226150000Y-74966666D02*
X226150000Y-74266666D01*
X225883333Y-74266666D01*
X225816666Y-74300000D01*
X225783333Y-74333333D01*
X225750000Y-74400000D01*
X225750000Y-74500000D01*
X225783333Y-74566666D01*
X225816666Y-74600000D01*
X225883333Y-74633333D01*
X226150000Y-74633333D01*
X225150000Y-74500000D02*
X225150000Y-74966666D01*
X225316666Y-74233333D02*
X225483333Y-74733333D01*
X225050000Y-74733333D01*
X224483333Y-74500000D02*
X224483333Y-74966666D01*
X224650000Y-74233333D02*
X224816666Y-74733333D01*
X224383333Y-74733333D01*
X59750000Y-74966666D02*
X59983333Y-74633333D01*
X60150000Y-74966666D02*
X60150000Y-74266666D01*
X59883333Y-74266666D01*
X59816666Y-74300000D01*
X59783333Y-74333333D01*
X59750000Y-74400000D01*
X59750000Y-74500000D01*
X59783333Y-74566666D01*
X59816666Y-74600000D01*
X59883333Y-74633333D01*
X60150000Y-74633333D01*
X59150000Y-74500000D02*
X59150000Y-74966666D01*
X59316666Y-74233333D02*
X59483333Y-74733333D01*
X59050000Y-74733333D01*
X58483333Y-74266666D02*
X58616666Y-74266666D01*
X58683333Y-74300000D01*
X58716666Y-74333333D01*
X58783333Y-74433333D01*
X58816666Y-74566666D01*
X58816666Y-74833333D01*
X58783333Y-74900000D01*
X58750000Y-74933333D01*
X58683333Y-74966666D01*
X58550000Y-74966666D01*
X58483333Y-74933333D01*
X58450000Y-74900000D01*
X58416666Y-74833333D01*
X58416666Y-74666666D01*
X58450000Y-74600000D01*
X58483333Y-74566666D01*
X58550000Y-74533333D01*
X58683333Y-74533333D01*
X58750000Y-74566666D01*
X58783333Y-74600000D01*
X58816666Y-74666666D01*
X168000000Y-74966666D02*
X168233333Y-74633333D01*
X168400000Y-74966666D02*
X168400000Y-74266666D01*
X168133333Y-74266666D01*
X168066666Y-74300000D01*
X168033333Y-74333333D01*
X168000000Y-74400000D01*
X168000000Y-74500000D01*
X168033333Y-74566666D01*
X168066666Y-74600000D01*
X168133333Y-74633333D01*
X168400000Y-74633333D01*
X167400000Y-74500000D02*
X167400000Y-74966666D01*
X167566666Y-74233333D02*
X167733333Y-74733333D01*
X167300000Y-74733333D01*
X166933333Y-74566666D02*
X167000000Y-74533333D01*
X167033333Y-74500000D01*
X167066666Y-74433333D01*
X167066666Y-74400000D01*
X167033333Y-74333333D01*
X167000000Y-74300000D01*
X166933333Y-74266666D01*
X166800000Y-74266666D01*
X166733333Y-74300000D01*
X166700000Y-74333333D01*
X166666666Y-74400000D01*
X166666666Y-74433333D01*
X166700000Y-74500000D01*
X166733333Y-74533333D01*
X166800000Y-74566666D01*
X166933333Y-74566666D01*
X167000000Y-74600000D01*
X167033333Y-74633333D01*
X167066666Y-74700000D01*
X167066666Y-74833333D01*
X167033333Y-74900000D01*
X167000000Y-74933333D01*
X166933333Y-74966666D01*
X166800000Y-74966666D01*
X166733333Y-74933333D01*
X166700000Y-74900000D01*
X166666666Y-74833333D01*
X166666666Y-74700000D01*
X166700000Y-74633333D01*
X166733333Y-74600000D01*
X166800000Y-74566666D01*
X235500000Y-74966666D02*
X235733333Y-74633333D01*
X235900000Y-74966666D02*
X235900000Y-74266666D01*
X235633333Y-74266666D01*
X235566666Y-74300000D01*
X235533333Y-74333333D01*
X235500000Y-74400000D01*
X235500000Y-74500000D01*
X235533333Y-74566666D01*
X235566666Y-74600000D01*
X235633333Y-74633333D01*
X235900000Y-74633333D01*
X234866666Y-74266666D02*
X235200000Y-74266666D01*
X235233333Y-74600000D01*
X235200000Y-74566666D01*
X235133333Y-74533333D01*
X234966666Y-74533333D01*
X234900000Y-74566666D01*
X234866666Y-74600000D01*
X234833333Y-74666666D01*
X234833333Y-74833333D01*
X234866666Y-74900000D01*
X234900000Y-74933333D01*
X234966666Y-74966666D01*
X235133333Y-74966666D01*
X235200000Y-74933333D01*
X235233333Y-74900000D01*
X234400000Y-74266666D02*
X234333333Y-74266666D01*
X234266666Y-74300000D01*
X234233333Y-74333333D01*
X234200000Y-74400000D01*
X234166666Y-74533333D01*
X234166666Y-74700000D01*
X234200000Y-74833333D01*
X234233333Y-74900000D01*
X234266666Y-74933333D01*
X234333333Y-74966666D01*
X234400000Y-74966666D01*
X234466666Y-74933333D01*
X234500000Y-74900000D01*
X234533333Y-74833333D01*
X234566666Y-74700000D01*
X234566666Y-74533333D01*
X234533333Y-74400000D01*
X234500000Y-74333333D01*
X234466666Y-74300000D01*
X234400000Y-74266666D01*
X175116666Y-116700000D02*
X174783333Y-116466666D01*
X175116666Y-116300000D02*
X174416666Y-116300000D01*
X174416666Y-116566666D01*
X174450000Y-116633333D01*
X174483333Y-116666666D01*
X174550000Y-116700000D01*
X174650000Y-116700000D01*
X174716666Y-116666666D01*
X174750000Y-116633333D01*
X174783333Y-116566666D01*
X174783333Y-116300000D01*
X174416666Y-117300000D02*
X174416666Y-117166666D01*
X174450000Y-117100000D01*
X174483333Y-117066666D01*
X174583333Y-117000000D01*
X174716666Y-116966666D01*
X174983333Y-116966666D01*
X175050000Y-117000000D01*
X175083333Y-117033333D01*
X175116666Y-117100000D01*
X175116666Y-117233333D01*
X175083333Y-117300000D01*
X175050000Y-117333333D01*
X174983333Y-117366666D01*
X174816666Y-117366666D01*
X174750000Y-117333333D01*
X174716666Y-117300000D01*
X174683333Y-117233333D01*
X174683333Y-117100000D01*
X174716666Y-117033333D01*
X174750000Y-117000000D01*
X174816666Y-116966666D01*
X175116666Y-117700000D02*
X175116666Y-117833333D01*
X175083333Y-117900000D01*
X175050000Y-117933333D01*
X174950000Y-118000000D01*
X174816666Y-118033333D01*
X174550000Y-118033333D01*
X174483333Y-118000000D01*
X174450000Y-117966666D01*
X174416666Y-117900000D01*
X174416666Y-117766666D01*
X174450000Y-117700000D01*
X174483333Y-117666666D01*
X174550000Y-117633333D01*
X174716666Y-117633333D01*
X174783333Y-117666666D01*
X174816666Y-117700000D01*
X174850000Y-117766666D01*
X174850000Y-117900000D01*
X174816666Y-117966666D01*
X174783333Y-118000000D01*
X174716666Y-118033333D01*
X125500000Y-84650000D02*
X125533333Y-84683333D01*
X125633333Y-84716666D01*
X125700000Y-84716666D01*
X125800000Y-84683333D01*
X125866666Y-84616666D01*
X125900000Y-84550000D01*
X125933333Y-84416666D01*
X125933333Y-84316666D01*
X125900000Y-84183333D01*
X125866666Y-84116666D01*
X125800000Y-84050000D01*
X125700000Y-84016666D01*
X125633333Y-84016666D01*
X125533333Y-84050000D01*
X125500000Y-84083333D01*
X124866666Y-84016666D02*
X125200000Y-84016666D01*
X125233333Y-84350000D01*
X125200000Y-84316666D01*
X125133333Y-84283333D01*
X124966666Y-84283333D01*
X124900000Y-84316666D01*
X124866666Y-84350000D01*
X124833333Y-84416666D01*
X124833333Y-84583333D01*
X124866666Y-84650000D01*
X124900000Y-84683333D01*
X124966666Y-84716666D01*
X125133333Y-84716666D01*
X125200000Y-84683333D01*
X125233333Y-84650000D01*
X124166666Y-84716666D02*
X124566666Y-84716666D01*
X124366666Y-84716666D02*
X124366666Y-84016666D01*
X124433333Y-84116666D01*
X124500000Y-84183333D01*
X124566666Y-84216666D01*
X82750000Y-119650000D02*
X82783333Y-119683333D01*
X82883333Y-119716666D01*
X82950000Y-119716666D01*
X83050000Y-119683333D01*
X83116666Y-119616666D01*
X83150000Y-119550000D01*
X83183333Y-119416666D01*
X83183333Y-119316666D01*
X83150000Y-119183333D01*
X83116666Y-119116666D01*
X83050000Y-119050000D01*
X82950000Y-119016666D01*
X82883333Y-119016666D01*
X82783333Y-119050000D01*
X82750000Y-119083333D01*
X82416666Y-119716666D02*
X82283333Y-119716666D01*
X82216666Y-119683333D01*
X82183333Y-119650000D01*
X82116666Y-119550000D01*
X82083333Y-119416666D01*
X82083333Y-119150000D01*
X82116666Y-119083333D01*
X82150000Y-119050000D01*
X82216666Y-119016666D01*
X82350000Y-119016666D01*
X82416666Y-119050000D01*
X82450000Y-119083333D01*
X82483333Y-119150000D01*
X82483333Y-119316666D01*
X82450000Y-119383333D01*
X82416666Y-119416666D01*
X82350000Y-119450000D01*
X82216666Y-119450000D01*
X82150000Y-119416666D01*
X82116666Y-119383333D01*
X82083333Y-119316666D01*
X81850000Y-119016666D02*
X81383333Y-119016666D01*
X81683333Y-119716666D01*
M02*
