M48
; DRILL file {KiCad (5.1.0)-1} date 15.7.2019 22:00:41
; FORMAT={-:-/ absolute / inch / decimal}
; #@! TF.CreationDate,2019-07-15T22:00:41+02:00
; #@! TF.GenerationSoftware,Kicad,Pcbnew,(5.1.0)-1
; #@! TF.FileFunction,Plated,1,4,PTH
FMAT,2
INCH
T1C0.0118
T2C0.0157
T3C0.0173
T4C0.0197
T5C0.0236
T6C0.0394
T7C0.0433
T8C0.0472
T9C0.0531
T10C0.1063
T11C0.1260
T12C0.1969
%
G90
G05
T1
X1.3106Y-4.2528
X1.3378Y-4.4437
X1.3504Y-4.0906
X1.3511Y-4.6425
X1.3752Y-4.3669
X1.3804Y-4.2756
X1.439Y-4.5906
X1.4681Y-4.6224
X1.478Y-4.6587
X1.4787Y-4.0543
X1.4833Y-4.2677
X1.4833Y-4.2972
X1.4833Y-4.3268
X1.4833Y-4.3563
X1.5128Y-4.2677
X1.5128Y-4.2972
X1.5128Y-4.3268
X1.5128Y-4.3563
X1.5374Y-4.4547
X1.5378Y-4.5945
X1.5423Y-4.2677
X1.5423Y-4.2972
X1.5423Y-4.3268
X1.5423Y-4.3563
X1.5827Y-4.4449
X1.5941Y-4.5945
X1.6161Y-4.8976
X1.6189Y-4.398
X1.6211Y-4.3087
X1.6219Y-4.7639
X1.6398Y-4.4287
X1.7055Y-4.1409
X1.7059Y-4.1661
X1.7638Y-4.8189
X1.8071Y-4.126
X2.4429Y-4.2776
X2.5126Y-4.6311
X2.9154Y-4.8287
X2.9154Y-4.8583
X2.9154Y-4.8878
X2.9154Y-4.9173
X2.9154Y-4.9469
X2.9449Y-4.8287
X2.9449Y-4.8583
X2.9449Y-4.8878
X2.9449Y-4.9173
X2.9449Y-4.9469
X2.9744Y-4.8287
X2.9744Y-4.8583
X2.9744Y-4.8878
X2.9744Y-4.9173
X2.9744Y-4.9469
X3.0039Y-4.8287
X3.0039Y-4.8583
X3.0039Y-4.8878
X3.0039Y-4.9173
X3.0039Y-4.9469
X3.1819Y-4.335
X3.2894Y-4.6811
X3.2894Y-4.7106
X3.2894Y-4.7402
X3.4272Y-4.3366
X3.4272Y-4.6811
X3.4272Y-4.7106
X3.4272Y-4.7402
X3.4567Y-4.3366
X3.4724Y-4.6248
X3.4862Y-4.3366
X3.5551Y-4.3957
X3.624Y-4.3957
X3.6724Y-4.5461
X3.6732Y-4.4154
X3.7323Y-4.4154
X3.8061Y-4.5531
X3.8061Y-4.5827
X3.8061Y-4.6122
X3.8067Y-4.5059
X3.8356Y-4.5531
X3.8356Y-4.5827
X3.8356Y-4.6122
X3.9094Y-4.3415
X3.9094Y-4.3711
X3.9539Y-4.3976
X3.9862Y-4.5626
X4.0571Y-4.4449
X4.0594Y-4.5665
X4.1567Y-4.5622
X4.2343Y-4.4843
X4.3425Y-4.5236
X4.3437Y-4.4429
X4.3469Y-4.6039
X4.3819Y-4.2677
X4.4114Y-4.4843
X4.4213Y-4.376
X4.4409Y-4.4843
X4.4606Y-4.2677
X4.4624Y-4.5902
X4.5Y-4.5236
X4.5394Y-4.2677
X4.5398Y-4.626
X4.5847Y-4.3712
X4.5984Y-4.4843
X4.6181Y-4.2677
X4.628Y-4.4843
X4.6886Y-4.8213
X4.6969Y-4.2677
X4.7067Y-4.5827
X4.739Y-4.3728
X4.7559Y-4.5531
X4.7665Y-4.5
X4.7756Y-4.2677
X4.8039Y-4.6531
X4.8055Y-4.6209
X4.8232Y-4.826
X4.8394Y-4.4799
X4.8492Y-4.339
X4.8543Y-4.5531
X4.9193Y-4.6701
X4.9421Y-4.2346
X5.0669Y-4.3921
X5.176Y-4.5378
X5.1765Y-4.6894
X5.2289Y-4.6898
X5.2681Y-4.6118
X5.2705Y-4.5016
X5.4539Y-4.8055
X5.4646Y-4.4535
X5.4944Y-4.8272
X5.5465Y-4.5035
X5.6258Y-4.4758
X5.7366Y-4.639
X5.7508Y-4.435
X5.8673Y-4.8772
X5.9886Y-4.9154
X5.9961Y-3.8051
X5.9961Y-3.9921
X6.124Y-4.3465
X6.1297Y-4.6895
X6.1535Y-4.3465
X6.1654Y-4.6878
X6.1831Y-4.3465
X6.2106Y-4.6492
X6.2177Y-4.5909
X6.2437Y-4.6157
X6.2567Y-4.9075
X6.2587Y-4.5032
X6.2618Y-4.3469
X6.2909Y-4.4717
X6.3209Y-4.3461
X6.3225Y-4.5051
X6.3579Y-4.885
X6.3889Y-4.6684
X6.4004Y-4.729
X6.4047Y-4.643
X6.4118Y-4.8102
X6.4161Y-4.6992
X6.4225Y-4.7496
X6.4357Y-4.6361
X6.4417Y-4.8027
X6.4433Y-4.7728
X6.452Y-4.5805
X6.4661Y-4.8492
X6.4697Y-4.9835
X6.4923Y-4.6287
X6.5008Y-4.3846
X6.5164Y-4.6466
X6.524Y-4.5511
X6.5264Y-4.5846
X6.5472Y-4.6811
X6.5547Y-4.9862
X6.6114Y-4.5783
X6.6269Y-4.7672
X6.6333Y-4.5563
X6.6532Y-4.5339
X6.6909Y-4.4161
X6.6976Y-4.9874
X6.7018Y-4.5513
X6.7846Y-4.9874
X6.8114Y-4.5386
X6.8126Y-4.7783
X6.8142Y-4.7485
X6.8331Y-4.5913
X6.8403Y-4.7337
X6.8433Y-4.5244
X6.8512Y-4.7783
X6.8563Y-4.2571
X6.9016Y-4.2185
X6.9311Y-4.2185
X6.9409Y-4.3563
X6.9425Y-4.4646
X6.9705Y-4.2185
X7.0Y-4.2185
X7.0264Y-4.4445
X7.0272Y-4.4161
X7.0311Y-4.7783
X7.0343Y-4.6512
X7.0594Y-4.2504
X7.078Y-4.5689
X7.0987Y-4.3578
X7.1382Y-4.2504
X7.1472Y-4.635
X7.1807Y-4.4807
X7.2161Y-4.2508
X7.2362Y-4.563
X7.2574Y-4.3578
X7.2657Y-4.563
X7.2913Y-4.8238
X7.2949Y-4.2508
X7.3418Y-4.8469
X7.3732Y-4.2508
X7.3789Y-4.5925
X7.3789Y-4.627
X7.4123Y-4.3578
X7.4173Y-4.8094
X7.4493Y-4.2543
X7.4555Y-4.811
X7.4717Y-4.65
X7.5079Y-4.6264
X7.539Y-4.4004
X7.578Y-4.5051
X7.5909Y-3.7685
X7.6201Y-4.2579
X7.6534Y-4.2067
X7.782Y-4.7732
X7.8736Y-4.9587
X7.8929Y-4.7512
X7.9945Y-4.9579
X8.1122Y-4.7571
X8.1228Y-4.9579
X8.4063Y-4.4382
X8.4272Y-4.3465
X8.4567Y-4.3465
X8.4862Y-4.3465
X8.6535Y-3.815
X8.6535Y-3.9921
X9.6839Y-4.4642
X9.6846Y-4.4358
X9.6846Y-4.5331
X9.7165Y-4.2638
X9.7564Y-4.3775
X9.7943Y-4.2638
X9.8403Y-4.5296
X9.874Y-4.2628
X9.9109Y-4.3775
X9.9183Y-4.499
X9.9429Y-4.499
X9.9518Y-4.2628
X10.0315Y-4.2638
X10.0364Y-4.622
X10.0364Y-4.6565
X10.0704Y-4.3775
X10.1081Y-4.2659
X10.2181Y-4.2657
X10.2874Y-4.2087
T2
X1.7047Y-4.4941
X1.7047Y-4.5531
X1.7047Y-4.6122
X1.7047Y-4.6713
X1.7244Y-4.4646
X1.7244Y-4.5236
X1.7244Y-4.5827
X1.7244Y-4.6417
X1.7244Y-4.7008
X1.7406Y-4.0732
X1.813Y-4.2677
X1.813Y-4.3169
X1.813Y-4.3661
X1.8524Y-4.2677
X1.8524Y-4.3169
X1.8524Y-4.3661
X1.8917Y-4.2677
X1.8917Y-4.3169
X1.8917Y-4.3661
X1.9311Y-4.5138
X1.9311Y-4.5728
X1.9311Y-4.6319
X1.9311Y-4.6909
X1.9311Y-4.75
X1.9311Y-4.8091
X1.9508Y-4.4843
X1.9508Y-4.5433
X1.9508Y-4.6024
X1.9508Y-4.6614
X1.9508Y-4.7205
X1.9508Y-4.7795
X1.9508Y-4.8386
X2.0197Y-4.2087
X2.0197Y-4.2579
X2.0197Y-4.3071
X2.0591Y-4.2087
X2.0591Y-4.2579
X2.0591Y-4.3071
X2.0984Y-4.2087
X2.0984Y-4.2579
X2.0984Y-4.3071
X2.1378Y-4.2087
X2.1378Y-4.2579
X2.1378Y-4.3071
X2.1673Y-4.4547
X2.1673Y-4.5138
X2.1673Y-4.5728
X2.1673Y-4.6319
X2.1673Y-4.6909
X2.1673Y-4.75
X2.1673Y-4.8091
X2.187Y-4.4843
X2.187Y-4.5433
X2.187Y-4.6024
X2.187Y-4.6614
X2.187Y-4.7205
X2.187Y-4.7795
X2.187Y-4.8386
X2.1878Y-4.3996
X2.2559Y-4.2283
X2.2559Y-4.2776
X2.2559Y-4.3268
X2.2953Y-4.2283
X2.2953Y-4.2776
X2.2953Y-4.3268
X2.3248Y-4.5039
X2.3346Y-4.2283
X2.3346Y-4.2776
X2.3346Y-4.3268
X2.3642Y-4.5039
X2.374Y-4.2283
X2.374Y-4.2776
X2.374Y-4.3268
X2.3937Y-4.0118
X2.3937Y-4.0906
X2.4035Y-4.5039
X2.4528Y-4.872
X2.4528Y-4.9114
X2.4528Y-4.9504
X2.4724Y-3.9823
X2.4724Y-4.0512
X2.4724Y-4.1299
X2.4858Y-4.872
X2.4858Y-4.9114
X2.4858Y-4.95
X2.5512Y-4.0118
X2.5512Y-4.0906
X2.5512Y-4.1693
X2.5512Y-4.248
X2.6299Y-3.9921
X2.6299Y-4.0512
X2.6299Y-4.1299
X2.6299Y-4.2087
X2.6299Y-4.2874
X2.7087Y-4.0118
X2.7087Y-4.0906
X2.7087Y-4.1693
X2.7087Y-4.248
X2.7874Y-3.9823
X2.7874Y-4.0512
X2.7874Y-4.1299
X2.7874Y-4.2087
X2.7874Y-4.2874
X2.8661Y-4.0118
X2.8661Y-4.0906
X2.8661Y-4.1693
X2.8661Y-4.248
X2.9449Y-3.9823
X2.9449Y-4.0512
X2.9449Y-4.1299
X2.9449Y-4.2087
X2.9449Y-4.2874
X3.0236Y-4.0118
X3.0236Y-4.0906
X3.0236Y-4.1693
X3.0236Y-4.248
X3.1024Y-3.9823
X3.1024Y-4.0512
X3.1024Y-4.1299
X3.1024Y-4.2087
X3.1024Y-4.2874
X3.3386Y-3.815
X3.3386Y-3.9823
X3.5748Y-3.9823
X3.5748Y-4.0512
X3.5748Y-4.1299
X3.5748Y-4.2087
X3.5748Y-4.2874
X3.6535Y-4.0118
X3.6535Y-4.0906
X3.6535Y-4.1693
X3.6535Y-4.248
X3.7323Y-3.9823
X3.7323Y-4.0512
X3.7323Y-4.1299
X3.7323Y-4.2087
X3.7323Y-4.2874
X3.811Y-4.0118
X3.811Y-4.0906
X3.811Y-4.1693
X3.811Y-4.248
X3.8898Y-3.9823
X3.8898Y-4.0512
X3.8898Y-4.1299
X3.8898Y-4.2087
X3.8898Y-4.2874
X3.9685Y-4.0118
X3.9685Y-4.0906
X3.9685Y-4.1693
X4.0472Y-3.9823
X4.0472Y-4.0512
X4.0472Y-4.1299
X4.4409Y-2.8504
X4.4409Y-2.8898
X4.4409Y-2.9291
X5.0469Y-4.0118
X5.0469Y-4.0906
X5.1256Y-3.9724
X5.1256Y-4.0512
X5.1256Y-4.1299
X5.2043Y-4.0118
X5.2043Y-4.0906
X5.2043Y-4.1693
X5.2043Y-4.248
X5.2831Y-3.9921
X5.2831Y-4.0512
X5.2831Y-4.1299
X5.2831Y-4.2087
X5.2831Y-4.2614
X5.3618Y-4.0118
X5.3618Y-4.0906
X5.3618Y-4.1693
X5.3618Y-4.248
X5.4406Y-3.9724
X5.4406Y-4.0512
X5.4406Y-4.1299
X5.4406Y-4.2087
X5.4406Y-4.2614
X5.5193Y-4.0118
X5.5193Y-4.0906
X5.5193Y-4.1693
X5.5193Y-4.248
X5.5968Y-4.2614
X5.598Y-3.9724
X5.598Y-4.0512
X5.598Y-4.1299
X5.598Y-4.2087
X5.6768Y-4.0118
X5.6768Y-4.0906
X5.6768Y-4.1693
X5.6768Y-4.248
X5.7555Y-3.9724
X5.7555Y-4.0512
X5.7555Y-4.1299
X5.7555Y-4.2087
X5.7555Y-4.2874
X6.2323Y-3.9724
X6.2323Y-4.0512
X6.2323Y-4.1299
X6.2323Y-4.2087
X6.2323Y-4.2874
X6.311Y-4.0118
X6.311Y-4.0906
X6.311Y-4.1693
X6.311Y-4.248
X6.3898Y-3.9724
X6.3898Y-4.0512
X6.3898Y-4.1299
X6.3898Y-4.2087
X6.3898Y-4.2874
X6.4685Y-4.0118
X6.4685Y-4.0906
X6.4685Y-4.1693
X6.4685Y-4.248
X6.5472Y-3.9724
X6.5472Y-4.0512
X6.5472Y-4.1299
X6.5472Y-4.2087
X6.5472Y-4.2874
X6.626Y-4.0118
X6.626Y-4.0906
X6.626Y-4.1693
X6.7047Y-3.9724
X6.7047Y-4.0512
X6.7047Y-4.1299
X7.098Y-2.8429
X7.098Y-2.8823
X7.098Y-2.9217
X7.7075Y-4.0118
X7.7075Y-4.0906
X7.7862Y-3.9724
X7.7862Y-4.0512
X7.7862Y-4.1299
X7.865Y-4.0118
X7.865Y-4.0906
X7.865Y-4.1693
X7.865Y-4.248
X7.9437Y-3.9921
X7.9437Y-4.0512
X7.9437Y-4.1299
X7.9437Y-4.2087
X7.9437Y-4.2874
X8.0224Y-4.0118
X8.0224Y-4.0906
X8.0224Y-4.1693
X8.0224Y-4.248
X8.1012Y-3.9724
X8.1012Y-4.0512
X8.1012Y-4.1299
X8.1012Y-4.2087
X8.1012Y-4.2874
X8.1799Y-4.0118
X8.1799Y-4.0906
X8.1799Y-4.1693
X8.1799Y-4.248
X8.2587Y-3.9724
X8.2587Y-4.0512
X8.2587Y-4.1299
X8.2587Y-4.2087
X8.2587Y-4.2874
X8.3374Y-4.0118
X8.3374Y-4.0906
X8.3374Y-4.1693
X8.3374Y-4.248
X8.4161Y-3.9724
X8.4161Y-4.0512
X8.4161Y-4.1299
X8.4161Y-4.2087
X8.8898Y-3.9724
X8.8898Y-4.0512
X8.8898Y-4.1299
X8.8898Y-4.2087
X8.8898Y-4.2874
X8.9685Y-4.0118
X8.9685Y-4.0906
X8.9685Y-4.1693
X8.9685Y-4.248
X9.0472Y-3.9724
X9.0472Y-4.0512
X9.0472Y-4.1299
X9.0472Y-4.2087
X9.0472Y-4.2874
X9.126Y-4.0118
X9.126Y-4.0906
X9.126Y-4.1693
X9.126Y-4.248
X9.2047Y-3.9724
X9.2047Y-4.0512
X9.2047Y-4.1299
X9.2047Y-4.2087
X9.2047Y-4.2874
X9.2835Y-4.0118
X9.2835Y-4.0906
X9.2835Y-4.1693
X9.3622Y-3.9724
X9.3622Y-4.0512
X9.3622Y-4.1299
X9.7555Y-2.8587
X9.7571Y-2.8976
X9.7571Y-2.937
T3
X5.6329Y-4.9087
X5.6585Y-4.948
X5.6841Y-4.9087
X5.7096Y-4.948
X5.7352Y-4.9087
T4
X1.2913Y-3.1063
X1.2913Y-3.1457
X1.2913Y-3.185
X1.2913Y-3.2244
X1.2913Y-3.4213
X1.2913Y-3.4606
X1.2913Y-3.5
X1.2913Y-3.5394
X1.3307Y-3.126
X1.3307Y-3.1654
X1.3307Y-3.2047
X1.3307Y-3.4409
X1.3307Y-3.4803
X1.3307Y-3.5197
X1.3701Y-3.1063
X1.3701Y-3.1457
X1.3701Y-3.185
X1.3701Y-3.2244
X1.3701Y-3.4213
X1.3701Y-3.4606
X1.3701Y-3.5
X1.3701Y-3.5394
X1.4094Y-3.126
X1.4094Y-3.1654
X1.4094Y-3.2047
X1.4094Y-3.4409
X1.4094Y-3.4803
X1.4094Y-3.5197
X1.4488Y-3.1063
X1.4488Y-3.1457
X1.4488Y-3.185
X1.4488Y-3.2244
X1.4488Y-3.4213
X1.4488Y-3.4606
X1.4488Y-3.5
X1.4488Y-3.5394
X1.4882Y-3.126
X1.4882Y-3.1654
X1.4882Y-3.2047
X1.4882Y-3.4409
X1.4882Y-3.4803
X1.4882Y-3.5197
X1.5276Y-3.1063
X1.5276Y-3.1457
X1.5276Y-3.185
X1.5276Y-3.2244
X1.5276Y-3.4213
X1.5276Y-3.4606
X1.5276Y-3.5
X1.5276Y-3.5394
X1.5669Y-3.126
X1.5669Y-3.1654
X1.5669Y-3.2047
X1.5669Y-3.4409
X1.5669Y-3.4803
X1.5669Y-3.5197
X1.6063Y-3.1063
X1.6063Y-3.1457
X1.6063Y-3.185
X1.6063Y-3.2244
X1.6063Y-3.4213
X1.6063Y-3.4606
X1.6063Y-3.5
X1.6063Y-3.5394
X1.6457Y-3.126
X1.6457Y-3.1654
X1.6457Y-3.2047
X1.6457Y-3.4409
X1.6457Y-3.4803
X1.6457Y-3.5197
X1.685Y-3.1063
X1.685Y-3.1457
X1.685Y-3.185
X1.685Y-3.2244
X1.685Y-3.4606
X1.685Y-3.5
X1.685Y-3.5394
X1.7244Y-3.126
X1.7244Y-3.1654
X1.7244Y-3.2047
X1.7244Y-3.5197
X1.7638Y-3.1063
X1.7638Y-3.1457
X1.7638Y-3.185
X1.7638Y-3.2244
X1.7638Y-3.5394
X1.8031Y-3.126
X1.8031Y-3.1654
X1.8031Y-3.2047
X1.8425Y-3.1063
X1.8425Y-3.1457
X1.8425Y-3.185
X1.8425Y-3.2244
X1.8819Y-3.126
X1.8819Y-3.1654
X1.8819Y-3.2047
X1.9213Y-3.1063
X1.9213Y-3.1457
X1.9213Y-3.185
X1.9213Y-3.2244
X1.9606Y-3.126
X1.9606Y-3.1654
X1.9606Y-3.2047
X2.0394Y-3.4213
X2.0394Y-3.4606
X2.0394Y-3.5
X2.0394Y-3.5394
X2.0787Y-3.4409
X2.0787Y-3.4803
X2.0787Y-3.5197
X2.1181Y-3.4213
X2.1181Y-3.4606
X2.1181Y-3.5
X2.1181Y-3.5394
X2.1575Y-3.4409
X2.1575Y-3.4803
X2.1575Y-3.5197
X2.1969Y-3.4213
X2.1969Y-3.4606
X2.1969Y-3.5
X2.1969Y-3.5394
X4.5138Y-3.4213
X4.5138Y-3.4606
X4.5138Y-3.5
X4.5138Y-3.5394
X4.5138Y-3.5787
X4.5138Y-3.6181
X4.5492Y-3.4409
X4.5492Y-3.4803
X4.5492Y-3.5197
X4.5492Y-3.5591
X4.5492Y-3.5984
X4.5886Y-3.4213
X4.5886Y-3.4606
X4.5886Y-3.5
X4.5886Y-3.5394
X4.5886Y-3.5787
X4.5886Y-3.6181
X4.628Y-3.4409
X4.628Y-3.4803
X4.628Y-3.5197
X4.628Y-3.5591
X4.628Y-3.5984
X4.6969Y-3.1063
X4.6969Y-3.1457
X4.6969Y-3.185
X4.6969Y-3.2244
X4.7362Y-3.126
X4.7362Y-3.1654
X4.7362Y-3.2047
X4.7756Y-3.1063
X4.7756Y-3.1457
X4.7756Y-3.185
X4.7756Y-3.2244
X4.815Y-3.126
X4.815Y-3.1654
X4.815Y-3.2047
X4.8543Y-3.1063
X4.8543Y-3.1457
X4.8543Y-3.185
X4.8543Y-3.2244
X7.1713Y-3.4213
X7.1713Y-3.4606
X7.1713Y-3.5
X7.1713Y-3.5394
X7.1713Y-3.5787
X7.1713Y-3.6181
X7.2067Y-3.4409
X7.2067Y-3.4803
X7.2067Y-3.5197
X7.2067Y-3.5591
X7.2067Y-3.5984
X7.2461Y-3.4213
X7.2461Y-3.4606
X7.2461Y-3.5
X7.2461Y-3.5394
X7.2461Y-3.5787
X7.2461Y-3.6181
X7.2854Y-3.4409
X7.2854Y-3.4803
X7.2854Y-3.5197
X7.2854Y-3.5591
X7.2854Y-3.5984
X7.3543Y-3.1063
X7.3543Y-3.1457
X7.3543Y-3.185
X7.3543Y-3.2244
X7.3937Y-3.126
X7.3937Y-3.1654
X7.3937Y-3.2047
X7.4331Y-3.1063
X7.4331Y-3.1457
X7.4331Y-3.185
X7.4331Y-3.2244
X7.4724Y-3.126
X7.4724Y-3.1654
X7.4724Y-3.2047
X7.5118Y-3.1063
X7.5118Y-3.1457
X7.5118Y-3.185
X7.5118Y-3.2244
X9.8287Y-3.4213
X9.8287Y-3.4606
X9.8287Y-3.5
X9.8287Y-3.5394
X9.8287Y-3.5787
X9.8287Y-3.6181
X9.8642Y-3.4409
X9.8642Y-3.4803
X9.8642Y-3.5197
X9.8642Y-3.5591
X9.8642Y-3.5984
X9.9035Y-3.4213
X9.9035Y-3.4606
X9.9035Y-3.5
X9.9035Y-3.5394
X9.9035Y-3.5787
X9.9035Y-3.6181
X9.9429Y-3.4409
X9.9429Y-3.4803
X9.9429Y-3.5197
X9.9429Y-3.5591
X9.9429Y-3.5984
X10.0118Y-3.1063
X10.0118Y-3.1457
X10.0118Y-3.185
X10.0118Y-3.2244
X10.0512Y-3.126
X10.0512Y-3.1654
X10.0512Y-3.2047
X10.0906Y-3.1063
X10.0906Y-3.1457
X10.0906Y-3.185
X10.0906Y-3.2244
X10.1299Y-3.126
X10.1299Y-3.1654
X10.1299Y-3.2047
X10.1693Y-3.1063
X10.1693Y-3.1457
X10.1693Y-3.185
X10.1693Y-3.2244
X3.2638Y-4.5039
X3.2915Y-4.4371
X3.2915Y-4.5708
X3.3583Y-4.4094
X3.3583Y-4.5984
X3.4251Y-4.4371
X3.4251Y-4.5708
X3.4528Y-4.5039
X9.7795Y-2.5354
X9.8072Y-2.4686
X9.8072Y-2.6022
X9.874Y-2.4409
X9.874Y-2.6299
X9.9408Y-2.4686
X9.9408Y-2.6022
X9.9685Y-2.5354
X7.2402Y-2.5354
X7.2678Y-2.4686
X7.2678Y-2.6022
X7.3346Y-2.4409
X7.3346Y-2.6299
X7.4015Y-2.4686
X7.4015Y-2.6022
X7.4291Y-2.5354
X2.0039Y-2.5354
X2.0316Y-2.4686
X2.0316Y-2.6022
X2.0984Y-2.4409
X2.0984Y-2.6299
X2.1652Y-2.4686
X2.1652Y-2.6022
X2.1929Y-2.5354
X10.0945Y-4.878
X10.1222Y-4.8111
X10.1222Y-4.9448
X10.189Y-4.7835
X10.189Y-4.9724
X10.2558Y-4.8111
X10.2558Y-4.9448
X10.2835Y-4.878
X4.6024Y-2.5354
X4.63Y-2.4686
X4.63Y-2.6022
X4.6969Y-2.4409
X4.6969Y-2.6299
X4.7637Y-2.4686
X4.7637Y-2.6022
X4.7913Y-2.5354
X8.5591Y-4.4646
X8.5867Y-4.3978
X8.5867Y-4.5314
X8.6535Y-4.3701
X8.6535Y-4.5591
X8.7204Y-4.3978
X8.7204Y-4.5314
X8.748Y-4.4646
X1.3346Y-4.878
X1.3623Y-4.8111
X1.3623Y-4.9448
X1.4291Y-4.7835
X1.4291Y-4.9724
X1.4959Y-4.8111
X1.4959Y-4.9448
X1.5236Y-4.878
X5.9016Y-4.4646
X5.9292Y-4.3978
X5.9292Y-4.5314
X5.9961Y-4.3701
X5.9961Y-4.5591
X6.0629Y-4.3978
X6.0629Y-4.5314
X6.0906Y-4.4646
T5
X4.4734Y-4.126
X4.5886Y-3.9429
X4.5886Y-3.9921
X4.6378Y-3.9429
X4.6378Y-3.9921
X4.7234Y-4.124
X7.1309Y-4.1112
X7.2461Y-3.9429
X7.2461Y-3.9921
X7.2953Y-3.9429
X7.2953Y-3.9921
X7.3789Y-4.1191
X9.7886Y-4.1409
X9.9035Y-3.9626
X9.9035Y-4.0118
X9.9528Y-3.9626
X9.9528Y-4.0118
X10.0406Y-4.1449
X3.2008Y-2.7126
X3.2067Y-2.6535
X3.2067Y-2.7717
X3.2205Y-2.6043
X3.2205Y-2.8209
X3.2697Y-2.5748
X3.2697Y-2.8504
X3.3287Y-2.5551
X3.3287Y-2.8701
X3.3878Y-2.5748
X3.3878Y-2.8504
X3.437Y-2.6043
X3.437Y-2.8209
X3.4508Y-2.6535
X3.4508Y-2.7717
X3.4567Y-2.7126
X1.3602Y-2.8898
X1.3661Y-2.8307
X1.3661Y-2.9488
X1.3799Y-2.7815
X1.3799Y-2.998
X1.4291Y-2.752
X1.4291Y-3.0276
X1.4882Y-2.7323
X1.4882Y-3.0472
X1.5472Y-2.752
X1.5472Y-3.0276
X1.5965Y-2.7815
X1.5965Y-2.998
X1.6102Y-2.8307
X1.6102Y-2.9488
X1.6161Y-2.8898
X1.3602Y-3.7953
X1.3661Y-3.7362
X1.3661Y-3.8543
X1.3799Y-3.687
X1.3799Y-3.9035
X1.4291Y-3.6575
X1.4291Y-3.9331
X1.4882Y-3.6378
X1.4882Y-3.9528
X1.5472Y-3.6575
X1.5472Y-3.9331
X1.5965Y-3.687
X1.5965Y-3.9035
X1.6102Y-3.7362
X1.6102Y-3.8543
X1.6161Y-3.7953
X5.8583Y-2.6929
X5.8642Y-2.6339
X5.8642Y-2.752
X5.878Y-2.5846
X5.878Y-2.8012
X5.9272Y-2.5551
X5.9272Y-2.8307
X5.9862Y-2.5354
X5.9862Y-2.8504
X6.0453Y-2.5551
X6.0453Y-2.8307
X6.0945Y-2.5846
X6.0945Y-2.8012
X6.1083Y-2.6339
X6.1083Y-2.752
X6.1142Y-2.6929
X8.5157Y-2.6929
X8.5217Y-2.6339
X8.5217Y-2.752
X8.5354Y-2.5846
X8.5354Y-2.8012
X8.5846Y-2.5551
X8.5846Y-2.8307
X8.6437Y-2.5354
X8.6437Y-2.8504
X8.7028Y-2.5551
X8.7028Y-2.8307
X8.752Y-2.5846
X8.752Y-2.8012
X8.7657Y-2.6339
X8.7657Y-2.752
X8.7717Y-2.6929
T6
X7.1772Y-3.0276
X7.4724Y-3.0276
X4.126Y-4.7205
X4.126Y-4.8205
X4.126Y-4.9205
X3.9685Y-4.7205
X3.9685Y-4.8205
X3.9685Y-4.9205
X1.7244Y-4.9518
X1.8244Y-4.9518
X8.5157Y-3.3031
X8.8065Y-3.3544
X1.8622Y-3.7362
X2.1575Y-3.7362
X4.4606Y-4.7598
X4.5606Y-4.7598
X4.6606Y-4.7598
X4.7606Y-4.7598
X4.8606Y-4.7598
X4.9606Y-4.7598
X5.0906Y-4.9173
X5.1906Y-4.9173
X5.2906Y-4.9173
X5.3906Y-4.9173
X3.4862Y-4.9272
X3.5862Y-4.9272
X3.6862Y-4.9272
X9.8346Y-3.7559
X10.1299Y-3.7559
X3.2008Y-3.3031
X3.4916Y-3.3544
X4.2835Y-4.7205
X4.2835Y-4.8205
X4.2835Y-4.9205
X7.1772Y-3.7559
X7.4724Y-3.7559
X4.4606Y-4.9173
X4.5606Y-4.9173
X4.6606Y-4.9173
X4.7606Y-4.9173
X4.8606Y-4.9173
X9.8346Y-3.0276
X10.1299Y-3.0276
X1.8622Y-3.0079
X2.1575Y-3.0079
X4.5197Y-3.0276
X4.815Y-3.0276
X4.5197Y-3.7559
X4.815Y-3.7559
X7.2067Y-4.937
X7.3067Y-4.937
X7.4067Y-4.937
X7.5067Y-4.937
X7.6067Y-4.937
X5.8583Y-3.2835
X6.1491Y-3.3347
T7
X6.2882Y-3.7559
X6.3882Y-3.7559
X6.4882Y-3.7559
X9.3622Y-2.8898
X9.4622Y-2.8898
X9.5622Y-2.8898
X3.6339Y-2.8898
X3.7339Y-2.8898
X3.8339Y-2.8898
X3.6307Y-3.7559
X3.7307Y-3.7559
X3.8307Y-3.7559
X7.7449Y-3.7559
X7.8449Y-3.7559
X7.9449Y-3.7559
X8.9457Y-2.8898
X9.0457Y-2.8898
X9.1457Y-2.8898
X9.3591Y-3.7559
X9.4591Y-3.7559
X9.5591Y-3.7559
X4.0638Y-3.7559
X4.1638Y-3.7559
X4.2638Y-3.7559
X2.8476Y-3.7559
X2.9476Y-3.7559
X3.0476Y-3.7559
X8.1614Y-2.8898
X8.2614Y-2.8898
X8.3614Y-2.8898
X2.4299Y-3.7559
X2.5299Y-3.7559
X2.6299Y-3.7559
X6.7047Y-2.8898
X6.8047Y-2.8898
X6.9047Y-2.8898
X6.7016Y-3.7559
X6.8016Y-3.7559
X6.9016Y-3.7559
X8.1614Y-3.7559
X8.2614Y-3.7559
X8.3614Y-3.7559
X6.2913Y-2.8898
X6.3913Y-2.8898
X6.4913Y-2.8898
X5.0906Y-2.8898
X5.1906Y-2.8898
X5.2906Y-2.8898
X8.9457Y-3.7559
X9.0457Y-3.7559
X9.1457Y-3.7559
X5.5039Y-2.8898
X5.6039Y-2.8898
X5.7039Y-2.8898
X5.0874Y-3.7559
X5.1874Y-3.7559
X5.2874Y-3.7559
X2.4331Y-2.8898
X2.5331Y-2.8898
X2.6331Y-2.8898
X5.5008Y-3.7559
X5.6008Y-3.7559
X5.7008Y-3.7559
X7.7449Y-2.8898
X7.8449Y-2.8898
X7.9449Y-2.8898
X2.8465Y-2.8898
X2.9465Y-2.8898
X3.0465Y-2.8898
X4.0484Y-2.8898
X4.1484Y-2.8898
X4.2484Y-2.8898
T8
X2.6791Y-3.0276
X2.6791Y-3.6181
X9.3425Y-3.0276
X9.3425Y-3.6181
X5.3366Y-3.0276
X5.3366Y-3.6181
X6.685Y-3.0276
X6.685Y-3.6181
X7.9941Y-3.0276
X7.9941Y-3.6181
X4.0276Y-3.0276
X4.0276Y-3.6181
T9
X5.5433Y-4.9173
X5.8248Y-4.9173
T10
X3.1024Y-4.6909
X3.1024Y-4.8878
T11
X2.0984Y-2.5354
X10.189Y-4.878
X4.6969Y-2.5354
X8.6535Y-4.4646
X1.4291Y-4.878
X5.9961Y-4.4646
X3.3583Y-4.5039
X9.874Y-2.5354
X7.3346Y-2.5354
T12
X8.6437Y-2.6929
X3.3287Y-2.7126
X1.4882Y-2.8898
X1.4882Y-3.7953
X5.9862Y-2.6929
T0
M30
